Min Sans(자동 저장됨).glyphspackage
{
color = 11;
glyphname = numbersign;
kernLeft = numbersign;
kernRight = numbersign;
lastChange = "2022-01-31 14:04:10 +0000";
layers = (
{
layerId = "BD421374-7BB0-4447-A555-0F47AA5545D5";
shapes = (
{
closed = 1;
nodes = (
(135,0,l),
(172,202,l),
(369,202,l),
(332,0,l),
(371,0,l),
(409,202,l),
(560,202,l),
(560,238,l),
(414,238,l),
(465,506,l),
(578,506,l),
(578,542,l),
(471,542,l),
(507,736,l),
(468,736,l),
(433,542,l),
(235,542,l),
(270.006,736,l),
(232,736,l),
(197,542,l),
(45,542,l),
(45,506,l),
(191,506,l),
(140,238,l),
(26,238,l),
(26,202,l),
(135,202,l),
(96,0,l)
);
},
{
closed = 1;
nodes = (
(228,506,l),
(426,506,l),
(376,238,l),
(178,238,l)
);
}
);
width = 604.89197;
},
{
layerId = "4D0470F8-723D-4610-9591-64877B13A03C";
shapes = (
{
closed = 1;
nodes = (
(191,0,l),
(220,167,l),
(309,167,l),
(279,0,l),
(394,0,l),
(425,167,l),
(529,167,l),
(529,276,l),
(446,276,l),
(480,468,l),
(552,468,l),
(552,578,l),
(502,578,l),
(531,736,l),
(415,736,l),
(385,578,l),
(297,578,l),
(327,736,l),
(210,736,l),
(181,578,l),
(78,578,l),
(78,468,l),
(160,468,l),
(125,276,l),
(56,276,l),
(56,167,l),
(104,167,l),
(74,0,l)
);
},
{
closed = 1;
nodes = (
(276,468,l),
(365,468,l),
(330,276,l),
(242,276,l)
);
}
);
width = 605.88792;
},
{
associatedMasterId = "BD421374-7BB0-4447-A555-0F47AA5545D5";
layerId = "81293E3F-4823-4637-BC73-D481B65F340E";
name = Thin;
shapes = (
{
closed = 1;
nodes = (
(135,0,l),
(172,202,l),
(369,202,l),
(332,0,l),
(371,0,l),
(409,202,l),
(560,202,l),
(560,238,l),
(414,238,l),
(465,506,l),
(578,506,l),
(578,542,l),
(471,542,l),
(507,736,l),
(468,736,l),
(433,542,l),
(235,542,l),
(270.006,736,l),
(232,736,l),
(197,542,l),
(45,542,l),
(45,506,l),
(191,506,l),
(140,238,l),
(26,238,l),
(26,202,l),
(135,202,l),
(96,0,l)
);
},
{
closed = 1;
nodes = (
(228,506,l),
(426,506,l),
(376,238,l),
(178,238,l)
);
}
);
width = 604.89197;
},
{
associatedMasterId = "BD421374-7BB0-4447-A555-0F47AA5545D5";
layerId = "570228A7-C191-4E7C-B24B-CD9498E1B2AE";
name = Black;
shapes = (
{
closed = 1;
nodes = (
(191,0,l),
(220,167,l),
(309,167,l),
(279,0,l),
(394,0,l),
(425,167,l),
(529,167,l),
(529,276,l),
(446,276,l),
(480,468,l),
(552,468,l),
(552,578,l),
(502,578,l),
(531,736,l),
(415,736,l),
(385,578,l),
(297,578,l),
(327,736,l),
(210,736,l),
(181,578,l),
(78,578,l),
(78,468,l),
(160,468,l),
(125,276,l),
(56,276,l),
(56,167,l),
(104,167,l),
(74,0,l)
);
},
{
closed = 1;
nodes = (
(276,468,l),
(365,468,l),
(330,276,l),
(242,276,l)
);
}
);
width = 605.88792;
}
);
unicode = 35;
}
{
color = 11;
glyphname = dollar;
lastChange = "2022-01-31 14:04:10 +0000";
layers = (
{
layerId = "BD421374-7BB0-4447-A555-0F47AA5545D5";
shapes = (
{
closed = 1;
nodes = (
(327,-120,l),
(327,9,l),
(314,-4,l),
(443,0,o),
(534,71,o),
(534,187,cs),
(534,283,o),
(473,336,o),
(343,364,cs),
(249,384,ls),
(152,406,o),
(108,451,o),
(108,534,cs),
(108,637,o),
(185,705,o),
(300,705,cs),
(382,705,o),
(445,679,o),
(500,615,c),
(518,644,l),
(466,708,o),
(388,737,o),
(321,739,c),
(327,727,l),
(327,856,l),
(293,856,l),
(293,727,l),
(296,740,l),
(165,739,o),
(76,654,o),
(76,535,cs),
(76,434,o),
(132,375,o),
(252,349,cs),
(344,329,ls),
(454,304,o),
(500,263,o),
(500,188,cs),
(500,94,o),
(433,31,o),
(303,31,cs),
(203,31,o),
(144,57,o),
(79,117,c),
(59,88,l),
(124,23,o),
(211,-4,o),
(305,-4,c),
(293,8,l),
(293,-120,l)
);
}
);
width = 599.5;
},
{
layerId = "4D0470F8-723D-4610-9591-64877B13A03C";
shapes = (
{
closed = 1;
nodes = (
(379,-120,l),
(379,21,l),
(353,-3,l),
(490,13,o),
(583,98,o),
(583,225,cs),
(583,330,o),
(523,397,o),
(399,426,cs),
(286,451,ls),
(228,465,o),
(209,486,o),
(209,516,cs),
(209,560,o),
(249,591,o),
(319,591,cs),
(393,591,o),
(459,568,o),
(507,527,c),
(557,664,l),
(509,709,o),
(430,737,o),
(351,742,c),
(379,722,l),
(379,856,l),
(239,856,l),
(239,722,l),
(269,740,l),
(126,724,o),
(32,633,o),
(32,508,cs),
(32,398,o),
(93,330,o),
(215,302,cs),
(328,275,ls),
(387,262,o),
(407,242,o),
(407,211,cs),
(407,174,o),
(377,145,o),
(294,145,cs),
(215,145,o),
(130,173,o),
(70,215,c),
(20,72,l),
(80,25,o),
(173,-2,o),
(269,-6,c),
(239,21,l),
(239,-120,l)
);
}
);
width = 599.5;
},
{
associatedMasterId = "BD421374-7BB0-4447-A555-0F47AA5545D5";
layerId = "81293E3F-4823-4637-BC73-D481B65F340E";
name = Thin;
shapes = (
{
closed = 1;
nodes = (
(327,-120,l),
(327,9,l),
(314,-4,l),
(443,0,o),
(534,71,o),
(534,187,cs),
(534,283,o),
(473,336,o),
(343,364,cs),
(249,384,ls),
(152,406,o),
(108,451,o),
(108,534,cs),
(108,637,o),
(185,705,o),
(300,705,cs),
(382,705,o),
(445,679,o),
(500,615,c),
(518,644,l),
(466,708,o),
(388,737,o),
(321,739,c),
(327,727,l),
(327,856,l),
(293,856,l),
(293,727,l),
(296,740,l),
(165,739,o),
(76,654,o),
(76,535,cs),
(76,434,o),
(132,375,o),
(252,349,cs),
(344,329,ls),
(454,304,o),
(500,263,o),
(500,188,cs),
(500,94,o),
(433,31,o),
(303,31,cs),
(203,31,o),
(144,57,o),
(79,117,c),
(59,88,l),
(124,23,o),
(211,-4,o),
(305,-4,c),
(293,8,l),
(293,-120,l)
);
}
);
width = 599.5;
},
{
associatedMasterId = "BD421374-7BB0-4447-A555-0F47AA5545D5";
layerId = "570228A7-C191-4E7C-B24B-CD9498E1B2AE";
name = Black;
shapes = (
{
closed = 1;
nodes = (
(379,-120,l),
(379,21,l),
(353,-3,l),
(490,13,o),
(583,98,o),
(583,225,cs),
(583,330,o),
(523,397,o),
(399,426,cs),
(286,451,ls),
(228,465,o),
(209,486,o),
(209,516,cs),
(209,560,o),
(249,591,o),
(319,591,cs),
(393,591,o),
(459,568,o),
(507,527,c),
(557,664,l),
(509,709,o),
(430,737,o),
(351,742,c),
(379,722,l),
(379,856,l),
(239,856,l),
(239,722,l),
(269,740,l),
(126,724,o),
(32,633,o),
(32,508,cs),
(32,398,o),
(93,330,o),
(215,302,cs),
(328,275,ls),
(387,262,o),
(407,242,o),
(407,211,cs),
(407,174,o),
(377,145,o),
(294,145,cs),
(215,145,o),
(130,173,o),
(70,215,c),
(20,72,l),
(80,25,o),
(173,-2,o),
(269,-6,c),
(239,21,l),
(239,-120,l)
);
}
);
width = 599.5;
}
);
unicode = 36;
userData = {
com.typemytype.robofont.layerData = {
b = {
anchors = (
);
components = (
);
contours = (
);
lib = {
};
name = dollar;
unicodes = (
);
width = 1274;
};
};
};
}
{
color = 11;
glyphname = ampersand;
kernLeft = ampersand;
kernRight = ampersand;
lastChange = "2022-01-31 14:04:10 +0000";
layers = (
{
layerId = "BD421374-7BB0-4447-A555-0F47AA5545D5";
shapes = (
{
closed = 1;
nodes = (
(367,-8,o),
(449,36,o),
(500,116,c),
(489,116,l),
(583,0,l),
(623,0,l),
(504,146,l),
(507,131,l),
(546,201,o),
(572,300,o),
(575,419,c),
(540,419,l),
(538,315,o),
(518,219,o),
(486,160,c),
(495,161,l),
(289,412,l),
(287,403,l),
(409,487,o),
(441,538,o),
(441,610,cs),
(441,692,o),
(382,744,o),
(305,744,cs),
(213,744,o),
(156,685,o),
(156,598,cs),
(156,543,o),
(180,495,o),
(249,410,c),
(251,417,l),
(225,397,ls),
(113,312,o),
(68,256,o),
(68,164,cs),
(68,59,o),
(142,-8,o),
(271,-8,cs)
);
},
{
closed = 1;
nodes = (
(160,24,o),
(102,76,o),
(102,164,cs),
(102,243,o),
(136,290,o),
(242,369,cs),
(271,391,l),
(263,390,l),
(481,126,l),
(480,145,l),
(433,66,o),
(364,24,o),
(271,24,cs)
);
},
{
closed = 1;
nodes = (
(366,710,o),
(407,669,o),
(407,606,cs),
(407,546,o),
(371,500,o),
(264,424,c),
(277,428,l),
(208,512,o),
(190,546,o),
(190,597,cs),
(190,665,o),
(237,710,o),
(305,710,cs)
);
}
);
width = 657.22833;
},
{
layerId = "4D0470F8-723D-4610-9591-64877B13A03C";
shapes = (
{
closed = 1;
nodes = (
(403,-12,o),
(483,23,o),
(547,80,c),
(510,80,l),
(587,0,l),
(805,0,l),
(609,192,l),
(609,151,l),
(667,231,o),
(701,339,o),
(705,453,c),
(560,453,l),
(554,377,o),
(538,309,o),
(506,251,c),
(544,252,l),
(395,407,l),
(393,373,l),
(486,422,o),
(533,490,o),
(533,575,cs),
(533,680,o),
(459,748,o),
(340,748,cs),
(208,748,o),
(119,672,o),
(119,560,cs),
(119,500,o),
(146,439,o),
(199,390,c),
(225,422,l),
(192,406,ls),
(105,355,o),
(52,292,o),
(52,200,cs),
(52,72,o),
(155,-12,o),
(316,-12,cs)
);
},
{
closed = 1;
nodes = (
(267,123,o),
(229,156,o),
(229,211,cs),
(229,261,o),
(253,300,o),
(300,328,cs),
(324,341,l),
(250,340,l),
(446,139,l),
(450,180,l),
(415,143,o),
(378,123,o),
(330,123,cs)
);
},
{
closed = 1;
nodes = (
(376,632,o),
(396,611,o),
(396,569,cs),
(396,522,o),
(371,491,o),
(302,459,c),
(341,459,l),
(299,499,o),
(281,530,o),
(281,563,cs),
(281,605,o),
(303,632,o),
(341,632,cs)
);
}
);
width = 766.5035;
},
{
associatedMasterId = "BD421374-7BB0-4447-A555-0F47AA5545D5";
layerId = "81293E3F-4823-4637-BC73-D481B65F340E";
name = Thin;
shapes = (
{
closed = 1;
nodes = (
(367,-8,o),
(449,36,o),
(500,116,c),
(489,116,l),
(583,0,l),
(623,0,l),
(504,146,l),
(507,131,l),
(546,201,o),
(572,300,o),
(575,419,c),
(540,419,l),
(538,315,o),
(518,219,o),
(486,160,c),
(495,161,l),
(289,412,l),
(287,403,l),
(409,487,o),
(441,538,o),
(441,610,cs),
(441,692,o),
(382,744,o),
(305,744,cs),
(213,744,o),
(156,685,o),
(156,598,cs),
(156,543,o),
(180,495,o),
(249,410,c),
(251,417,l),
(225,397,ls),
(113,312,o),
(68,256,o),
(68,164,cs),
(68,59,o),
(142,-8,o),
(271,-8,cs)
);
},
{
closed = 1;
nodes = (
(160,24,o),
(102,76,o),
(102,164,cs),
(102,243,o),
(136,290,o),
(242,369,cs),
(271,391,l),
(263,390,l),
(481,126,l),
(480,145,l),
(433,66,o),
(364,24,o),
(271,24,cs)
);
},
{
closed = 1;
nodes = (
(366,710,o),
(407,669,o),
(407,606,cs),
(407,546,o),
(371,500,o),
(264,424,c),
(277,428,l),
(208,512,o),
(190,546,o),
(190,597,cs),
(190,665,o),
(237,710,o),
(305,710,cs)
);
}
);
width = 657.22833;
},
{
associatedMasterId = "BD421374-7BB0-4447-A555-0F47AA5545D5";
layerId = "570228A7-C191-4E7C-B24B-CD9498E1B2AE";
name = Black;
shapes = (
{
closed = 1;
nodes = (
(403,-12,o),
(483,23,o),
(547,80,c),
(510,80,l),
(587,0,l),
(805,0,l),
(609,192,l),
(609,151,l),
(667,231,o),
(701,339,o),
(705,453,c),
(560,453,l),
(554,377,o),
(538,309,o),
(506,251,c),
(544,252,l),
(395,407,l),
(393,373,l),
(486,422,o),
(533,490,o),
(533,575,cs),
(533,680,o),
(459,748,o),
(340,748,cs),
(208,748,o),
(119,672,o),
(119,560,cs),
(119,500,o),
(146,439,o),
(199,390,c),
(225,422,l),
(192,406,ls),
(105,355,o),
(52,292,o),
(52,200,cs),
(52,72,o),
(155,-12,o),
(316,-12,cs)
);
},
{
closed = 1;
nodes = (
(267,123,o),
(229,156,o),
(229,211,cs),
(229,261,o),
(253,300,o),
(300,328,cs),
(324,341,l),
(250,340,l),
(446,139,l),
(450,180,l),
(415,143,o),
(378,123,o),
(330,123,cs)
);
},
{
closed = 1;
nodes = (
(376,632,o),
(396,611,o),
(396,569,cs),
(396,522,o),
(371,491,o),
(302,459,c),
(341,459,l),
(299,499,o),
(281,530,o),
(281,563,cs),
(281,605,o),
(303,632,o),
(341,632,cs)
);
}
);
width = 766.5035;
}
);
unicode = 38;
}
{
color = 11;
glyphname = parenleft;
kernLeft = parenleft;
kernRight = braceleft;
lastChange = "2022-01-31 14:04:10 +0000";
layers = (
{
layerId = "BD421374-7BB0-4447-A555-0F47AA5545D5";
shapes = (
{
closed = 1;
nodes = (
(175,59,o),
(142,208,o),
(142,368,cs),
(142,527,o),
(175,675,o),
(241,829,c),
(208,841,l),
(140,683,o),
(106,530,o),
(106,368,cs),
(106,205,o),
(140,51,o),
(208,-105,c),
(241,-93,l)
);
}
);
width = 275;
},
{
layerId = "4D0470F8-723D-4610-9591-64877B13A03C";
shapes = (
{
closed = 1;
nodes = (
(311,81,o),
(277,208,o),
(277,368,cs),
(277,528,o),
(308,654,o),
(398,769,c),
(256,850,l),
(136,697,o),
(97,538,o),
(97,368,cs),
(97,197,o),
(140,38,o),
(256,-114,c),
(399,-34,l)
);
}
);
width = 409;
},
{
associatedMasterId = "4D0470F8-723D-4610-9591-64877B13A03C";
layerId = "FD41035A-F836-41E1-AB8E-136AA4431EA4";
name = "21년 12월 18일 16:40";
shapes = (
{
closed = 1;
nodes = (
(374,-65,l),
(313,99,o),
(290,215,o),
(290,368,cs),
(290,519,o),
(313,636,o),
(374,800,c),
(256,850,l),
(136,697,o),
(97,538,o),
(97,368,cs),
(97,197,o),
(140,38,o),
(256,-114,c)
);
}
);
width = 409.46478;
},
{
associatedMasterId = "BD421374-7BB0-4447-A555-0F47AA5545D5";
layerId = "A10517F7-44A3-4157-B308-0B13F60E2D45";
name = "21년 12월 18일 16:41";
shapes = (
{
closed = 1;
nodes = (
(239,-96,l),
(175,55,o),
(141,212,o),
(141,368,cs),
(141,523,o),
(175,681,o),
(239,831,c),
(208,841,l),
(140,683,o),
(106,530,o),
(106,368,cs),
(106,205,o),
(140,51,o),
(208,-105,c)
);
}
);
width = 274.86116;
},
{
associatedMasterId = "BD421374-7BB0-4447-A555-0F47AA5545D5";
layerId = "81293E3F-4823-4637-BC73-D481B65F340E";
name = Thin;
shapes = (
{
closed = 1;
nodes = (
(175,59,o),
(142,208,o),
(142,368,cs),
(142,527,o),
(175,675,o),
(241,829,c),
(208,841,l),
(140,683,o),
(106,530,o),
(106,368,cs),
(106,205,o),
(140,51,o),
(208,-105,c),
(241,-93,l)
);
}
);
width = 275;
},
{
associatedMasterId = "BD421374-7BB0-4447-A555-0F47AA5545D5";
layerId = "48389BB7-9F0C-49C0-AFB8-5E432B310794";
name = Thin;
shapes = (
{
closed = 1;
nodes = (
(239,-96,l),
(175,55,o),
(141,212,o),
(141,368,cs),
(141,523,o),
(175,681,o),
(239,831,c),
(208,841,l),
(140,683,o),
(106,530,o),
(106,368,cs),
(106,205,o),
(140,51,o),
(208,-105,c)
);
}
);
width = 274.86116;
},
{
associatedMasterId = "BD421374-7BB0-4447-A555-0F47AA5545D5";
layerId = "570228A7-C191-4E7C-B24B-CD9498E1B2AE";
name = Black;
shapes = (
{
closed = 1;
nodes = (
(311,81,o),
(277,208,o),
(277,368,cs),
(277,528,o),
(308,654,o),
(398,769,c),
(256,850,l),
(136,697,o),
(97,538,o),
(97,368,cs),
(97,197,o),
(140,38,o),
(256,-114,c),
(399,-34,l)
);
}
);
width = 409;
},
{
associatedMasterId = "BD421374-7BB0-4447-A555-0F47AA5545D5";
layerId = "0BBD3794-EDB0-42DA-AD18-BFA529DB69F4";
name = Black;
shapes = (
{
closed = 1;
nodes = (
(374,-65,l),
(313,99,o),
(290,215,o),
(290,368,cs),
(290,519,o),
(313,636,o),
(374,800,c),
(256,850,l),
(136,697,o),
(97,538,o),
(97,368,cs),
(97,197,o),
(140,38,o),
(256,-114,c)
);
}
);
width = 409.46478;
}
);
unicode = 40;
}
{
color = 11;
glyphname = parenright;
kernLeft = braceright;
kernRight = parenright;
lastChange = "2022-01-31 14:04:10 +0000";
layers = (
{
layerId = "BD421374-7BB0-4447-A555-0F47AA5545D5";
shapes = (
{
closed = 1;
nodes = (
(101,674,o),
(135,526,o),
(135,368,cs),
(135,208,o),
(101,59,o),
(33,-93,c),
(66,-105,l),
(136,51,o),
(171,205,o),
(171,368,cs),
(171,529,o),
(136,682,o),
(66,841,c),
(33,829,l)
);
}
);
width = 275;
},
{
layerId = "4D0470F8-723D-4610-9591-64877B13A03C";
shapes = (
{
closed = 1;
nodes = (
(98,655,o),
(132,527,o),
(132,368,cs),
(132,208,o),
(98,81,o),
(11,-34,c),
(154,-114,l),
(270,38,o),
(312,197,o),
(312,368,cs),
(312,538,o),
(270,697,o),
(154,850,c),
(11,770,l)
);
}
);
width = 409;
},
{
associatedMasterId = "BD421374-7BB0-4447-A555-0F47AA5545D5";
layerId = "8C9A6C4E-CA3B-4D82-A59F-B14468C7C53E";
name = "21년 12월 18일 16:41";
shapes = (
{
closed = 1;
nodes = (
(136,51,o),
(171,205,o),
(171,368,cs),
(171,529,o),
(136,682,o),
(66,841,c),
(36,831,l),
(101,678,o),
(134,521,o),
(134,368,cs),
(134,214,o),
(101,57,o),
(36,-96,c),
(66,-105,l)
);
}
);
width = 274.86116;
},
{
associatedMasterId = "4D0470F8-723D-4610-9591-64877B13A03C";
layerId = "D4465A3C-FB15-4E31-A5EE-57857AE68669";
name = "21년 12월 18일 16:41";
shapes = (
{
closed = 1;
nodes = (
(270,38,o),
(312,197,o),
(312,368,cs),
(312,538,o),
(270,697,o),
(154,850,c),
(36,799,l),
(96,635,o),
(119,519,o),
(119,368,cs),
(119,216,o),
(96,100,o),
(36,-64,c),
(154,-114,l)
);
}
);
width = 409.46478;
},
{
associatedMasterId = "BD421374-7BB0-4447-A555-0F47AA5545D5";
layerId = "81293E3F-4823-4637-BC73-D481B65F340E";
name = Thin;
shapes = (
{
closed = 1;
nodes = (
(101,674,o),
(135,526,o),
(135,368,cs),
(135,208,o),
(101,59,o),
(33,-93,c),
(66,-105,l),
(136,51,o),
(171,205,o),
(171,368,cs),
(171,529,o),
(136,682,o),
(66,841,c),
(33,829,l)
);
}
);
width = 275;
},
{
associatedMasterId = "BD421374-7BB0-4447-A555-0F47AA5545D5";
layerId = "A36CC8EC-D469-45D3-9B63-AED90D0394DF";
name = Thin;
shapes = (
{
closed = 1;
nodes = (
(136,51,o),
(171,205,o),
(171,368,cs),
(171,529,o),
(136,682,o),
(66,841,c),
(36,831,l),
(101,678,o),
(134,521,o),
(134,368,cs),
(134,214,o),
(101,57,o),
(36,-96,c),
(66,-105,l)
);
}
);
width = 274.86116;
},
{
associatedMasterId = "BD421374-7BB0-4447-A555-0F47AA5545D5";
layerId = "570228A7-C191-4E7C-B24B-CD9498E1B2AE";
name = Black;
shapes = (
{
closed = 1;
nodes = (
(98,655,o),
(132,527,o),
(132,368,cs),
(132,208,o),
(98,81,o),
(11,-34,c),
(154,-114,l),
(270,38,o),
(312,197,o),
(312,368,cs),
(312,538,o),
(270,697,o),
(154,850,c),
(11,770,l)
);
}
);
width = 409;
},
{
associatedMasterId = "BD421374-7BB0-4447-A555-0F47AA5545D5";
layerId = "4F5E1D2F-9732-4D16-B8E2-2CCA5C16840D";
name = Black;
shapes = (
{
closed = 1;
nodes = (
(270,38,o),
(312,197,o),
(312,368,cs),
(312,538,o),
(270,697,o),
(154,850,c),
(36,799,l),
(96,635,o),
(119,519,o),
(119,368,cs),
(119,216,o),
(96,100,o),
(36,-64,c),
(154,-114,l)
);
}
);
width = 409.46478;
}
);
unicode = 41;
}
{
color = 11;
glyphname = asterisk;
kernLeft = asterisk;
kernRight = asterisk;
lastChange = "2022-01-31 14:04:10 +0000";
layers = (
{
layerId = "BD421374-7BB0-4447-A555-0F47AA5545D5";
shapes = (
{
closed = 1;
nodes = (
(233,564,l),
(228,564,l),
(311,415,l),
(341,432,l),
(252,580,l),
(247,576,l),
(423,572,l),
(423,608,l),
(247,604,l),
(252,599,l),
(341,749,l),
(311,765,l),
(228,615,l),
(233,615,l),
(148,765,l),
(120,749,l),
(210,599,l),
(213,604,l),
(38,608,l),
(38,572,l),
(213,576,l),
(210,580,l),
(120,432,l),
(148,414,l)
);
}
);
width = 461.35238;
},
{
layerId = "4D0470F8-723D-4610-9591-64877B13A03C";
shapes = (
{
closed = 1;
nodes = (
(245,507,l),
(225,507,l),
(286,362,l),
(391,423,l),
(297,561,l),
(272,524,l),
(439,510,l),
(439,630,l),
(272,617,l),
(297,578,l),
(391,716,l),
(286,778,l),
(225,634,l),
(245,634,l),
(183,778,l),
(78,717,l),
(172,577,l),
(198,617,l),
(29,630,l),
(29,511,l),
(197,524,l),
(172,561,l),
(77,423,l),
(182,364,l)
);
}
);
width = 469.1704;
},
{
associatedMasterId = "BD421374-7BB0-4447-A555-0F47AA5545D5";
layerId = "81293E3F-4823-4637-BC73-D481B65F340E";
name = Thin;
shapes = (
{
closed = 1;
nodes = (
(233,564,l),
(228,564,l),
(311,415,l),
(341,432,l),
(252,580,l),
(247,576,l),
(423,572,l),
(423,608,l),
(247,604,l),
(252,599,l),
(341,749,l),
(311,765,l),
(228,615,l),
(233,615,l),
(148,765,l),
(120,749,l),
(210,599,l),
(213,604,l),
(38,608,l),
(38,572,l),
(213,576,l),
(210,580,l),
(120,432,l),
(148,414,l)
);
}
);
width = 461.35238;
},
{
associatedMasterId = "BD421374-7BB0-4447-A555-0F47AA5545D5";
layerId = "570228A7-C191-4E7C-B24B-CD9498E1B2AE";
name = Black;
shapes = (
{
closed = 1;
nodes = (
(245,507,l),
(225,507,l),
(286,362,l),
(391,423,l),
(297,561,l),
(272,524,l),
(439,510,l),
(439,630,l),
(272,617,l),
(297,578,l),
(391,716,l),
(286,778,l),
(225,634,l),
(245,634,l),
(183,778,l),
(78,717,l),
(172,577,l),
(198,617,l),
(29,630,l),
(29,511,l),
(197,524,l),
(172,561,l),
(77,423,l),
(182,364,l)
);
}
);
width = 469.1704;
}
);
unicode = 42;
}
{
color = 11;
glyphname = plus;
lastChange = "2022-01-31 14:04:10 +0000";
layers = (
{
layerId = "BD421374-7BB0-4447-A555-0F47AA5545D5";
shapes = (
{
closed = 1;
nodes = (
(317,121,l),
(317,354,l),
(548,354,l),
(548,387,l),
(317,387,l),
(317,616,l),
(282,616,l),
(282,387,l),
(52,387,l),
(52,354,l),
(282,354,l),
(282,121,l)
);
}
);
width = 599.5;
},
{
layerId = "4D0470F8-723D-4610-9591-64877B13A03C";
shapes = (
{
closed = 1;
nodes = (
(362,121,l),
(362,312,l),
(548,312,l),
(548,431,l),
(362,431,l),
(362,616,l),
(237,616,l),
(237,431,l),
(52,431,l),
(52,312,l),
(237,312,l),
(237,121,l)
);
}
);
width = 599.5;
},
{
associatedMasterId = "BD421374-7BB0-4447-A555-0F47AA5545D5";
layerId = "81293E3F-4823-4637-BC73-D481B65F340E";
name = Thin;
shapes = (
{
closed = 1;
nodes = (
(317,121,l),
(317,354,l),
(548,354,l),
(548,387,l),
(317,387,l),
(317,616,l),
(282,616,l),
(282,387,l),
(52,387,l),
(52,354,l),
(282,354,l),
(282,121,l)
);
}
);
width = 599.5;
},
{
associatedMasterId = "BD421374-7BB0-4447-A555-0F47AA5545D5";
layerId = "570228A7-C191-4E7C-B24B-CD9498E1B2AE";
name = Black;
shapes = (
{
closed = 1;
nodes = (
(362,121,l),
(362,312,l),
(548,312,l),
(548,431,l),
(362,431,l),
(362,616,l),
(237,616,l),
(237,431,l),
(52,431,l),
(52,312,l),
(237,312,l),
(237,121,l)
);
}
);
width = 599.5;
}
);
unicode = 43;
}
{
color = 11;
glyphname = comma;
kernLeft = period;
kernRight = period;
lastChange = "2022-01-31 14:04:10 +0000";
layers = (
{
layerId = "BD421374-7BB0-4447-A555-0F47AA5545D5";
shapes = (
{
closed = 1;
nodes = (
(65,-188,l),
(135,86,l),
(97,86,l),
(40,-188,l)
);
}
);
width = 209.17457;
},
{
layerId = "4D0470F8-723D-4610-9591-64877B13A03C";
shapes = (
{
closed = 1;
nodes = (
(150,-188,l),
(255,130,l),
(70,130,l),
(27,-188,l)
);
}
);
width = 274.65252;
},
{
associatedMasterId = "4D0470F8-723D-4610-9591-64877B13A03C";
layerId = "9538D91F-5ABF-4A69-A65A-91F8A5A28F62";
name = "21년 12월 18일 14:29";
shapes = (
{
closed = 1;
nodes = (
(204,-84,o),
(230,-18,o),
(230,67,cs),
(230,185,l),
(43,185,l),
(43,0,l),
(172,0,l),
(134,43,l),
(134,-11,o),
(111,-54,o),
(61,-106,c),
(129,-160,l)
);
}
);
width = 274.65252;
},
{
associatedMasterId = "BD421374-7BB0-4447-A555-0F47AA5545D5";
layerId = "4E270F4A-8BEF-4946-BBBE-C192AF874863";
name = "21년 12월 18일 14:30";
shapes = (
{
closed = 1;
nodes = (
(127,-68,o),
(135,-30,o),
(135,11,cs),
(135,64,l),
(74,64,l),
(74,0,l),
(110,0,l),
(102,4,l),
(102,-24,o),
(98,-50,o),
(71,-81,c),
(95,-98,l)
);
}
);
width = 209.17457;
},
{
associatedMasterId = "BD421374-7BB0-4447-A555-0F47AA5545D5";
layerId = "81293E3F-4823-4637-BC73-D481B65F340E";
name = Thin;
shapes = (
{
closed = 1;
nodes = (
(65,-188,l),
(135,86,l),
(97,86,l),
(40,-188,l)
);
}
);
width = 209.17457;
},
{
associatedMasterId = "BD421374-7BB0-4447-A555-0F47AA5545D5";
layerId = "99C732DE-CCFF-439B-9420-8556C8C495A4";
name = Thin;
shapes = (
{
closed = 1;
nodes = (
(127,-68,o),
(135,-30,o),
(135,11,cs),
(135,64,l),
(74,64,l),
(74,0,l),
(110,0,l),
(102,4,l),
(102,-24,o),
(98,-50,o),
(71,-81,c),
(95,-98,l)
);
}
);
width = 209.17457;
},
{
associatedMasterId = "BD421374-7BB0-4447-A555-0F47AA5545D5";
layerId = "570228A7-C191-4E7C-B24B-CD9498E1B2AE";
name = Black;
shapes = (
{
closed = 1;
nodes = (
(150,-188,l),
(255,130,l),
(70,130,l),
(27,-188,l)
);
}
);
width = 274.65252;
},
{
associatedMasterId = "BD421374-7BB0-4447-A555-0F47AA5545D5";
layerId = "9E94C54C-BA2F-4DC4-9EA8-C9EE9EFBC240";
name = Black;
shapes = (
{
closed = 1;
nodes = (
(204,-84,o),
(230,-18,o),
(230,67,cs),
(230,185,l),
(43,185,l),
(43,0,l),
(172,0,l),
(134,43,l),
(134,-11,o),
(111,-54,o),
(61,-106,c),
(129,-160,l)
);
}
);
width = 274.65252;
}
);
unicode = 44;
}
{
color = 11;
glyphname = period;
kernLeft = period;
kernRight = period;
lastChange = "2022-01-31 14:04:10 +0000";
layers = (
{
layerId = "BD421374-7BB0-4447-A555-0F47AA5545D5";
shapes = (
{
closed = 1;
nodes = (
(135,0,l),
(135,64,l),
(74,64,l),
(74,0,l)
);
}
);
width = 209.17457;
},
{
layerId = "4D0470F8-723D-4610-9591-64877B13A03C";
shapes = (
{
closed = 1;
nodes = (
(230,0,l),
(230,185,l),
(43,185,l),
(43,0,l)
);
}
);
width = 274.65252;
},
{
associatedMasterId = "BD421374-7BB0-4447-A555-0F47AA5545D5";
layerId = "81293E3F-4823-4637-BC73-D481B65F340E";
name = Thin;
shapes = (
{
closed = 1;
nodes = (
(135,0,l),
(135,64,l),
(74,64,l),
(74,0,l)
);
}
);
width = 209.17457;
},
{
associatedMasterId = "BD421374-7BB0-4447-A555-0F47AA5545D5";
layerId = "570228A7-C191-4E7C-B24B-CD9498E1B2AE";
name = Black;
shapes = (
{
closed = 1;
nodes = (
(230,0,l),
(230,185,l),
(43,185,l),
(43,0,l)
);
}
);
width = 274.65252;
}
);
unicode = 46;
}
{
color = 11;
glyphname = slash;
kernLeft = slash;
kernRight = slash;
lastChange = "2022-01-31 14:04:10 +0000";
layers = (
{
layerId = "BD421374-7BB0-4447-A555-0F47AA5545D5";
shapes = (
{
closed = 1;
nodes = (
(268,774,l),
(236,784,l),
(-17,-39,l),
(16,-48,l)
);
}
);
width = 252.01343;
},
{
layerId = "4D0470F8-723D-4610-9591-64877B13A03C";
shapes = (
{
closed = 1;
nodes = (
(370.996,774,l),
(240,811,l),
(-19,-37,l),
(112,-75,l)
);
}
);
width = 352.0231;
},
{
associatedMasterId = "BD421374-7BB0-4447-A555-0F47AA5545D5";
layerId = "81293E3F-4823-4637-BC73-D481B65F340E";
name = Thin;
shapes = (
{
closed = 1;
nodes = (
(268,774,l),
(236,784,l),
(-17,-39,l),
(16,-48,l)
);
}
);
width = 252.01343;
},
{
associatedMasterId = "BD421374-7BB0-4447-A555-0F47AA5545D5";
layerId = "570228A7-C191-4E7C-B24B-CD9498E1B2AE";
name = Black;
shapes = (
{
closed = 1;
nodes = (
(370.996,774,l),
(240,811,l),
(-19,-37,l),
(112,-75,l)
);
}
);
width = 352.0231;
}
);
unicode = 47;
}
{
glyphname = zero;
kernLeft = zero;
kernRight = zero;
lastChange = "2022-04-17 21:29:33 +0000";
layers = (
{
layerId = "BD421374-7BB0-4447-A555-0F47AA5545D5";
shapes = (
{
closed = 1;
nodes = (
(475,-8,o),
(561,123,o),
(561,368,cs),
(561,613,o),
(475,744,o),
(314,744,cs),
(153,744,o),
(67,613,o),
(67,368,cs),
(67,123,o),
(153,-8,o),
(314,-8,cs)
);
},
{
closed = 1;
nodes = (
(172,24,o),
(103,136,o),
(103,368,cs),
(103,600,o),
(172,712,o),
(314,712,cs),
(456,712,o),
(525,600,o),
(525,368,cs),
(525,136,o),
(456,24,o),
(314,24,cs)
);
}
);
width = 628;
},
{
layerId = "4D0470F8-723D-4610-9591-64877B13A03C";
shapes = (
{
closed = 1;
nodes = (
(490,-12,o),
(594,129,o),
(594,368,cs),
(594,607,o),
(490,748,o),
(314,748,cs),
(138,748,o),
(34,607,o),
(34,368,cs),
(34,129,o),
(138,-12,o),
(314,-12,cs)
);
},
{
closed = 1;
nodes = (
(241,144,o),
(210,212,o),
(210,368,cs),
(210,524,o),
(241,592,o),
(314,592,cs),
(387,592,o),
(418,524,o),
(418,368,cs),
(418,212,o),
(387,144,o),
(314,144,cs)
);
}
);
width = 628;
}
);
unicode = 48;
}
{
glyphname = one;
kernLeft = one;
kernRight = one;
lastChange = "2022-04-17 21:31:29 +0000";
layers = (
{
layerId = "BD421374-7BB0-4447-A555-0F47AA5545D5";
shapes = (
{
closed = 1;
nodes = (
(352,15,l),
(352,736,l),
(326,736,l),
(160,622,l),
(181,598,l),
(341,708,l),
(318,708,l),
(318,15,l)
);
},
{
closed = 1;
nodes = (
(517,0,l),
(517,32,l),
(155,32,l),
(155,0,l)
);
}
);
width = 628;
},
{
layerId = "4D0470F8-723D-4610-9591-64877B13A03C";
shapes = (
{
closed = 1;
nodes = (
(444,84,l),
(444,736,l),
(314,736,l),
(70,596,l),
(135,464,l),
(345,583,l),
(260,587,l),
(260,84,l)
);
},
{
closed = 1;
nodes = (
(604,0,l),
(604,148,l),
(100,148,l),
(100,0,l)
);
}
);
width = 628;
}
);
unicode = 49;
userData = {
com.typemytype.robofont.layerData = {
b = {
anchors = (
);
components = (
);
contours = (
);
lib = {
};
name = one;
unicodes = (
);
width = 1160;
};
};
};
}
{
glyphname = two;
kernLeft = two;
kernRight = two;
lastChange = "2022-04-17 21:34:05 +0000";
layers = (
{
layerId = "BD421374-7BB0-4447-A555-0F47AA5545D5";
shapes = (
{
closed = 1;
nodes = (
(554,0,l),
(554,32,l),
(123,32,l),
(132,12,l),
(386,295,ls),
(478,397,o),
(518,473,o),
(518,557,cs),
(518,675,o),
(443,744,o),
(318,744,cs),
(238,744,o),
(145,704,o),
(87,647,c),
(103,617,l),
(175,678,o),
(243,712,o),
(322,712,cs),
(423,712,o),
(482,653,o),
(482,558,cs),
(482,485,o),
(451,418,o),
(371,328,cs),
(103,28,l),
(103,0,l)
);
}
);
width = 628;
},
{
layerId = "4D0470F8-723D-4610-9591-64877B13A03C";
shapes = (
{
closed = 1;
nodes = (
(579,0,l),
(579,148,l),
(217,148,l),
(243,99,l),
(443,306,ls),
(524,389,o),
(556,453,o),
(556,541,cs),
(556,663,o),
(454,748,o),
(297,748,cs),
(199,748,o),
(98,715,o),
(40,666,c),
(94,536,l),
(162,578,o),
(230,604,o),
(286,604,cs),
(346,604,o),
(378,580,o),
(378,526,cs),
(378,484,o),
(351,438,o),
(305,389,cs),
(64,134,l),
(64,0,l)
);
}
);
width = 628.40828;
}
);
unicode = 50;
userData = {
com.typemytype.robofont.layerData = {
b = {
anchors = (
);
components = (
);
contours = (
);
lib = {
};
name = two;
unicodes = (
);
width = 1160;
};
};
};
}
{
glyphname = three;
kernLeft = three;
kernRight = three;
lastChange = "2022-04-17 21:48:48 +0000";
layers = (
{
layerId = "BD421374-7BB0-4447-A555-0F47AA5545D5";
shapes = (
{
closed = 1;
nodes = (
(448,-7,o),
(532,71,o),
(532,197,cs),
(532,299,o),
(478,364,o),
(375,383,c),
(381,373,l),
(463,395,o),
(516,469,o),
(518,560,cs),
(520,674,o),
(443,744,o),
(319,744,cs),
(232,744,o),
(146,706,o),
(87,647,c),
(103,618,l),
(175,678,o),
(244,712,o),
(323,712,cs),
(422,712,o),
(482,657,o),
(482,566,cs),
(482,455,o),
(407,390,o),
(283,390,cs),
(229,390,l),
(229,358,l),
(298,358,ls),
(428,358,o),
(496,299,o),
(496,194,cs),
(496,87,o),
(429,25,o),
(315,25,cs),
(232,25,o),
(161,59,o),
(91,119,c),
(74,90,l),
(138,30,o),
(222,-7,o),
(312,-7,cs)
);
}
);
width = 628;
},
{
layerId = "4D0470F8-723D-4610-9591-64877B13A03C";
shapes = (
{
closed = 1;
nodes = (
(464,-12,o),
(577,71,o),
(577,201,cs),
(577,294,o),
(523,360,o),
(429,382,c),
(428,374,l),
(510,399,o),
(557,458,o),
(556,546,cs),
(556,665,o),
(454,748,o),
(299,748,cs),
(200,748,o),
(98,717,o),
(40,666,c),
(94,536,l),
(159,578,o),
(228,604,o),
(285,604,cs),
(349,604,o),
(382,573,o),
(382,520,cs),
(382,466,o),
(348,440,o),
(269,440,cs),
(175,440,l),
(175,304,l),
(287,304,ls),
(369,304,o),
(402,278,o),
(402,220,cs),
(402,159,o),
(368,130,o),
(283,130,cs),
(219,130,o),
(150,158,o),
(84,201,c),
(29,71,l),
(86,19,o),
(189,-12,o),
(292,-12,cs)
);
}
);
width = 628;
}
);
unicode = 51;
userData = {
com.typemytype.robofont.layerData = {
b = {
anchors = (
);
components = (
);
contours = (
);
lib = {
};
name = three;
unicodes = (
);
width = 1160;
};
};
};
}
{
glyphname = four;
kernLeft = four;
kernRight = four;
lastChange = "2022-04-17 21:38:17 +0000";
layers = (
{
layerId = "BD421374-7BB0-4447-A555-0F47AA5545D5";
shapes = (
{
closed = 1;
nodes = (
(459,0,l),
(459,736,l),
(431,736,l),
(62,204,l),
(62,177,l),
(580,177,l),
(580,209,l),
(85,209,l),
(97,192,l),
(441,693,l),
(425,693,l),
(425,0,l)
);
}
);
width = 628;
},
{
layerId = "4D0470F8-723D-4610-9591-64877B13A03C";
shapes = (
{
closed = 1;
nodes = (
(510,0,l),
(510,736,l),
(366,736,l),
(36,262,l),
(36,130,l),
(608,130,l),
(608,266,l),
(169,266,l),
(169,223,l),
(370,511,l),
(334,511,l),
(334,0,l)
);
}
);
width = 628;
}
);
unicode = 52;
userData = {
com.typemytype.robofont.layerData = {
b = {
anchors = (
);
components = (
);
contours = (
);
lib = {
};
name = four;
unicodes = (
);
width = 1160;
};
};
};
}
{
glyphname = five;
kernLeft = five;
kernRight = five;
lastChange = "2022-04-17 21:41:23 +0000";
layers = (
{
layerId = "BD421374-7BB0-4447-A555-0F47AA5545D5";
shapes = (
{
closed = 1;
nodes = (
(473,-8,o),
(563,83,o),
(563,223,cs),
(563,362,o),
(473,452,o),
(336,452,cs),
(250,452,o),
(178,432,o),
(141,403,c),
(153,395,l),
(179,704,l),
(539,704,l),
(539,736,l),
(151,736,l),
(118,369,l),
(154,369,l),
(198,401,o),
(258,420,o),
(343,420,cs),
(454,420,o),
(527,342,o),
(527,223,cs),
(527,102,o),
(452,24,o),
(336,24,cs),
(264,24,o),
(193,55,o),
(118,120,c),
(102,90,l),
(165,28,o),
(252,-8,o),
(336,-8,cs)
);
}
);
width = 628;
},
{
layerId = "4D0470F8-723D-4610-9591-64877B13A03C";
shapes = (
{
closed = 1;
nodes = (
(482,-12,o),
(596,90,o),
(596,243,cs),
(596,385,o),
(499,479,o),
(362,479,cs),
(295,479,o),
(244,472,o),
(200,452,c),
(256,406,l),
(273,604,l),
(558,604,l),
(558,736,l),
(112,736,l),
(76,323,l),
(179,323,l),
(214,334,o),
(267,343,o),
(307,343,cs),
(380,343,o),
(424,303,o),
(424,236,cs),
(424,167,o),
(385,130,o),
(304,130,cs),
(238,130,o),
(173,156,o),
(106,201,c),
(48,71,l),
(106,21,o),
(207,-12,o),
(303,-12,cs)
);
}
);
width = 628;
},
{
associatedMasterId = "BD421374-7BB0-4447-A555-0F47AA5545D5";
layerId = "81293E3F-4823-4637-BC73-D481B65F340E";
name = Thin;
shapes = (
{
closed = 1;
nodes = (
(475,-7,o),
(563,89,o),
(563,223,cs),
(563,359,o),
(479,453,o),
(336,453,cs),
(250,453,o),
(178,433,o),
(141,404,c),
(153,395,l),
(179,701,l),
(539,701,l),
(539,736,l),
(151,736,l),
(118,369,l),
(154,369,l),
(198,401,o),
(258,416,o),
(343,416,cs),
(453,416,o),
(523,336,o),
(523,223,cs),
(523,106,o),
(452,29,o),
(336,29,cs),
(258,29,o),
(187,62,o),
(120,123,c),
(102,90,l),
(163,30,o),
(252,-7,o),
(336,-7,cs)
);
}
);
width = 627;
},
{
associatedMasterId = "BD421374-7BB0-4447-A555-0F47AA5545D5";
layerId = "570228A7-C191-4E7C-B24B-CD9498E1B2AE";
name = Black;
shapes = (
{
closed = 1;
nodes = (
(482,-8,o),
(596,90,o),
(596,243,cs),
(596,385,o),
(499,479,o),
(362,479,cs),
(295,479,o),
(244,472,o),
(200,452,c),
(256,406,l),
(272,597,l),
(558,597,l),
(558,736,l),
(112,736,l),
(76,323,l),
(179,323,l),
(214,334,o),
(267,343,o),
(307,343,cs),
(380,343,o),
(424,303,o),
(424,236,cs),
(424,167,o),
(385,134,o),
(304,134,cs),
(238,134,o),
(173,156,o),
(106,201,c),
(48,71,l),
(106,21,o),
(207,-8,o),
(303,-8,cs)
);
}
);
width = 627;
}
);
unicode = 53;
userData = {
com.typemytype.robofont.layerData = {
b = {
anchors = (
);
components = (
);
contours = (
);
lib = {
};
name = five;
unicodes = (
);
width = 1160;
};
};
};
}
{
glyphname = six;
kernLeft = six;
kernRight = six;
lastChange = "2022-04-17 21:44:49 +0000";
layers = (
{
layerId = "BD421374-7BB0-4447-A555-0F47AA5545D5";
shapes = (
{
closed = 1;
nodes = (
(473,-8,o),
(563,83,o),
(563,223,cs),
(563,362,o),
(470,452,o),
(328,452,cs),
(205,452,o),
(115,372,o),
(98,248,c),
(109,219,l),
(106,345,ls),
(101,567,o),
(193,712,o),
(338,712,cs),
(409,712,o),
(471,679,o),
(545,617,c),
(562,647,l),
(499,708,o),
(421,744,o),
(338,744,cs),
(170,744,o),
(70,596,o),
(70,345,cs),
(70,123,o),
(168,-8,o),
(335,-8,cs)
);
},
{
closed = 1;
nodes = (
(216,24,o),
(131,107,o),
(131,223,cs),
(131,338,o),
(216,420,o),
(334,420,cs),
(446,420,o),
(527,338,o),
(527,223,cs),
(527,107,o),
(447,24,o),
(335,24,cs)
);
}
);
width = 628;
},
{
layerId = "4D0470F8-723D-4610-9591-64877B13A03C";
shapes = (
{
closed = 1;
nodes = (
(485,-12,o),
(595,98,o),
(595,243,cs),
(595,382,o),
(502,483,o),
(375,483,cs),
(289,483,o),
(217,436,o),
(199,366,c),
(214,343,l),
(214,364,ls),
(214,522,o),
(264,604,o),
(359,604,cs),
(408,604,o),
(470,585,o),
(536,536,c),
(595,666,l),
(533,720,o),
(441,748,o),
(351,748,cs),
(155,748,o),
(34,601,o),
(34,359,cs),
(34,123,o),
(144,-12,o),
(339,-12,cs)
);
},
{
closed = 1;
nodes = (
(270,129,o),
(234,171,o),
(234,236,cs),
(234,301,o),
(271,343,o),
(327,343,cs),
(385,343,o),
(423,301,o),
(423,236,cs),
(423,171,o),
(385,129,o),
(326,129,cs)
);
}
);
width = 628;
},
{
associatedMasterId = "BD421374-7BB0-4447-A555-0F47AA5545D5";
layerId = "81293E3F-4823-4637-BC73-D481B65F340E";
name = Thin;
shapes = (
{
closed = 1;
nodes = (
(469,-8,o),
(563,89,o),
(563,223,cs),
(563,361,o),
(469,451,o),
(328,451,cs),
(208,451,o),
(113,372,o),
(96,248,c),
(109,219,l),
(109,345,ls),
(109,575,o),
(192,708,o),
(338,708,cs),
(409,708,o),
(471,679,o),
(543,614,c),
(562,647,l),
(499,708,o),
(421,744,o),
(338,744,cs),
(169,744,o),
(70,597,o),
(70,345,cs),
(70,118,o),
(165,-8,o),
(335,-8,cs)
);
},
{
closed = 1;
nodes = (
(215,28,o),
(135,106,o),
(135,223,cs),
(135,338,o),
(217,416,o),
(334,416,cs),
(449,416,o),
(523,340,o),
(523,223,cs),
(523,105,o),
(450,28,o),
(335,28,cs)
);
}
);
width = 625.71186;
},
{
associatedMasterId = "BD421374-7BB0-4447-A555-0F47AA5545D5";
layerId = "570228A7-C191-4E7C-B24B-CD9498E1B2AE";
name = Black;
shapes = (
{
closed = 1;
nodes = (
(485,-9,o),
(595,98,o),
(595,243,cs),
(595,382,o),
(502,483,o),
(375,483,cs),
(289,483,o),
(217,436,o),
(199,366,c),
(214,343,l),
(214,364,ls),
(214,522,o),
(264,604,o),
(359,604,cs),
(408,604,o),
(470,585,o),
(536,536,c),
(595,666,l),
(533,720,o),
(441,745,o),
(351,745,cs),
(155,745,o),
(34,601,o),
(34,359,cs),
(34,123,o),
(144,-9,o),
(339,-9,cs)
);
},
{
closed = 1;
nodes = (
(272,132,o),
(234,173,o),
(234,236,cs),
(234,299,o),
(271,343,o),
(327,343,cs),
(385,343,o),
(423,299,o),
(423,236,cs),
(423,172,o),
(386,132,o),
(326,132,cs)
);
}
);
width = 627.40828;
}
);
unicode = 54;
userData = {
com.typemytype.robofont.layerData = {
b = {
anchors = (
);
components = (
);
contours = (
);
lib = {
};
name = nine;
unicodes = (
);
width = 1160;
};
};
};
}
{
glyphname = eight;
kernLeft = eight;
kernRight = eight;
lastChange = "2022-04-17 21:47:35 +0000";
layers = (
{
layerId = "BD421374-7BB0-4447-A555-0F47AA5545D5";
shapes = (
{
closed = 1;
nodes = (
(472,-8,o),
(566,66,o),
(566,191,cs),
(566,290,o),
(497,366,o),
(392,383,c),
(402,370,l),
(491,392,o),
(549,463,o),
(549,551,cs),
(549,672,o),
(462,744,o),
(314,744,cs),
(166,744,o),
(79,672,o),
(79,551,cs),
(79,462,o),
(137,391,o),
(226,370,c),
(237,383,l),
(131,366,o),
(62,290,o),
(62,191,cs),
(62,66,o),
(156,-8,o),
(314,-8,cs)
);
},
{
closed = 1;
nodes = (
(173,24,o),
(98,83,o),
(98,192,cs),
(98,300,o),
(173,358,o),
(314,358,cs),
(455,358,o),
(530,300,o),
(530,192,cs),
(530,83,o),
(455,24,o),
(314,24,cs)
);
},
{
closed = 1;
nodes = (
(189,390,o),
(115,450,o),
(115,551,cs),
(115,652,o),
(189,712,o),
(314,712,cs),
(439,712,o),
(513,652,o),
(513,551,cs),
(513,450,o),
(439,390,o),
(314,390,cs)
);
}
);
width = 628;
},
{
layerId = "4D0470F8-723D-4610-9591-64877B13A03C";
shapes = (
{
closed = 1;
nodes = (
(491,-12,o),
(601,71,o),
(601,202,cs),
(601,304,o),
(543,371,o),
(437,387,c),
(437,371,l),
(526,384,o),
(581,451,o),
(581,544,cs),
(581,670,o),
(478,748,o),
(313,748,cs),
(149,748,o),
(45,670,o),
(45,544,cs),
(45,455,o),
(98,389,o),
(192,370,c),
(191,387,l),
(85,375,o),
(27,305,o),
(27,202,cs),
(27,71,o),
(136,-12,o),
(313,-12,cs)
);
},
{
closed = 1;
nodes = (
(236,128,o),
(195,159,o),
(195,217,cs),
(195,272,o),
(236,302,o),
(313,302,cs),
(391,302,o),
(432,272,o),
(432,217,cs),
(432,159,o),
(391,128,o),
(313,128,cs)
);
},
{
closed = 1;
nodes = (
(246,442,o),
(213,469,o),
(213,525,cs),
(213,581,o),
(246,608,o),
(313,608,cs),
(379,608,o),
(411,581,o),
(411,525,cs),
(411,469,o),
(379,442,o),
(313,442,cs)
);
}
);
width = 628;
},
{
associatedMasterId = "BD421374-7BB0-4447-A555-0F47AA5545D5";
layerId = "81293E3F-4823-4637-BC73-D481B65F340E";
name = Thin;
shapes = (
{
closed = 1;
nodes = (
(478,-7,o),
(565,67,o),
(565,191,cs),
(565,292,o),
(496,366,o),
(391,383,c),
(401,370,l),
(487,391,o),
(548,460,o),
(548,551,cs),
(548,669,o),
(466,744,o),
(313,744,cs),
(160,744,o),
(78,669,o),
(78,551,cs),
(78,460,o),
(140,390,o),
(225,370,c),
(236,383,l),
(130,366,o),
(61,292,o),
(61,191,cs),
(61,67,o),
(148,-7,o),
(313,-7,cs)
);
},
{
closed = 1;
nodes = (
(168,30,o),
(102,84,o),
(102,192,cs),
(102,296,o),
(168,358,o),
(313,357.994,cs),
(459,358,o),
(525,296,o),
(525,192,cs),
(525,84,o),
(459,30,o),
(313,30,cs)
);
},
{
closed = 1;
nodes = (
(183,390,o),
(119,453,o),
(119,551,cs),
(119,648,o),
(183,707,o),
(313,707,cs),
(443,707,o),
(509,648,o),
(509,551,cs),
(509,453,o),
(443,390,o),
(313,390,cs)
);
}
);
width = 627;
},
{
associatedMasterId = "BD421374-7BB0-4447-A555-0F47AA5545D5";
layerId = "570228A7-C191-4E7C-B24B-CD9498E1B2AE";
name = Black;
shapes = (
{
closed = 1;
nodes = (
(491,-8,o),
(601,71,o),
(601,202,cs),
(601,304,o),
(543,371,o),
(437,387,c),
(437,371,l),
(526,384,o),
(581,451,o),
(581,544,cs),
(581,670,o),
(478,745,o),
(313,745,cs),
(149,745,o),
(45,670,o),
(45,544,cs),
(45,455,o),
(98,389,o),
(192,370,c),
(191,387,l),
(85,375,o),
(27,305,o),
(27,202,cs),
(27,71,o),
(136,-8,o),
(313,-8,cs)
);
},
{
closed = 1;
nodes = (
(235,130,o),
(195,161,o),
(195,217,cs),
(195,275,o),
(235,301,o),
(313,301,cs),
(392,301,o),
(432,275,o),
(432,217,cs),
(432,161,o),
(392,130,o),
(313,130,cs)
);
},
{
closed = 1;
nodes = (
(249,442,o),
(213,467,o),
(213,525,cs),
(213,581,o),
(247,607,o),
(313,607,cs),
(379,607,o),
(411,581,o),
(411,525,cs),
(411,467,o),
(379,442,o),
(313,442,cs)
);
}
);
width = 627;
}
);
unicode = 56;
userData = {
com.typemytype.robofont.layerData = {
b = {
anchors = (
);
components = (
);
contours = (
);
lib = {
};
name = eight;
unicodes = (
);
width = 1160;
};
};
};
}
{
glyphname = nine;
kernLeft = nine;
kernRight = nine;
lastChange = "2022-04-17 21:48:26 +0000";
layers = (
{
layerId = "BD421374-7BB0-4447-A555-0F47AA5545D5";
shapes = (
{
closed = 1;
nodes = (
(160,744,o),
(70,653,o),
(70,513,cs),
(70,374,o),
(163,284,o),
(305,284,cs),
(428,284,o),
(518,364,o),
(535,488,c),
(524,517,l),
(527,391,ls),
(532,169,o),
(440,24,o),
(295,24,cs),
(224,24,o),
(162,57,o),
(88,119,c),
(71,89,l),
(134,28,o),
(212,-8,o),
(295,-8,cs),
(463,-8,o),
(563,140,o),
(563,391,cs),
(563,613,o),
(465,744,o),
(298,744,cs)
);
},
{
closed = 1;
nodes = (
(417,712,o),
(502,629,o),
(502,513,cs),
(502,398,o),
(417,316,o),
(299,316,cs),
(187,316,o),
(106,398,o),
(106,513,cs),
(106,629,o),
(186,712,o),
(298,712,cs)
);
}
);
width = 628;
},
{
layerId = "4D0470F8-723D-4610-9591-64877B13A03C";
shapes = (
{
closed = 1;
nodes = (
(143,748,o),
(33,638,o),
(33,493,cs),
(33,354,o),
(126,253,o),
(253,253,cs),
(339,253,o),
(411,300,o),
(429,370,c),
(414,393,l),
(414,372,ls),
(414,214,o),
(364,132,o),
(269,132,cs),
(220,132,o),
(158,151,o),
(92,200,c),
(33,70,l),
(95,16,o),
(187,-12,o),
(277,-12,cs),
(473,-12,o),
(594,135,o),
(594,377,cs),
(594,613,o),
(484,748,o),
(289,748,cs)
);
},
{
closed = 1;
nodes = (
(358,607,o),
(394,565,o),
(394,500,cs),
(394,435,o),
(357,393,o),
(301,393,cs),
(243,393,o),
(205,435,o),
(205,500,cs),
(205,565,o),
(243,607,o),
(302,607,cs)
);
}
);
width = 628;
},
{
associatedMasterId = "BD421374-7BB0-4447-A555-0F47AA5545D5";
layerId = "81293E3F-4823-4637-BC73-D481B65F340E";
name = Thin;
shapes = (
{
closed = 1;
nodes = (
(158,744,o),
(64,647,o),
(64,513,cs),
(64,375,o),
(158,285,o),
(299,285,cs),
(419,285,o),
(515,364,o),
(531,488,c),
(519,517,l),
(519,391,ls),
(519,161,o),
(435,28,o),
(290,28,cs),
(218,28,o),
(156,57,o),
(85,122,c),
(65,89,l),
(130,28,o),
(206,-8,o),
(289,-8,cs),
(458,-8,o),
(555,139,o),
(555,391,cs),
(555,618,o),
(462,744,o),
(292,744,cs)
);
},
{
closed = 1;
nodes = (
(413,708,o),
(492,630,o),
(492,513,cs),
(492,398,o),
(412,320,o),
(293,320,cs),
(180,320,o),
(104,396,o),
(104,513,cs),
(104,631,o),
(178,708,o),
(292,708,cs)
);
}
);
width = 627;
},
{
associatedMasterId = "BD421374-7BB0-4447-A555-0F47AA5545D5";
layerId = "570228A7-C191-4E7C-B24B-CD9498E1B2AE";
name = Black;
shapes = (
{
closed = 1;
nodes = (
(139,745,o),
(32,638,o),
(32,493,cs),
(32,354,o),
(126,253,o),
(253,253,cs),
(338,253,o),
(410,300,o),
(428,370,c),
(414,393,l),
(414,372,ls),
(414,214,o),
(362,132,o),
(266,132,cs),
(218,132,o),
(156,151,o),
(90,200,c),
(33,70,l),
(92,16,o),
(185,-9,o),
(276,-9,cs),
(472,-9,o),
(593,135,o),
(593,378,cs),
(593,613,o),
(482,745,o),
(287,745,cs)
);
},
{
closed = 1;
nodes = (
(355,604,o),
(393,563,o),
(393,500,cs),
(393,437,o),
(355,397,o),
(298,397,cs),
(241,397,o),
(204,437,o),
(204,500,cs),
(204,564,o),
(242,604,o),
(299,604,cs)
);
}
);
width = 627;
}
);
unicode = 57;
userData = {
com.typemytype.robofont.layerData = {
b = {
anchors = (
);
components = (
);
contours = (
);
lib = {
};
name = nine;
unicodes = (
);
width = 1160;
};
};
};
}
{
color = 11;
glyphname = colon;
kernLeft = colon;
kernRight = colon;
lastChange = "2022-01-31 14:04:10 +0000";
layers = (
{
layerId = "BD421374-7BB0-4447-A555-0F47AA5545D5";
shapes = (
{
closed = 1;
nodes = (
(135,579,l),
(135,643,l),
(74,643,l),
(74,579,l)
);
},
{
closed = 1;
nodes = (
(135,92,l),
(135,156,l),
(74,156,l),
(74,92,l)
);
}
);
width = 209.17457;
},
{
layerId = "4D0470F8-723D-4610-9591-64877B13A03C";
shapes = (
{
closed = 1;
nodes = (
(231,464,l),
(231,648,l),
(44,648,l),
(44,464,l)
);
},
{
closed = 1;
nodes = (
(231,88,l),
(231,272,l),
(44,272,l),
(44,88,l)
);
}
);
width = 274.65252;
},
{
associatedMasterId = "BD421374-7BB0-4447-A555-0F47AA5545D5";
layerId = "81293E3F-4823-4637-BC73-D481B65F340E";
name = Thin;
shapes = (
{
closed = 1;
nodes = (
(135,579,l),
(135,643,l),
(74,643,l),
(74,579,l)
);
},
{
closed = 1;
nodes = (
(135,92,l),
(135,156,l),
(74,156,l),
(74,92,l)
);
}
);
width = 209.17457;
},
{
associatedMasterId = "BD421374-7BB0-4447-A555-0F47AA5545D5";
layerId = "570228A7-C191-4E7C-B24B-CD9498E1B2AE";
name = Black;
shapes = (
{
closed = 1;
nodes = (
(231,464,l),
(231,648,l),
(44,648,l),
(44,464,l)
);
},
{
closed = 1;
nodes = (
(231,88,l),
(231,272,l),
(44,272,l),
(44,88,l)
);
}
);
width = 274.65252;
}
);
unicode = 58;
}
{
color = 11;
glyphname = semicolon;
kernLeft = colon;
kernRight = colon;
lastChange = "2022-04-17 21:20:50 +0000";
layers = (
{
layerId = "BD421374-7BB0-4447-A555-0F47AA5545D5";
shapes = (
{
closed = 1;
nodes = (
(135,579,l),
(135,643,l),
(74,643,l),
(74,579,l)
);
},
{
closed = 1;
nodes = (
(65,-118,l),
(135,156,l),
(97,156,l),
(40,-118,l)
);
}
);
width = 209.17457;
},
{
layerId = "4D0470F8-723D-4610-9591-64877B13A03C";
shapes = (
{
closed = 1;
nodes = (
(231,463,l),
(231,647,l),
(44,647,l),
(44,463,l)
);
},
{
closed = 1;
nodes = (
(126,-46,l),
(231,272,l),
(46,272,l),
(3,-46,l)
);
}
);
width = 274.65252;
}
);
unicode = 59;
}
{
color = 11;
glyphname = less;
lastChange = "2022-01-31 14:04:10 +0000";
layers = (
{
layerId = "BD421374-7BB0-4447-A555-0F47AA5545D5";
shapes = (
{
closed = 1;
nodes = (
(548,150,l),
(80,376,l),
(80,359,l),
(548,586,l),
(548,626,l),
(52,382,l),
(52,353,l),
(548,110,l)
);
}
);
width = 599.5;
},
{
layerId = "4D0470F8-723D-4610-9591-64877B13A03C";
shapes = (
{
closed = 1;
nodes = (
(548,234,l),
(96,413,l),
(96,324,l),
(548,502,l),
(548,636,l),
(52,436,l),
(52,303,l),
(548,101,l)
);
}
);
width = 599.5;
},
{
associatedMasterId = "BD421374-7BB0-4447-A555-0F47AA5545D5";
layerId = "81293E3F-4823-4637-BC73-D481B65F340E";
name = Thin;
shapes = (
{
closed = 1;
nodes = (
(548,150,l),
(80,376,l),
(80,359,l),
(548,586,l),
(548,626,l),
(52,382,l),
(52,353,l),
(548,110,l)
);
}
);
width = 599.5;
},
{
associatedMasterId = "BD421374-7BB0-4447-A555-0F47AA5545D5";
layerId = "570228A7-C191-4E7C-B24B-CD9498E1B2AE";
name = Black;
shapes = (
{
closed = 1;
nodes = (
(548,234,l),
(96,413,l),
(96,324,l),
(548,502,l),
(548,636,l),
(52,436,l),
(52,303,l),
(548,101,l)
);
}
);
width = 599.5;
}
);
unicode = 60;
}
{
color = 11;
glyphname = equal;
lastChange = "2022-01-31 14:04:10 +0000";
layers = (
{
layerId = "BD421374-7BB0-4447-A555-0F47AA5545D5";
shapes = (
{
closed = 1;
nodes = (
(548,455,l),
(548,490,l),
(52,490,l),
(52,455,l)
);
},
{
closed = 1;
nodes = (
(548,247,l),
(548,282,l),
(52,282,l),
(52,247,l)
);
}
);
width = 599.5;
},
{
layerId = "4D0470F8-723D-4610-9591-64877B13A03C";
shapes = (
{
closed = 1;
nodes = (
(548,413,l),
(548,533,l),
(52,533,l),
(52,413,l)
);
},
{
closed = 1;
nodes = (
(548,204,l),
(548,324,l),
(52,324,l),
(52,204,l)
);
}
);
width = 599.5;
},
{
associatedMasterId = "BD421374-7BB0-4447-A555-0F47AA5545D5";
layerId = "81293E3F-4823-4637-BC73-D481B65F340E";
name = Thin;
shapes = (
{
closed = 1;
nodes = (
(548,455,l),
(548,490,l),
(52,490,l),
(52,455,l)
);
},
{
closed = 1;
nodes = (
(548,247,l),
(548,282,l),
(52,282,l),
(52,247,l)
);
}
);
width = 599.5;
},
{
associatedMasterId = "BD421374-7BB0-4447-A555-0F47AA5545D5";
layerId = "570228A7-C191-4E7C-B24B-CD9498E1B2AE";
name = Black;
shapes = (
{
closed = 1;
nodes = (
(548,413,l),
(548,533,l),
(52,533,l),
(52,413,l)
);
},
{
closed = 1;
nodes = (
(548,204,l),
(548,324,l),
(52,324,l),
(52,204,l)
);
}
);
width = 599.5;
}
);
unicode = 61;
}
{
color = 11;
glyphname = greater;
lastChange = "2022-01-31 14:04:10 +0000";
layers = (
{
layerId = "BD421374-7BB0-4447-A555-0F47AA5545D5";
shapes = (
{
closed = 1;
nodes = (
(548,353,l),
(548,382,l),
(52,626,l),
(52,586,l),
(520,359,l),
(520,376,l),
(52,150,l),
(52,110,l)
);
}
);
width = 599.5;
},
{
layerId = "4D0470F8-723D-4610-9591-64877B13A03C";
shapes = (
{
closed = 1;
nodes = (
(548,303,l),
(548,436,l),
(52,636,l),
(52,502,l),
(504,324,l),
(504,412,l),
(52,234,l),
(52,101,l)
);
}
);
width = 599.5;
},
{
associatedMasterId = "BD421374-7BB0-4447-A555-0F47AA5545D5";
layerId = "81293E3F-4823-4637-BC73-D481B65F340E";
name = Thin;
shapes = (
{
closed = 1;
nodes = (
(548,353,l),
(548,382,l),
(52,626,l),
(52,586,l),
(520,359,l),
(520,376,l),
(52,150,l),
(52,110,l)
);
}
);
width = 599.5;
},
{
associatedMasterId = "BD421374-7BB0-4447-A555-0F47AA5545D5";
layerId = "570228A7-C191-4E7C-B24B-CD9498E1B2AE";
name = Black;
shapes = (
{
closed = 1;
nodes = (
(548,303,l),
(548,436,l),
(52,636,l),
(52,502,l),
(504,324,l),
(504,412,l),
(52,234,l),
(52,101,l)
);
}
);
width = 599.5;
}
);
unicode = 62;
}
{
color = 11;
glyphname = question;
kernLeft = quesion;
kernRight = question;
lastChange = "2022-01-31 14:04:10 +0000";
layers = (
{
layerId = "BD421374-7BB0-4447-A555-0F47AA5545D5";
shapes = (
{
closed = 1;
nodes = (
(207,164,l),
(207,185,ls),
(212,248,o),
(235,299,o),
(301,386,cs),
(363,465,o),
(392,514,o),
(392,588,cs),
(392,684,o),
(324,744,o),
(221,744,cs),
(134,744,o),
(51,706,o),
(3,649,c),
(21,620,l),
(77,679,o),
(142,710,o),
(221,710,cs),
(305,710,o),
(356,666,o),
(356,590,cs),
(356,524,o),
(331,477,o),
(276,409,cs),
(201,313,o),
(182,253,o),
(182,182,cs),
(182,164,l)
);
},
{
closed = 1;
nodes = (
(224,0,l),
(224,64,l),
(163,64,l),
(163,0,l)
);
}
);
width = 426.98316;
},
{
layerId = "4D0470F8-723D-4610-9591-64877B13A03C";
shapes = (
{
closed = 1;
nodes = (
(290,245,l),
(297,279,ls),
(301,310,o),
(315,341,o),
(379,396,cs),
(446,446,o),
(474,496,o),
(474,564,cs),
(474,674,o),
(381,748,o),
(242,748,cs),
(156,748,o),
(64,718,o),
(3,668,c),
(60,531,l),
(114,575,o),
(169,595,o),
(225,595,cs),
(270,595,o),
(292,576,o),
(292,542,cs),
(292,511,o),
(276,489,o),
(250,457,cs),
(199,398,o),
(185,354,o),
(185,299,cs),
(185,245,l)
);
},
{
closed = 1;
nodes = (
(330,0,l),
(330,185,l),
(144,185,l),
(144,0,l)
);
}
);
width = 479.79688;
},
{
associatedMasterId = "BD421374-7BB0-4447-A555-0F47AA5545D5";
layerId = "81293E3F-4823-4637-BC73-D481B65F340E";
name = Thin;
shapes = (
{
closed = 1;
nodes = (
(207,164,l),
(207,185,ls),
(212,248,o),
(235,299,o),
(301,386,cs),
(363,465,o),
(392,514,o),
(392,588,cs),
(392,684,o),
(324,744,o),
(221,744,cs),
(134,744,o),
(51,706,o),
(3,649,c),
(21,620,l),
(77,679,o),
(142,710,o),
(221,710,cs),
(305,710,o),
(356,666,o),
(356,590,cs),
(356,524,o),
(331,477,o),
(276,409,cs),
(201,313,o),
(182,253,o),
(182,182,cs),
(182,164,l)
);
},
{
closed = 1;
nodes = (
(224,0,l),
(224,64,l),
(163,64,l),
(163,0,l)
);
}
);
width = 426.98316;
},
{
associatedMasterId = "BD421374-7BB0-4447-A555-0F47AA5545D5";
layerId = "570228A7-C191-4E7C-B24B-CD9498E1B2AE";
name = Black;
shapes = (
{
closed = 1;
nodes = (
(290,245,l),
(297,279,ls),
(301,310,o),
(315,341,o),
(379,396,cs),
(446,446,o),
(474,496,o),
(474,564,cs),
(474,674,o),
(381,748,o),
(242,748,cs),
(156,748,o),
(64,718,o),
(3,668,c),
(60,531,l),
(114,575,o),
(169,595,o),
(225,595,cs),
(270,595,o),
(292,576,o),
(292,542,cs),
(292,511,o),
(276,489,o),
(250,457,cs),
(199,398,o),
(185,354,o),
(185,299,cs),
(185,245,l)
);
},
{
closed = 1;
nodes = (
(330,0,l),
(330,185,l),
(144,185,l),
(144,0,l)
);
}
);
width = 479.79688;
}
);
unicode = 63;
}
{
color = 11;
glyphname = at;
kernLeft = O;
kernRight = O;
lastChange = "2022-01-31 14:04:10 +0000";
layers = (
{
layerId = "BD421374-7BB0-4447-A555-0F47AA5545D5";
shapes = (
{
closed = 1;
nodes = (
(606,-89,o),
(711,-45,o),
(776,36,c),
(751,61,l),
(696,-13,o),
(599,-55,o),
(483,-55,cs),
(248,-55,o),
(103,103,o),
(103,370,cs),
(103,624,o),
(259,792,o),
(492,792,cs),
(697,792,o),
(839,648,o),
(839,439,cs),
(839,279,o),
(777,173,o),
(685,173,cs),
(639,173,o),
(616,198,o),
(616,250,cs),
(616,263,o),
(617,277,o),
(621,291,cs),
(668,586,l),
(636,586,l),
(620,486,l),
(624,486,l),
(612,553,o),
(563,593,o),
(489,593,cs),
(365,593,o),
(272,481,o),
(272,325,cs),
(272,211,o),
(327,143,o),
(426,143,cs),
(491,143,o),
(555,182,o),
(590,251,c),
(585,277,l),
(569,196,o),
(608,143,o),
(685,143,cs),
(796,143,o),
(872,260,o),
(872,441,cs),
(872,672,o),
(718,825,o),
(493,825,cs),
(244,825,o),
(70,640,o),
(70,370,cs),
(70,86,o),
(230,-89,o),
(483,-89,cs)
);
},
{
closed = 1;
nodes = (
(348,175,o),
(304,227,o),
(304,325,cs),
(304,462,o),
(382,561,o),
(487,561,cs),
(568,561,o),
(607,517,o),
(607,423,cs),
(607,281,o),
(528,175,o),
(423,175,cs)
);
}
);
width = 942;
},
{
layerId = "4D0470F8-723D-4610-9591-64877B13A03C";
shapes = (
{
closed = 1;
nodes = (
(603,-94,o),
(699,-66,o),
(761,-22,c),
(707,85,l),
(644,46,o),
(574,26,o),
(491,26,cs),
(301,26,o),
(182,148,o),
(182,349,cs),
(182,574,o),
(308,708,o),
(514,708,cs),
(704,708,o),
(797,621,o),
(797,430,cs),
(797,328,o),
(768,258,o),
(730,258,cs),
(706,258,o),
(696,273,o),
(696,309,cs),
(696,326,o),
(699,351,o),
(704,381,cs),
(741,597,l),
(589,597,l),
(572,501,l),
(600,501,l),
(579,577,o),
(539,609,o),
(471,609,cs),
(347,609,o),
(260,499,o),
(260,349,cs),
(260,222,o),
(325,142,o),
(439,142,cs),
(523,142,o),
(585,197,o),
(617,314,c),
(562,272,l),
(580,186,o),
(634,142,o),
(717,142,cs),
(842,142,o),
(923,254,o),
(923,431,cs),
(923,677,o),
(765,830,o),
(514,830,cs),
(229,830,o),
(43,643,o),
(43,349,cs),
(43,87,o),
(227,-94,o),
(490,-94,cs)
);
},
{
closed = 1;
nodes = (
(440,266,o),
(424,296,o),
(424,351,cs),
(424,433,o),
(454,481,o),
(505,481,cs),
(541,481,o),
(555,457,o),
(555,409,cs),
(555,320,o),
(526,266,o),
(476,266,cs)
);
}
);
width = 966;
},
{
associatedMasterId = "BD421374-7BB0-4447-A555-0F47AA5545D5";
layerId = "81293E3F-4823-4637-BC73-D481B65F340E";
name = Thin;
shapes = (
{
closed = 1;
nodes = (
(606,-89,o),
(711,-45,o),
(776,36,c),
(751,61,l),
(696,-13,o),
(599,-55,o),
(483,-55,cs),
(248,-55,o),
(103,103,o),
(103,370,cs),
(103,624,o),
(259,792,o),
(492,792,cs),
(697,792,o),
(839,648,o),
(839,439,cs),
(839,279,o),
(777,173,o),
(685,173,cs),
(639,173,o),
(616,198,o),
(616,250,cs),
(616,263,o),
(617,277,o),
(621,291,cs),
(668,586,l),
(636,586,l),
(620,486,l),
(624,486,l),
(612,553,o),
(563,593,o),
(489,593,cs),
(365,593,o),
(272,481,o),
(272,325,cs),
(272,211,o),
(327,143,o),
(426,143,cs),
(491,143,o),
(555,182,o),
(590,251,c),
(585,277,l),
(569,196,o),
(608,143,o),
(685,143,cs),
(796,143,o),
(872,260,o),
(872,441,cs),
(872,672,o),
(718,825,o),
(493,825,cs),
(244,825,o),
(70,640,o),
(70,370,cs),
(70,86,o),
(230,-89,o),
(483,-89,cs)
);
},
{
closed = 1;
nodes = (
(348,175,o),
(304,227,o),
(304,325,cs),
(304,462,o),
(382,561,o),
(487,561,cs),
(568,561,o),
(607,517,o),
(607,423,cs),
(607,281,o),
(528,175,o),
(423,175,cs)
);
}
);
width = 942;
},
{
associatedMasterId = "BD421374-7BB0-4447-A555-0F47AA5545D5";
layerId = "570228A7-C191-4E7C-B24B-CD9498E1B2AE";
name = Black;
shapes = (
{
closed = 1;
nodes = (
(603,-94,o),
(699,-66,o),
(761,-22,c),
(707,85,l),
(644,46,o),
(574,26,o),
(491,26,cs),
(301,26,o),
(182,148,o),
(182,349,cs),
(182,574,o),
(308,708,o),
(514,708,cs),
(704,708,o),
(797,621,o),
(797,430,cs),
(797,328,o),
(768,258,o),
(730,258,cs),
(706,258,o),
(696,273,o),
(696,309,cs),
(696,326,o),
(699,351,o),
(704,381,cs),
(741,597,l),
(589,597,l),
(572,501,l),
(600,501,l),
(579,577,o),
(539,609,o),
(471,609,cs),
(347,609,o),
(260,499,o),
(260,349,cs),
(260,222,o),
(325,142,o),
(439,142,cs),
(523,142,o),
(585,197,o),
(617,314,c),
(562,272,l),
(580,186,o),
(634,142,o),
(717,142,cs),
(842,142,o),
(923,254,o),
(923,431,cs),
(923,677,o),
(765,830,o),
(514,830,cs),
(229,830,o),
(43,643,o),
(43,349,cs),
(43,87,o),
(227,-94,o),
(490,-94,cs)
);
},
{
closed = 1;
nodes = (
(440,266,o),
(424,296,o),
(424,351,cs),
(424,433,o),
(454,481,o),
(505,481,cs),
(541,481,o),
(555,457,o),
(555,409,cs),
(555,320,o),
(526,266,o),
(476,266,cs)
);
}
);
width = 966;
}
);
unicode = 64;
}
{
color = 11;
glyphname = A;
kernLeft = A;
kernRight = A;
lastChange = "2022-04-17 21:21:57 +0000";
layers = (
{
anchors = (
{
name = bottom;
pos = (340,0);
},
{
name = ogonek;
pos = (645,0);
},
{
name = top;
pos = (340,736);
}
);
layerId = "BD421374-7BB0-4447-A555-0F47AA5545D5";
shapes = (
{
closed = 1;
nodes = (
(72,0,l,{
"Letterink-NibData" = {
AngleInDegrees = "360";
};
}),
(344,703,l),
(334,703,l),
(606,0,l),
(643,0,l),
(356,736,l),
(322,736,l),
(35,0,l)
);
},
{
closed = 1;
nodes = (
(537,240,l),
(141,240,l),
(141,208,l),
(537,208,l)
);
}
);
width = 678;
},
{
anchors = (
{
name = bottom;
pos = (372,0);
},
{
name = ogonek;
pos = (686,0);
},
{
name = top;
pos = (372,736);
}
);
layerId = "4D0470F8-723D-4610-9591-64877B13A03C";
shapes = (
{
closed = 1;
nodes = (
(171,0,l),
(417.25,628.606,l),
(324.75,628.606,l),
(571,0,l),
(759,0,l,{
"Letterink-NibData" = {
AngleInDegrees = "360";
};
}),
(449,736,l),
(292,736,l),
(-17,0,l)
);
},
{
closed = 1;
nodes = (
(562,291,l),
(180,291,l),
(180,155,l),
(562,155,l)
);
}
);
width = 742;
}
);
unicode = 65;
userData = {
anchors = (
);
b = {
};
com.typemytype.robofont.layerData = {
b = {
anchors = (
);
components = (
);
contours = (
{
points = (
{
segmentType = line;
smooth = 0;
x = 403;
y = 502;
},
{
segmentType = line;
smooth = 0;
x = 703;
y = 1275;
},
{
segmentType = line;
smooth = 0;
x = 705;
y = 1275;
},
{
segmentType = line;
smooth = 0;
x = 1004;
y = 502;
}
);
},
{
points = (
{
segmentType = curve;
smooth = 1;
x = 150;
y = 0;
},
{
smooth = 0;
x = 181;
y = 0;
},
{
smooth = 0;
x = 214;
y = 15;
},
{
segmentType = curve;
smooth = 1;
x = 229;
y = 53;
},
{
segmentType = line;
smooth = 0;
x = 356;
y = 373;
},
{
segmentType = line;
smooth = 0;
x = 1051;
y = 373;
},
{
segmentType = line;
smooth = 1;
x = 1179;
y = 53;
},
{
smooth = 0;
x = 1193;
y = 17;
},
{
smooth = 0;
x = 1228;
y = 0;
},
{
segmentType = curve;
smooth = 1;
x = 1260;
y = 0;
},
{
smooth = 0;
x = 1306;
y = 0;
},
{
smooth = 0;
x = 1354;
y = 31;
},
{
segmentType = curve;
smooth = 1;
x = 1354;
y = 80;
},
{
smooth = 0;
x = 1354;
y = 87;
},
{
smooth = 0;
x = 1352;
y = 97;
},
{
segmentType = curve;
smooth = 0;
x = 1349;
y = 108;
},
{
segmentType = line;
smooth = 1;
x = 871;
y = 1288;
},
{
smooth = 0;
x = 817;
y = 1420;
},
{
smooth = 0;
x = 777;
y = 1430;
},
{
segmentType = curve;
smooth = 1;
x = 710;
y = 1430;
},
{
smooth = 0;
x = 644;
y = 1430;
},
{
smooth = 0;
x = 596;
y = 1413;
},
{
segmentType = curve;
smooth = 1;
x = 542;
y = 1280;
},
{
segmentType = line;
smooth = 1;
x = 66;
y = 108;
},
{
smooth = 0;
x = 62;
y = 97;
},
{
smooth = 0;
x = 60;
y = 87;
},
{
segmentType = curve;
smooth = 1;
x = 60;
y = 78;
},
{
smooth = 0;
x = 60;
y = 32;
},
{
smooth = 0;
x = 106;
y = 0;
}
);
}
);
lib = {
};
name = A;
unicodes = (
);
width = 1414;
};
};
components = (
);
contours = {
};
lib = {
};
name = A;
points = {
};
segmentType = line;
unicodes = (
);
width = 1445;
x = 718;
y = 1232;
};
}
{
color = 11;
glyphname = B;
kernLeft = H;
kernRight = B;
lastChange = "2022-04-17 21:22:01 +0000";
layers = (
{
anchors = (
{
name = bottom;
pos = (336,0);
},
{
name = top;
pos = (335,736);
}
);
layerId = "BD421374-7BB0-4447-A555-0F47AA5545D5";
shapes = (
{
closed = 1;
nodes = (
(98,736,l,{
"Letterink-NibData" = {
AngleInDegrees = "180";
};
}),
(98,0,l),
(357,0,ls),
(501,0,o),
(590,74,o),
(590,194,cs),
(590,281,o),
(539,350,o),
(456,375,c),
(527,403,o),
(571,468,o),
(571,546,cs),
(571,664,o),
(485,736,o),
(345,736,cs)
);
},
{
closed = 1;
nodes = (
(132,356,l,{
"Letterink-NibData" = {
AngleInDegrees = "90";
};
}),
(357,356,ls),
(483,356,o),
(554,298,o),
(554,194,cs,{
"Letterink-NibData" = {
AngleInDegrees = "180";
};
}),
(554,90,o),
(483,32,o),
(357,32,cs),
(132,32,l)
);
},
{
closed = 1;
nodes = (
(132,704,l),
(345,704,ls),
(467,704,o),
(535,647,o),
(535,546,cs,{
"Letterink-NibData" = {
AngleInDegrees = "180";
};
}),
(535,445,o),
(467,388,o),
(345,388,cs),
(132,388,l)
);
}
);
width = 664;
},
{
anchors = (
{
name = bottom;
pos = (349,0);
},
{
name = top;
pos = (349,736);
}
);
layerId = "4D0470F8-723D-4610-9591-64877B13A03C";
shapes = (
{
closed = 1;
nodes = (
(66,736,l,{
"Letterink-NibData" = {
AngleInDegrees = "180";
};
}),
(66,0,l),
(400,0,l),
(559,0,o),
(660,82,o),
(660,210,cs),
(660,282,o),
(621,350,o),
(559,384,c),
(608,417,o),
(640,478,o),
(640,540,cs),
(640,660,o),
(552,736,o),
(414,736,c)
);
},
{
closed = 1;
nodes = (
(250,304,l),
(384,304,ls),
(447,304,o),
(484,273,o),
(484,220,cs,{
"Letterink-NibData" = {
AngleInDegrees = "180";
};
}),
(484,167,o),
(447,136,o),
(384,136,cs),
(250,136,l)
);
},
{
closed = 1;
nodes = (
(250,600,l),
(360,600,ls),
(426,600,o),
(464,570,o),
(464,520,cs,{
"Letterink-NibData" = {
AngleInDegrees = "180";
};
}),
(464,470,o),
(426,440,o),
(360,440,cs),
(250,440,l)
);
}
);
width = 701.60416;
}
);
unicode = 66;
userData = {
anchors = (
);
b = {
};
com.typemytype.robofont.layerData = {
b = {
anchors = (
);
components = (
);
contours = (
{
points = (
{
segmentType = curve;
smooth = 1;
x = 266;
y = 0;
},
{
segmentType = line;
smooth = 1;
x = 1035;
y = 0;
},
{
smooth = 0;
x = 1084;
y = 0;
},
{
smooth = 0;
x = 1108;
y = 36;
},
{
segmentType = curve;
smooth = 1;
x = 1108;
y = 73;
},
{
smooth = 0;
x = 1108;
y = 109;
},
{
smooth = 0;
x = 1084;
y = 145;
},
{
segmentType = curve;
smooth = 1;
x = 1035;
y = 145;
},
{
segmentType = line;
smooth = 0;
x = 353;
y = 145;
},
{
segmentType = line;
smooth = 0;
x = 353;
y = 662;
},
{
segmentType = line;
smooth = 1;
x = 975;
y = 662;
},
{
smooth = 0;
x = 1024;
y = 662;
},
{
smooth = 0;
x = 1049;
y = 698;
},
{
segmentType = curve;
smooth = 1;
x = 1049;
y = 734;
},
{
smooth = 0;
x = 1049;
y = 770;
},
{
smooth = 0;
x = 1026;
y = 806;
},
{
segmentType = curve;
smooth = 1;
x = 975;
y = 806;
},
{
segmentType = line;
smooth = 0;
x = 353;
y = 806;
},
{
segmentType = line;
smooth = 0;
x = 353;
y = 1281;
},
{
segmentType = line;
smooth = 1;
x = 1007;
y = 1281;
},
{
smooth = 0;
x = 1056;
y = 1281;
},
{
smooth = 0;
x = 1080;
y = 1317;
},
{
segmentType = curve;
smooth = 1;
x = 1080;
y = 1354;
},
{
smooth = 0;
x = 1080;
y = 1390;
},
{
smooth = 0;
x = 1056;
y = 1426;
},
{
segmentType = curve;
smooth = 1;
x = 1007;
y = 1426;
},
{
segmentType = line;
smooth = 1;
x = 261;
y = 1426;
},
{
smooth = 0;
x = 213;
y = 1426;
},
{
smooth = 0;
x = 178;
y = 1383;
},
{
segmentType = curve;
smooth = 1;
x = 178;
y = 1340;
},
{
segmentType = line;
smooth = 1;
x = 178;
y = 86;
},
{
smooth = 0;
x = 178;
y = 41;
},
{
smooth = 0;
x = 222;
y = 0;
}
);
}
);
lib = {
};
name = B;
unicodes = (
);
width = 1292;
};
};
components = (
);
contours = {
};
lib = {
};
name = B;
points = {
};
segmentType = curve;
unicodes = (
);
width = 1395;
x = 676;
y = 1260;
};
}
{
color = 11;
glyphname = C;
kernLeft = O;
kernRight = C;
lastChange = "2022-04-17 21:22:04 +0000";
layers = (
{
anchors = (
{
name = bottom;
pos = (379,0);
},
{
name = top;
pos = (381,736);
}
);
layerId = "BD421374-7BB0-4447-A555-0F47AA5545D5";
shapes = (
{
closed = 1;
nodes = (
(589,119,l),
(539,58,o),
(461,24,o),
(373,24,cs,{
"Letterink-NibData" = {
AngleInDegrees = "270";
};
}),
(201,24,o),
(104,148,o),
(104,368,cs),
(104,588,o),
(201,712,o),
(373,712,cs,{
"Letterink-NibData" = {
AngleInDegrees = "90";
};
}),
(461,712,o),
(539,678,o),
(589,617,c),
(609,647,l,{
"Letterink-NibData" = {
AngleInDegrees = "318.75174";
};
}),
(555,707,o),
(465,744,o),
(373,744,cs,{
"Letterink-NibData" = {
AngleInDegrees = "270";
};
}),
(187,744,o),
(68,597,o),
(68,368,cs,{
"Letterink-NibData" = {
AngleInDegrees = "180";
};
}),
(68,139,o),
(187,-8,o),
(373,-8,cs,{
"Letterink-NibData" = {
AngleInDegrees = "90";
};
}),
(465,-8,o),
(555,29,o),
(609,89,c)
);
}
);
width = 659.71875;
},
{
anchors = (
{
name = bottom;
pos = (398,0);
},
{
name = top;
pos = (397,736);
}
);
layerId = "4D0470F8-723D-4610-9591-64877B13A03C";
shapes = (
{
closed = 1;
nodes = (
(588,212,l),
(529,169,o),
(461,144,o),
(404,144,cs,{
"Letterink-NibData" = {
AngleInDegrees = "270";
};
}),
(303,144,o),
(244,227,o),
(244,368,cs),
(244,509,o),
(303,592,o),
(404,592,cs,{
"Letterink-NibData" = {
AngleInDegrees = "90";
};
}),
(461,592,o),
(529,567,o),
(588,524,c),
(642,667,l),
(596,716,o),
(503,748,o),
(404,748,cs,{
"Letterink-NibData" = {
AngleInDegrees = "270";
};
}),
(187,748,o),
(48,600,o),
(48,368,cs,{
"Letterink-NibData" = {
AngleInDegrees = "180";
};
}),
(48,136,o),
(187,-12,o),
(404,-12,cs,{
"Letterink-NibData" = {
AngleInDegrees = "90";
};
}),
(503,-12,o),
(596,20,o),
(642,69,c)
);
}
);
width = 675.78047;
}
);
unicode = 67;
userData = {
anchors = (
);
b = {
};
com.typemytype.robofont.layerData = {
b = {
anchors = (
);
components = (
);
contours = (
);
lib = {
};
name = C;
unicodes = (
);
width = 1353.89001;
};
};
components = (
);
contours = (
);
lib = {
};
name = C;
unicodes = (
);
width = 1354;
};
}
{
color = 11;
glyphname = D;
kernLeft = H;
kernRight = O;
lastChange = "2022-04-17 21:22:09 +0000";
layers = (
{
anchors = (
{
name = bottom;
pos = (343,0);
},
{
name = center;
pos = (164,374);
},
{
name = top;
pos = (343,736);
}
);
layerId = "BD421374-7BB0-4447-A555-0F47AA5545D5";
shapes = (
{
closed = 1;
nodes = (
(96,0,l),
(315,0,l),
(504,0,o),
(620,140,o),
(620,368,cs),
(620,596,o),
(504,736,o),
(315,736,cs),
(96,736,l)
);
},
{
closed = 1;
nodes = (
(130,704,l),
(315,704,ls),
(487,704,o),
(584,583,o),
(584,368,cs,{
"Letterink-NibData" = {
AngleInDegrees = "180";
};
}),
(584,153,o),
(487,32,o),
(315,32,cs),
(130,32,l)
);
}
);
width = 688;
},
{
anchors = (
{
name = bottom;
pos = (373,0);
},
{
name = center;
pos = (202,374);
},
{
name = top;
pos = (373,736);
}
);
layerId = "4D0470F8-723D-4610-9591-64877B13A03C";
shapes = (
{
closed = 1;
nodes = (
(66,0,l),
(355,0,l),
(572,0,o),
(711,144,o),
(711,368,cs),
(711,592,o),
(572,736,o),
(355,736,c),
(66,736,l)
);
},
{
closed = 1;
nodes = (
(250,580,l),
(355,580,ls),
(456,580,o),
(515,502,o),
(515,368,cs,{
"Letterink-NibData" = {
AngleInDegrees = "180";
};
}),
(515,234,o),
(456,156,o),
(355,156,cs),
(250,156,l)
);
}
);
width = 758;
}
);
unicode = 68;
userData = {
anchors = (
);
b = {
};
com.typemytype.robofont.layerData = {
b = {
anchors = (
);
components = (
);
contours = (
{
points = (
{
segmentType = curve;
smooth = 1;
x = 266;
y = 0;
},
{
segmentType = line;
smooth = 1;
x = 1035;
y = 0;
},
{
smooth = 0;
x = 1084;
y = 0;
},
{
smooth = 0;
x = 1108;
y = 34;
},
{
segmentType = curve;
smooth = 1;
x = 1108;
y = 71;
},
{
smooth = 0;
x = 1108;
y = 107;
},
{
smooth = 0;
x = 1084;
y = 141;
},
{
segmentType = curve;
smooth = 1;
x = 1035;
y = 141;
},
{
segmentType = line;
smooth = 0;
x = 356;
y = 141;
},
{
segmentType = line;
smooth = 0;
x = 356;
y = 665;
},
{
segmentType = line;
smooth = 1;
x = 975;
y = 665;
},
{
smooth = 0;
x = 1024;
y = 665;
},
{
smooth = 0;
x = 1049;
y = 698;
},
{
segmentType = curve;
smooth = 1;
x = 1049;
y = 734;
},
{
smooth = 0;
x = 1049;
y = 770;
},
{
smooth = 0;
x = 1026;
y = 803;
},
{
segmentType = curve;
smooth = 1;
x = 975;
y = 803;
},
{
segmentType = line;
smooth = 0;
x = 356;
y = 803;
},
{
segmentType = line;
smooth = 0;
x = 356;
y = 1285;
},
{
segmentType = line;
smooth = 1;
x = 1007;
y = 1285;
},
{
smooth = 0;
x = 1056;
y = 1285;
},
{
smooth = 0;
x = 1080;
y = 1319;
},
{
segmentType = curve;
smooth = 1;
x = 1080;
y = 1356;
},
{
smooth = 0;
x = 1080;
y = 1392;
},
{
smooth = 0;
x = 1056;
y = 1426;
},
{
segmentType = curve;
smooth = 1;
x = 1007;
y = 1426;
},
{
segmentType = line;
smooth = 1;
x = 261;
y = 1426;
},
{
smooth = 0;
x = 213;
y = 1426;
},
{
smooth = 0;
x = 178;
y = 1383;
},
{
segmentType = curve;
smooth = 1;
x = 178;
y = 1340;
},
{
segmentType = line;
smooth = 1;
x = 178;
y = 86;
},
{
smooth = 0;
x = 178;
y = 41;
},
{
smooth = 0;
x = 222;
y = 0;
}
);
}
);
lib = {
};
name = D;
unicodes = (
);
width = 1499;
};
};
components = (
);
contours = (
);
lib = {
};
name = D;
unicodes = (
);
width = 1535;
};
}
{
color = 11;
glyphname = E;
kernLeft = H;
kernRight = E;
lastChange = "2022-04-17 21:22:12 +0000";
layers = (
{
anchors = (
{
name = bottom;
pos = (327,0);
},
{
name = ogonek;
pos = (505,0);
},
{
name = top;
pos = (327,736);
},
{
name = topleft;
pos = (29,736);
}
);
layerId = "BD421374-7BB0-4447-A555-0F47AA5545D5";
shapes = (
{
closed = 1;
nodes = (
(98,0,l),
(532,0,l),
(532,32,l),
(132,32,l),
(132,356,l,{
"Letterink-NibData" = {
AngleInDegrees = "90";
};
}),
(508,356,l),
(508,388,l),
(132,388,l),
(132,704,l,{
"Letterink-NibData" = {
AngleInDegrees = "90";
};
}),
(520,704,l),
(520,736,l),
(98,736,l)
);
}
);
width = 584;
},
{
anchors = (
{
name = bottom;
pos = (341,0);
},
{
name = ogonek;
pos = (518,0);
},
{
name = top;
pos = (341,736);
},
{
name = topleft;
pos = (20,736);
}
);
layerId = "4D0470F8-723D-4610-9591-64877B13A03C";
shapes = (
{
closed = 1;
nodes = (
(66,0,l),
(577,0,l),
(577,136,l),
(250,136,l),
(250,304,l),
(553,304,l),
(553,440,l),
(250,440,l),
(250,600,l),
(577,600,l),
(577,736,l,{
"Letterink-NibData" = {
AngleInDegrees = "270";
};
}),
(66,736,l,{
"Letterink-NibData" = {
AngleInDegrees = "180";
};
})
);
}
);
width = 630.28938;
}
);
unicode = 69;
userData = {
anchors = (
);
b = {
};
com.typemytype.robofont.layerData = {
b = {
anchors = (
);
components = (
);
contours = (
);
lib = {
};
name = E;
unicodes = (
);
width = 1234;
};
};
components = (
);
contours = (
);
lib = {
};
name = E;
unicodes = (
);
width = 1258;
};
}
{
color = 11;
glyphname = F;
kernLeft = H;
kernRight = F;
lastChange = "2022-04-17 21:22:15 +0000";
layers = (
{
anchors = (
{
name = bottom;
pos = (309,0);
},
{
name = top;
pos = (308,736);
}
);
layerId = "BD421374-7BB0-4447-A555-0F47AA5545D5";
shapes = (
{
closed = 1;
nodes = (
(98,0,l),
(132,0,l),
(132,344,l,{
"Letterink-NibData" = {
AngleInDegrees = "90";
};
}),
(508,344,l),
(508,376,l),
(132,376,l),
(132,704,l,{
"Letterink-NibData" = {
AngleInDegrees = "90";
};
}),
(520,704,l),
(520,736,l),
(98,736,l)
);
}
);
width = 550.2125;
},
{
anchors = (
{
name = bottom;
pos = (311,0);
},
{
name = top;
pos = (317,736);
}
);
layerId = "4D0470F8-723D-4610-9591-64877B13A03C";
shapes = (
{
closed = 1;
nodes = (
(66,0,l),
(250,0,l),
(250,292,l),
(553,292,l),
(553,428,l),
(250,428,l),
(250,600,l),
(577,600,l),
(577,736,l,{
"Letterink-NibData" = {
AngleInDegrees = "270";
};
}),
(66,736,l,{
"Letterink-NibData" = {
AngleInDegrees = "180";
};
})
);
}
);
width = 610;
}
);
unicode = 70;
userData = {
anchors = (
);
b = {
};
com.typemytype.robofont.layerData = {
b = {
anchors = (
);
components = (
);
contours = (
{
points = (
{
segmentType = curve;
smooth = 1;
x = 266;
y = 0;
},
{
segmentType = line;
smooth = 1;
x = 1035;
y = 0;
},
{
smooth = 0;
x = 1084;
y = 0;
},
{
smooth = 0;
x = 1108;
y = 34;
},
{
segmentType = curve;
smooth = 1;
x = 1108;
y = 71;
},
{
smooth = 0;
x = 1108;
y = 107;
},
{
smooth = 0;
x = 1084;
y = 141;
},
{
segmentType = curve;
smooth = 1;
x = 1035;
y = 141;
},
{
segmentType = line;
smooth = 0;
x = 353;
y = 141;
},
{
segmentType = line;
smooth = 0;
x = 353;
y = 665;
},
{
segmentType = line;
smooth = 1;
x = 975;
y = 665;
},
{
smooth = 0;
x = 1024;
y = 665;
},
{
smooth = 0;
x = 1049;
y = 698;
},
{
segmentType = curve;
smooth = 1;
x = 1049;
y = 734;
},
{
smooth = 0;
x = 1049;
y = 770;
},
{
smooth = 0;
x = 1026;
y = 803;
},
{
segmentType = curve;
smooth = 1;
x = 975;
y = 803;
},
{
segmentType = line;
smooth = 0;
x = 353;
y = 803;
},
{
segmentType = line;
smooth = 0;
x = 353;
y = 1285;
},
{
segmentType = line;
smooth = 1;
x = 1007;
y = 1285;
},
{
smooth = 0;
x = 1056;
y = 1285;
},
{
smooth = 0;
x = 1080;
y = 1319;
},
{
segmentType = curve;
smooth = 1;
x = 1080;
y = 1356;
},
{
smooth = 0;
x = 1080;
y = 1392;
},
{
smooth = 0;
x = 1056;
y = 1426;
},
{
segmentType = curve;
smooth = 1;
x = 1007;
y = 1426;
},
{
segmentType = line;
smooth = 1;
x = 261;
y = 1426;
},
{
smooth = 0;
x = 213;
y = 1426;
},
{
smooth = 0;
x = 178;
y = 1383;
},
{
segmentType = curve;
smooth = 1;
x = 178;
y = 1340;
},
{
segmentType = line;
smooth = 1;
x = 178;
y = 86;
},
{
smooth = 0;
x = 178;
y = 41;
},
{
smooth = 0;
x = 222;
y = 0;
}
);
}
);
lib = {
};
name = F;
unicodes = (
);
width = 1142;
};
};
components = (
);
contours = (
);
lib = {
};
name = F;
unicodes = (
);
width = 1175;
};
}
{
color = 11;
glyphname = G;
kernLeft = O;
kernRight = O;
lastChange = "2022-04-17 21:22:18 +0000";
layers = (
{
anchors = (
{
name = bottom;
pos = (373,0);
},
{
name = top;
pos = (373,736);
}
);
layerId = "BD421374-7BB0-4447-A555-0F47AA5545D5";
shapes = (
{
closed = 1;
nodes = (
(461,712,o),
(539,678,o),
(589,617,c),
(609,647,l,{
"Letterink-NibData" = {
AngleInDegrees = "318.75174";
};
}),
(555,707,o),
(465,744,o),
(373,744,cs,{
"Letterink-NibData" = {
AngleInDegrees = "270";
};
}),
(184,744,o),
(68,601,o),
(68,368,cs,{
"Letterink-NibData" = {
AngleInDegrees = "180";
};
}),
(68,135,o),
(184,-8,o),
(373,-8,cs,{
"Letterink-NibData" = {
AngleInDegrees = "90";
};
}),
(552,-8,o),
(662,127,o),
(662,347,cs),
(662,373,l),
(373,373,l),
(373,347,l),
(630,347,l),
(630,140,o),
(537,24,o),
(373,24,cs,{
"Letterink-NibData" = {
AngleInDegrees = "270";
};
}),
(201,24,o),
(104,148,o),
(104,368,cs),
(104,588,o),
(201,712,o),
(373,712,cs,{
"Letterink-NibData" = {
AngleInDegrees = "90";
};
})
);
}
);
width = 730;
},
{
anchors = (
{
name = bottom;
pos = (404,0);
},
{
name = top;
pos = (404,736);
}
);
layerId = "4D0470F8-723D-4610-9591-64877B13A03C";
shapes = (
{
closed = 1;
nodes = (
(461,592,o),
(529,567,o),
(588,524,c),
(642,667,l),
(596,716,o),
(503,748,o),
(404,748,cs,{
"Letterink-NibData" = {
AngleInDegrees = "270";
};
}),
(187,748,o),
(48,600,o),
(48,368,cs,{
"Letterink-NibData" = {
AngleInDegrees = "180";
};
}),
(48,136,o),
(187,-12,o),
(404,-12,cs,{
"Letterink-NibData" = {
AngleInDegrees = "90";
};
}),
(599,-12,o),
(724,107,o),
(724,292,cs),
(724,428,l),
(404,428,l),
(404,292,l),
(540,292,l),
(540,199,o),
(490,144,o),
(404,144,cs),
(303,144,o),
(244,227,o),
(244,368,cs),
(244,509,o),
(303,592,o),
(404,592,cs,{
"Letterink-NibData" = {
AngleInDegrees = "90";
};
})
);
}
);
width = 772;
}
);
unicode = 71;
userData = {
anchors = (
);
b = {
};
com.typemytype.robofont.layerData = {
b = {
anchors = (
);
components = (
);
contours = (
{
points = (
{
segmentType = curve;
smooth = 1;
x = 783;
y = "-22";
},
{
smooth = 0;
x = 965;
y = "-22";
},
{
smooth = 0;
x = 1086;
y = 34;
},
{
segmentType = curve;
smooth = 1;
x = 1166;
y = 86;
},
{
smooth = 0;
x = 1270;
y = 154;
},
{
smooth = 0;
x = 1186;
y = 258;
},
{
segmentType = curve;
smooth = 1;
x = 1112;
y = 214;
},
{
smooth = 0;
x = 1024;
y = 162;
},
{
smooth = 0;
x = 939;
y = 120;
},
{
segmentType = curve;
smooth = 1;
x = 806;
y = 120;
},
{
smooth = 0;
x = 446;
y = 120;
},
{
smooth = 0;
x = 316;
y = 406;
},
{
segmentType = curve;
smooth = 1;
x = 316;
y = 706;
},
{
smooth = 0;
x = 316;
y = 1005;
},
{
smooth = 0;
x = 450;
y = 1296;
},
{
segmentType = curve;
smooth = 1;
x = 801;
y = 1296;
},
{
smooth = 0;
x = 980;
y = 1296;
},
{
smooth = 0;
x = 1053;
y = 1246;
},
{
segmentType = curve;
smooth = 1;
x = 1094;
y = 1225;
},
{
smooth = 0;
x = 1174;
y = 1184;
},
{
smooth = 0;
x = 1231;
y = 1300;
},
{
segmentType = curve;
smooth = 1;
x = 1156;
y = 1343;
},
{
smooth = 0;
x = 1106;
y = 1372;
},
{
smooth = 0;
x = 995;
y = 1438;
},
{
segmentType = curve;
smooth = 1;
x = 797;
y = 1438;
},
{
smooth = 0;
x = 359;
y = 1438;
},
{
smooth = 0;
x = 128;
y = 1093;
},
{
segmentType = curve;
smooth = 1;
x = 128;
y = 704;
},
{
smooth = 0;
x = 128;
y = 307;
},
{
smooth = 0;
x = 350;
y = "-22";
}
);
}
);
lib = {
};
name = G;
unicodes = (
);
width = 1448;
};
};
components = (
);
contours = (
);
lib = {
};
name = G;
unicodes = (
);
width = 1538;
};
}
{
color = 11;
glyphname = H;
kernLeft = H;
kernRight = H;
lastChange = "2022-04-17 21:22:21 +0000";
layers = (
{
anchors = (
{
name = bottom;
pos = (375,0);
},
{
name = center;
pos = (375,569);
},
{
name = top;
pos = (374,736);
},
{
name = topleft;
pos = (29,736);
}
);
layerId = "BD421374-7BB0-4447-A555-0F47AA5545D5";
shapes = (
{
closed = 1;
nodes = (
(98,736,l),
(98,0,l),
(132,0,l),
(132,356,l,{
"Letterink-NibData" = {
AngleInDegrees = "90";
};
}),
(614,356,l,{
"Letterink-NibData" = {
AngleInDegrees = "180";
};
}),
(614,0,l),
(648,0,l),
(648,736,l),
(614,736,l),
(614,388,l),
(132,388,l),
(132,736,l)
);
}
);
width = 746;
},
{
anchors = (
{
name = bottom;
pos = (391,0);
},
{
name = center;
pos = (391,593);
},
{
name = top;
pos = (392,736);
},
{
name = topleft;
pos = (20,736);
}
);
layerId = "4D0470F8-723D-4610-9591-64877B13A03C";
shapes = (
{
closed = 1;
nodes = (
(66,736,l),
(66,0,l),
(250,0,l),
(250,294,l),
(536,294,l),
(536,0,l),
(720,0,l),
(720,736,l),
(536,736,l),
(536,450,l,{
"Letterink-NibData" = {
AngleInDegrees = "270";
};
}),
(250,450,l),
(250,736,l)
);
}
);
width = 786;
}
);
unicode = 72;
userData = {
anchors = (
);
b = {
};
com.typemytype.robofont.layerData = {
b = {
anchors = (
);
components = (
);
contours = (
);
lib = {
};
name = H;
unicodes = (
);
width = 1464;
};
};
components = (
);
contours = (
);
lib = {
};
name = H;
unicodes = (
);
width = 1524;
};
}
{
color = 11;
glyphname = I;
kernLeft = H;
kernRight = H;
lastChange = "2022-04-17 21:22:25 +0000";
layers = (
{
anchors = (
{
name = bottom;
pos = (115,0);
},
{
name = ogonek;
pos = (135,0);
},
{
name = top;
pos = (115,736);
},
{
name = topleft;
pos = (29,736);
}
);
layerId = "BD421374-7BB0-4447-A555-0F47AA5545D5";
shapes = (
{
closed = 1;
nodes = (
(98,736,l),
(98,0,l),
(132,0,l),
(132,736,l)
);
}
);
width = 230;
},
{
anchors = (
{
name = bottom;
pos = (157,0);
},
{
name = ogonek;
pos = (204,0);
},
{
name = top;
pos = (157,736);
},
{
name = topleft;
pos = (20,736);
}
);
layerId = "4D0470F8-723D-4610-9591-64877B13A03C";
shapes = (
{
closed = 1;
nodes = (
(66,736,l),
(66,0,l),
(250,0,l),
(250,736,l)
);
}
);
width = 316;
}
);
unicode = 73;
userData = {
anchors = (
);
b = {
};
com.typemytype.robofont.layerData = {
b = {
anchors = (
);
components = (
);
contours = (
);
lib = {
};
name = I;
unicodes = (
);
width = 592;
};
};
components = (
);
contours = (
);
lib = {
};
name = I;
unicodes = (
);
width = 637;
};
}
{
color = 11;
glyphname = J;
kernLeft = J;
kernRight = J;
lastChange = "2022-04-17 21:22:28 +0000";
layers = (
{
anchors = (
{
name = bottom;
pos = (231,0);
},
{
name = top;
pos = (413,736);
}
);
layerId = "BD421374-7BB0-4447-A555-0F47AA5545D5";
shapes = (
{
closed = 1;
nodes = (
(32,204,l,{
"Letterink-NibData" = {
AngleInDegrees = "180";
};
}),
(32,73,o),
(108,-8,o),
(232,-8,cs,{
"Letterink-NibData" = {
AngleInDegrees = "90";
};
}),
(355,-8,o),
(430,73,o),
(430,204,cs),
(430,737,l),
(396,737,l),
(396,204,ls,{
"Letterink-NibData" = {
AngleInDegrees = "180";
};
}),
(396,89,o),
(337,24,o),
(232,24,cs,{
"Letterink-NibData" = {
AngleInDegrees = "270";
};
}),
(126,24,o),
(66,89,o),
(66,204,c,{
"Letterink-NibData" = {
AngleInDegrees = "270";
};
})
);
}
);
width = 528.29375;
},
{
anchors = (
{
name = bottom;
pos = (292,0);
},
{
name = top;
pos = (466,736);
}
);
layerId = "4D0470F8-723D-4610-9591-64877B13A03C";
shapes = (
{
closed = 1;
nodes = (
(20.004,250.836,l),
(19,91,o),
(126,-12,o),
(294,-12,cs,{
"Letterink-NibData" = {
AngleInDegrees = "90";
};
}),
(456,-12,o),
(560,90,o),
(560,250,cs),
(560,736,l,{
"Letterink-NibData" = {
AngleInDegrees = "270";
};
}),
(376,736,l,{
"Letterink-NibData" = {
AngleInDegrees = "180";
};
}),
(376,250,ls,{
"Letterink-NibData" = {
AngleInDegrees = "180";
};
}),
(376,183,o),
(346,144,o),
(294,144,cs),
(237,144,o),
(203,183,o),
(203.996,249.164,c)
);
}
);
width = 625.73484;
}
);
unicode = 74;
userData = {
anchors = (
);
b = {
};
com.typemytype.robofont.layerData = {
b = {
anchors = (
);
components = (
);
contours = (
);
lib = {
};
name = J;
unicodes = (
);
width = 1003;
};
};
components = (
);
contours = (
);
lib = {
};
name = J;
unicodes = (
);
width = 1126;
};
}
{
color = 11;
glyphname = K;
kernLeft = H;
kernRight = K;
lastChange = "2022-04-17 21:22:32 +0000";
layers = (
{
anchors = (
{
name = bottom;
pos = (299,0);
},
{
name = top;
pos = (298,736);
},
{
name = topleft;
pos = (29,736);
}
);
layerId = "BD421374-7BB0-4447-A555-0F47AA5545D5";
shapes = (
{
closed = 1;
nodes = (
(583,0,l),
(256,390,l),
(558,736,l),
(512,736,l),
(132,299.4,l),
(132,736,l),
(98,736,l),
(98,0,l),
(132,0,l),
(132,247.634,l,{
"Letterink-NibData" = {
AngleInDegrees = "40.99458";
};
}),
(233,364,l),
(538,0,l)
);
}
);
width = 582;
},
{
anchors = (
{
name = bottom;
pos = (343,0);
},
{
name = top;
pos = (343,736);
},
{
name = topleft;
pos = (20,736);
}
);
layerId = "4D0470F8-723D-4610-9591-64877B13A03C";
shapes = (
{
closed = 1;
nodes = (
(743,0,l),
(436,390,l),
(727,736,l),
(503,736,l),
(250,435,l,{
"Letterink-NibData" = {
AngleInDegrees = "359.62057";
};
}),
(250,736,l),
(66,736,l),
(66,0,l),
(250,0,l),
(250,168,l),
(323.525,255.334,l),
(524,0,l)
);
}
);
width = 697.56675;
}
);
unicode = 75;
userData = {
anchors = (
);
b = {
};
com.typemytype.robofont.layerData = {
b = {
anchors = (
);
components = (
);
contours = (
);
lib = {
};
name = K;
unicodes = (
);
width = 1210;
};
};
components = (
);
contours = (
);
lib = {
};
name = K;
unicodes = (
);
width = 1329;
};
}
{
color = 11;
glyphname = L;
kernLeft = H;
kernRight = L;
lastChange = "2022-04-17 21:22:35 +0000";
layers = (
{
anchors = (
{
name = bottom;
pos = (304,0);
},
{
name = center;
pos = (159,404);
},
{
name = dot;
pos = (380,402);
},
{
name = top;
pos = (115,736);
},
{
name = topright;
pos = (254,736);
}
);
layerId = "BD421374-7BB0-4447-A555-0F47AA5545D5";
shapes = (
{
closed = 1;
nodes = (
(98,736,l),
(98,0,l),
(526,0,l),
(526,32,l,{
"Letterink-NibData" = {
AngleInDegrees = "270";
};
}),
(132,32,l),
(132,736,l)
);
}
);
width = 539.9125;
},
{
anchors = (
{
name = bottom;
pos = (322,0);
},
{
name = center;
pos = (204,404);
},
{
name = dot;
pos = (450,416);
},
{
name = top;
pos = (157,736);
},
{
name = topright;
pos = (354,736);
}
);
layerId = "4D0470F8-723D-4610-9591-64877B13A03C";
shapes = (
{
closed = 1;
nodes = (
(66,736,l),
(66,0,l,{
"Letterink-NibData" = {
AngleInDegrees = "90";
};
}),
(576,0,l),
(576,156,l,{
"Letterink-NibData" = {
AngleInDegrees = "270";
};
}),
(250,156,l),
(250,736,l)
);
}
);
width = 602.01781;
}
);
unicode = 76;
userData = {
anchors = (
);
b = {
};
com.typemytype.robofont.layerData = {
b = {
anchors = (
);
components = (
);
contours = (
{
points = (
{
segmentType = curve;
smooth = 1;
x = 266;
y = 0;
},
{
segmentType = line;
smooth = 1;
x = 1035;
y = 0;
},
{
smooth = 0;
x = 1084;
y = 0;
},
{
smooth = 0;
x = 1108;
y = 34;
},
{
segmentType = curve;
smooth = 1;
x = 1108;
y = 71;
},
{
smooth = 0;
x = 1108;
y = 107;
},
{
smooth = 0;
x = 1084;
y = 141;
},
{
segmentType = curve;
smooth = 1;
x = 1035;
y = 141;
},
{
segmentType = line;
smooth = 0;
x = 356;
y = 141;
},
{
segmentType = line;
smooth = 0;
x = 356;
y = 665;
},
{
segmentType = line;
smooth = 1;
x = 975;
y = 665;
},
{
smooth = 0;
x = 1024;
y = 665;
},
{
smooth = 0;
x = 1049;
y = 698;
},
{
segmentType = curve;
smooth = 1;
x = 1049;
y = 734;
},
{
smooth = 0;
x = 1049;
y = 770;
},
{
smooth = 0;
x = 1026;
y = 803;
},
{
segmentType = curve;
smooth = 1;
x = 975;
y = 803;
},
{
segmentType = line;
smooth = 0;
x = 356;
y = 803;
},
{
segmentType = line;
smooth = 0;
x = 356;
y = 1285;
},
{
segmentType = line;
smooth = 1;
x = 1007;
y = 1285;
},
{
smooth = 0;
x = 1056;
y = 1285;
},
{
smooth = 0;
x = 1080;
y = 1319;
},
{
segmentType = curve;
smooth = 1;
x = 1080;
y = 1356;
},
{
smooth = 0;
x = 1080;
y = 1392;
},
{
smooth = 0;
x = 1056;
y = 1426;
},
{
segmentType = curve;
smooth = 1;
x = 1007;
y = 1426;
},
{
segmentType = line;
smooth = 1;
x = 261;
y = 1426;
},
{
smooth = 0;
x = 213;
y = 1426;
},
{
smooth = 0;
x = 178;
y = 1383;
},
{
segmentType = curve;
smooth = 1;
x = 178;
y = 1340;
},
{
segmentType = line;
smooth = 1;
x = 178;
y = 86;
},
{
smooth = 0;
x = 178;
y = 41;
},
{
smooth = 0;
x = 222;
y = 0;
}
);
}
);
lib = {
};
name = L;
unicodes = (
);
width = 1095;
};
};
components = (
);
contours = (
);
lib = {
};
name = L;
unicodes = (
);
width = 1169;
};
}
{
color = 11;
glyphname = M;
kernLeft = H;
kernRight = H;
lastChange = "2022-04-17 21:22:38 +0000";
layers = (
{
anchors = (
{
name = bottom;
pos = (421,0);
},
{
name = top;
pos = (421,736);
}
);
layerId = "BD421374-7BB0-4447-A555-0F47AA5545D5";
shapes = (
{
closed = 1;
nodes = (
(132,0,l),
(132,661.925,l),
(403,119,l),
(437,119,l),
(708,661.925,l),
(708,0,l),
(742,0,l),
(742,736,l),
(709,736,l,{
"Letterink-NibData" = {
AngleInDegrees = "206.33919";
};
}),
(420,154.84,l),
(131,736,l,{
"Letterink-NibData" = {
AngleInDegrees = "270";
};
}),
(98,736,l),
(98,0,l)
);
}
);
width = 840.42499;
},
{
anchors = (
{
name = bottom;
pos = (442,0);
},
{
name = top;
pos = (442,736);
}
);
layerId = "4D0470F8-723D-4610-9591-64877B13A03C";
shapes = (
{
closed = 1;
nodes = (
(238,0,l),
(238,395.616,l),
(389,111,l,{
"Letterink-NibData" = {
AngleInDegrees = "90";
};
}),
(495,111,l),
(646,395.616,l),
(646,0,l),
(818,0,l),
(818,736,l),
(673,736,l),
(442,301.407,l),
(211,736,l),
(66,736,l),
(66,0,l)
);
}
);
width = 883.62006;
}
);
unicode = 77;
userData = {
anchors = (
);
b = {
};
com.typemytype.robofont.layerData = {
b = {
anchors = (
);
components = (
);
contours = (
);
lib = {
};
name = M;
unicodes = (
);
width = 1899;
};
};
components = (
);
contours = (
);
lib = {
};
name = M;
unicodes = (
);
width = 1984;
};
}
{
color = 11;
glyphname = N;
kernLeft = H;
kernRight = H;
lastChange = "2022-04-17 21:22:42 +0000";
layers = (
{
anchors = (
{
name = bottom;
pos = (365,0);
},
{
name = top;
pos = (365,736);
}
);
layerId = "BD421374-7BB0-4447-A555-0F47AA5545D5";
shapes = (
{
closed = 1;
nodes = (
(98,736,l),
(98,0,l),
(132,0,l),
(132,676.571,l),
(598,0,l),
(630,0,l),
(630,736,l),
(596,736,l),
(596,59.429,l),
(130,736,l,{
"Letterink-NibData" = {
AngleInDegrees = "270";
};
})
);
}
);
width = 728;
},
{
anchors = (
{
name = bottom;
pos = (378,0);
},
{
name = top;
pos = (378,736);
}
);
layerId = "4D0470F8-723D-4610-9591-64877B13A03C";
shapes = (
{
closed = 1;
nodes = (
(66,736,l),
(66,0,l),
(238,0,l),
(238,427.711,l),
(550,0,l),
(690,0,l),
(690,736,l),
(518,736,l),
(518,308.289,l),
(206,736,l)
);
}
);
width = 756;
}
);
unicode = 78;
userData = {
anchors = (
);
b = {
};
com.typemytype.robofont.layerData = {
b = {
anchors = (
);
components = (
);
contours = (
);
lib = {
};
name = N;
unicodes = (
);
width = 1499;
};
};
components = (
);
contours = (
);
lib = {
};
name = N;
unicodes = (
);
width = 1557;
};
}
{
color = 11;
glyphname = O;
kernLeft = O;
kernRight = O;
lastChange = "2022-04-17 21:22:46 +0000";
layers = (
{
anchors = (
{
name = Qtail;
pos = (373,-8);
},
{
name = bottom;
pos = (373,0);
},
{
name = center;
pos = (375,369);
},
{
name = ogonek;
pos = (427,0);
},
{
name = top;
pos = (373,736);
},
{
name = topleft;
pos = (27,736);
},
{
name = topright;
pos = (446,736);
}
);
layerId = "BD421374-7BB0-4447-A555-0F47AA5545D5";
shapes = (
{
closed = 1;
nodes = (
(562,-8,o),
(678,135,o),
(678,368,cs),
(678,601,o),
(562,744,o),
(373,744,cs),
(184,744,o),
(68,601,o),
(68,368,cs),
(68,135,o),
(184,-8,o),
(373,-8,cs)
);
},
{
closed = 1;
nodes = (
(201,24,o),
(104,148,o),
(104,368,cs),
(104,588,o),
(201,712,o),
(373,712,cs),
(545,712,o),
(642,588,o),
(642,368,cs),
(642,148,o),
(545,24,o),
(373,24,cs)
);
}
);
width = 746.4983;
},
{
anchors = (
{
name = Qtail;
pos = (403,-12);
},
{
name = bottom;
pos = (403,0);
},
{
name = center;
pos = (402,369);
},
{
name = ogonek;
pos = (465,0);
},
{
name = top;
pos = (403,736);
},
{
name = topleft;
pos = (27,736);
},
{
name = topright;
pos = (468,736);
}
);
layerId = "4D0470F8-723D-4610-9591-64877B13A03C";
shapes = (
{
closed = 1;
nodes = (
(620,-12,o),
(759,136,o),
(759,368,cs),
(759,600,o),
(620,748,o),
(403,748,cs),
(186,748,o),
(47,600,o),
(47,368,cs),
(47,136,o),
(186,-12,o),
(403,-12,cs)
);
},
{
closed = 1;
nodes = (
(302,144,o),
(243,227,o),
(243,368,cs),
(243,509,o),
(302,592,o),
(403,592,cs),
(504,592,o),
(563,509,o),
(563,368,cs),
(563,227,o),
(504,144,o),
(403,144,cs)
);
}
);
width = 806;
}
);
unicode = 79;
userData = {
anchors = (
);
b = {
};
com.typemytype.robofont.guides = (
);
com.typemytype.robofont.layerData = {
b = {
anchors = (
);
components = (
);
contours = (
);
lib = {
};
name = O;
unicodes = (
);
width = 1597;
};
};
components = (
);
contours = (
);
lib = {
};
name = O;
unicodes = (
);
width = 1604;
};
}
{
color = 11;
glyphname = P;
kernLeft = H;
kernRight = P;
lastChange = "2022-04-17 21:22:49 +0000";
layers = (
{
anchors = (
{
name = bottom;
pos = (315,0);
},
{
name = top;
pos = (315,736);
}
);
layerId = "BD421374-7BB0-4447-A555-0F47AA5545D5";
shapes = (
{
closed = 1;
nodes = (
(98,0,l),
(132,0,l),
(132,304,l),
(346,304,ls),
(488,304,o),
(574,386,o),
(574,520,cs),
(574,652,o),
(493,736,o),
(346,736,cs,{
"Letterink-NibData" = {
AngleInDegrees = "270";
};
}),
(98,736,l)
);
},
{
closed = 1;
nodes = (
(132,704,l,{
"Letterink-NibData" = {
AngleInDegrees = "90";
};
}),
(346,704,ls,{
"Letterink-NibData" = {
AngleInDegrees = "90";
};
}),
(464,704,o),
(538,640,o),
(538,520,cs),
(538,402,o),
(468,336,o),
(346,336,cs),
(132,336,l)
);
}
);
width = 612.27657;
},
{
anchors = (
{
name = bottom;
pos = (342,0);
},
{
name = top;
pos = (341,736);
}
);
layerId = "4D0470F8-723D-4610-9591-64877B13A03C";
shapes = (
{
closed = 1;
nodes = (
(66,0,l),
(250,0,l),
(250,242,l),
(383,242,ls),
(547,242,o),
(652,338,o),
(652,489,cs),
(652,640,o),
(547,736,o),
(383,736,cs),
(66,736,l,{
"Letterink-NibData" = {
AngleInDegrees = "180";
};
})
);
},
{
closed = 1;
nodes = (
(250,580,l),
(383,580,ls),
(442,580,o),
(476,546,o),
(476,489,cs),
(476,432,o),
(442,398,o),
(383,398,cs),
(250,398,l)
);
}
);
width = 676.05805;
}
);
unicode = 80;
userData = {
anchors = (
);
b = {
};
com.typemytype.robofont.layerData = {
b = {
anchors = (
);
components = (
);
contours = (
{
points = (
{
segmentType = curve;
smooth = 1;
x = 266;
y = 0;
},
{
segmentType = line;
smooth = 1;
x = 1035;
y = 0;
},
{
smooth = 0;
x = 1084;
y = 0;
},
{
smooth = 0;
x = 1108;
y = 34;
},
{
segmentType = curve;
smooth = 1;
x = 1108;
y = 71;
},
{
smooth = 0;
x = 1108;
y = 107;
},
{
smooth = 0;
x = 1084;
y = 141;
},
{
segmentType = curve;
smooth = 1;
x = 1035;
y = 141;
},
{
segmentType = line;
smooth = 0;
x = 356;
y = 141;
},
{
segmentType = line;
smooth = 0;
x = 356;
y = 665;
},
{
segmentType = line;
smooth = 1;
x = 975;
y = 665;
},
{
smooth = 0;
x = 1024;
y = 665;
},
{
smooth = 0;
x = 1049;
y = 698;
},
{
segmentType = curve;
smooth = 1;
x = 1049;
y = 734;
},
{
smooth = 0;
x = 1049;
y = 770;
},
{
smooth = 0;
x = 1026;
y = 803;
},
{
segmentType = curve;
smooth = 1;
x = 975;
y = 803;
},
{
segmentType = line;
smooth = 0;
x = 356;
y = 803;
},
{
segmentType = line;
smooth = 0;
x = 356;
y = 1285;
},
{
segmentType = line;
smooth = 1;
x = 1007;
y = 1285;
},
{
smooth = 0;
x = 1056;
y = 1285;
},
{
smooth = 0;
x = 1080;
y = 1319;
},
{
segmentType = curve;
smooth = 1;
x = 1080;
y = 1356;
},
{
smooth = 0;
x = 1080;
y = 1392;
},
{
smooth = 0;
x = 1056;
y = 1426;
},
{
segmentType = curve;
smooth = 1;
x = 1007;
y = 1426;
},
{
segmentType = line;
smooth = 1;
x = 261;
y = 1426;
},
{
smooth = 0;
x = 213;
y = 1426;
},
{
smooth = 0;
x = 178;
y = 1383;
},
{
segmentType = curve;
smooth = 1;
x = 178;
y = 1340;
},
{
segmentType = line;
smooth = 1;
x = 178;
y = 86;
},
{
smooth = 0;
x = 178;
y = 41;
},
{
smooth = 0;
x = 222;
y = 0;
}
);
}
);
lib = {
};
name = P;
unicodes = (
);
width = 1201;
};
};
components = (
);
contours = (
);
lib = {
};
name = P;
unicodes = (
);
width = 1319;
};
}
{
color = 11;
glyphname = R;
kernLeft = H;
kernRight = R;
lastChange = "2022-04-17 21:22:56 +0000";
layers = (
{
anchors = (
{
name = bottom;
pos = (333,0);
},
{
name = top;
pos = (333,736);
}
);
layerId = "BD421374-7BB0-4447-A555-0F47AA5545D5";
shapes = (
{
closed = 1;
nodes = (
(132,0,l),
(132,320,l),
(346,320,ls),
(489,320,o),
(574,400,o),
(574,528,cs),
(574,654,o),
(494,736,o),
(346,736,cs,{
"Letterink-NibData" = {
AngleInDegrees = "270";
};
}),
(98,736,l),
(98,0,l)
);
},
{
closed = 1;
nodes = (
(132,704,l,{
"Letterink-NibData" = {
AngleInDegrees = "90";
};
}),
(346,704,ls),
(462,704,o),
(538,644,o),
(538,528,cs),
(538,414,o),
(467,352,o),
(346,352,cs),
(132,352,l)
);
},
{
closed = 1;
nodes = (
(609,0,l),
(422.074,346.611,l),
(393.926,331.389,l),
(573,0,l)
);
}
);
width = 652;
},
{
anchors = (
{
name = bottom;
pos = (357,0);
},
{
name = top;
pos = (357,736);
}
);
layerId = "4D0470F8-723D-4610-9591-64877B13A03C";
shapes = (
{
closed = 1;
nodes = (
(250,0,l),
(250,268,l),
(383,268,ls),
(547,268,o),
(652,357,o),
(652,497,cs),
(652,643,o),
(547,736,o),
(383,736,cs),
(66,736,l,{
"Letterink-NibData" = {
AngleInDegrees = "180";
};
}),
(66,0,l,{
"Letterink-NibData" = {
AngleInDegrees = "90";
};
})
);
},
{
closed = 1;
nodes = (
(250,580,l),
(383,580,ls),
(442,580,o),
(476,549,o),
(476,497,cs),
(476,438,o),
(442,404,o),
(383,404,cs),
(250,404,l)
);
},
{
closed = 1;
nodes = (
(696,0,l),
(503.619,354.96,l),
(352.381,273.04,l),
(500,0,l)
);
}
);
width = 708;
}
);
unicode = 82;
userData = {
anchors = (
);
b = {
};
com.typemytype.robofont.guides = (
);
com.typemytype.robofont.layerData = {
b = {
anchors = (
);
components = (
);
contours = (
{
points = (
{
segmentType = curve;
smooth = 1;
x = 267;
y = 0;
},
{
smooth = 0;
x = 311;
y = 0;
},
{
smooth = 0;
x = 356;
y = 27;
},
{
segmentType = curve;
smooth = 1;
x = 356;
y = 84;
},
{
segmentType = line;
smooth = 0;
x = 356;
y = 628;
},
{
segmentType = line;
smooth = 1;
x = 669;
y = 628;
},
{
smooth = 0;
x = 962;
y = 628;
},
{
smooth = 0;
x = 1182;
y = 722;
},
{
segmentType = curve;
smooth = 1;
x = 1182;
y = 1026;
},
{
smooth = 0;
x = 1182;
y = 1324;
},
{
smooth = 0;
x = 993;
y = 1426;
},
{
segmentType = curve;
smooth = 1;
x = 684;
y = 1426;
},
{
segmentType = line;
smooth = 1;
x = 268;
y = 1426;
},
{
smooth = 0;
x = 217;
y = 1426;
},
{
smooth = 0;
x = 178;
y = 1387;
},
{
segmentType = curve;
smooth = 1;
x = 178;
y = 1339;
},
{
segmentType = line;
smooth = 1;
x = 178;
y = 84;
},
{
smooth = 0;
x = 178;
y = 28;
},
{
smooth = 0;
x = 222;
y = 0;
}
);
},
{
points = (
{
segmentType = line;
smooth = 0;
x = 356;
y = 764;
},
{
segmentType = line;
smooth = 0;
x = 356;
y = 1285;
},
{
segmentType = line;
smooth = 1;
x = 684;
y = 1285;
},
{
smooth = 0;
x = 914;
y = 1285;
},
{
smooth = 0;
x = 1008;
y = 1210;
},
{
segmentType = curve;
smooth = 1;
x = 1008;
y = 1026;
},
{
smooth = 0;
x = 1008;
y = 838;
},
{
smooth = 0;
x = 901;
y = 764;
},
{
segmentType = curve;
smooth = 1;
x = 670;
y = 764;
}
);
}
);
lib = {
};
name = R;
unicodes = (
);
width = 1363;
};
};
components = (
);
contours = (
);
lib = {
};
name = R;
unicodes = (
);
width = 1408;
};
}
{
color = 11;
glyphname = S;
kernLeft = S;
kernRight = S;
lastChange = "2022-04-17 21:23:00 +0000";
layers = (
{
anchors = (
{
name = bottom;
pos = (309,0);
},
{
name = top;
pos = (301,736);
}
);
layerId = "BD421374-7BB0-4447-A555-0F47AA5545D5";
shapes = (
{
closed = 1;
nodes = (
(53,80,l),
(114,25,o),
(211,-8,o),
(308,-8,cs,{
"Letterink-NibData" = {
AngleInDegrees = "90";
};
}),
(453,-8,o),
(549,69,o),
(549,184,cs),
(549,271,o),
(480,335,o),
(358.39,361.637,cs),
(326.254,368.603,o),
(294.153,374.946,o),
(262.298,381.656,cs),
(162,403,o),
(105,459,o),
(105,538,cs),
(105,646,o),
(181,712,o),
(306,712,cs),
(392,712,o),
(467,679,o),
(515,620,c),
(534,651,l),
(489,709,o),
(402,744,o),
(306,744,cs,{
"Letterink-NibData" = {
AngleInDegrees = "270";
};
}),
(164,744,o),
(69,662,o),
(69,538,cs,{
"Letterink-NibData" = {
AngleInDegrees = "180";
};
}),
(69,444,o),
(136,376,o),
(255.702,350.344,cs,{
"Letterink-NibData" = {
AngleInDegrees = "102.52881";
};
}),
(287.818,343.579,o),
(319.858,337.246,o),
(351.61,330.363,cs),
(455,308,o),
(513,255,o),
(513,184,cs,{
"Letterink-NibData" = {
AngleInDegrees = "180";
};
}),
(513,85,o),
(435,24,o),
(308,24,cs,{
"Letterink-NibData" = {
AngleInDegrees = "270";
};
}),
(214,24,o),
(129,55,o),
(72,109,c)
);
}
);
width = 596.29542;
},
{
anchors = (
{
name = bottom;
pos = (331,0);
},
{
name = top;
pos = (338,736);
}
);
layerId = "4D0470F8-723D-4610-9591-64877B13A03C";
shapes = (
{
closed = 1;
nodes = (
(43,69,l),
(99,20,o),
(209,-12,o),
(326,-12,cs,{
"Letterink-NibData" = {
AngleInDegrees = "90";
};
}),
(502,-12,o),
(624,83,o),
(624,219,cs),
(624,320,o),
(543,396,o),
(398.206,430.079,cs),
(398,430,o),
(368,437,o),
(315.405,449.033,cs),
(267,460,o),
(239,482,o),
(239,508,cs),
(239,562,o),
(281,593,o),
(353,593,cs),
(408,593,o),
(480,573,o),
(548,538,c),
(598,671,l),
(545,719,o),
(450,749,o),
(353,749,cs,{
"Letterink-NibData" = {
AngleInDegrees = "270";
};
}),
(177,749,o),
(55,650,o),
(55,508,cs,{
"Letterink-NibData" = {
AngleInDegrees = "180";
};
}),
(55,406,o),
(136,330,o),
(280.595,296.967,cs),
(333,285,o),
(364,278,o),
(363.794,277.921,cs),
(412,267,o),
(440,245,o),
(440,219,cs),
(440,172,o),
(398,144,o),
(326,144,cs),
(260,144,o),
(174,170,o),
(95,215,c)
);
}
);
width = 651.65675;
}
);
unicode = 83;
userData = {
anchors = (
);
b = {
};
com.typemytype.robofont.layerData = {
b = {
anchors = (
);
components = (
);
contours = (
);
lib = {
};
name = S;
unicodes = (
);
width = 1274;
};
};
components = (
);
contours = (
);
lib = {
};
name = S;
unicodes = (
);
width = 1317;
};
}
{
color = 11;
glyphname = T;
kernLeft = T;
kernRight = T;
lastChange = "2022-04-17 21:23:03 +0000";
layers = (
{
anchors = (
{
name = bottom;
pos = (291,0);
},
{
name = center;
pos = (291,374);
},
{
name = top;
pos = (291,736);
}
);
layerId = "BD421374-7BB0-4447-A555-0F47AA5545D5";
shapes = (
{
closed = 1;
nodes = (
(6,704,l),
(274,704,l,{
"Letterink-NibData" = {
AngleInDegrees = "180";
};
}),
(274,0,l),
(308,0,l),
(308,704,l,{
"Letterink-NibData" = {
AngleInDegrees = "90";
};
}),
(576,704,l),
(576,736,l),
(6,736,l)
);
}
);
width = 582.45693;
},
{
anchors = (
{
name = bottom;
pos = (323,0);
},
{
name = center;
pos = (322,374);
},
{
name = top;
pos = (322,736);
}
);
layerId = "4D0470F8-723D-4610-9591-64877B13A03C";
shapes = (
{
closed = 1;
nodes = (
(8,580,l),
(230,580,l),
(230,0,l),
(414,0,l),
(414,580,l),
(636,580,l),
(636,736,l,{
"Letterink-NibData" = {
AngleInDegrees = "270";
};
}),
(8,736,l)
);
}
);
width = 644;
}
);
unicode = 84;
userData = {
anchors = (
);
b = {
};
com.typemytype.robofont.layerData = {
b = {
anchors = (
);
components = (
);
contours = (
{
points = (
{
segmentType = curve;
smooth = 1;
x = 581;
y = 0;
},
{
segmentType = line;
smooth = 1;
x = 1350;
y = 0;
},
{
smooth = 0;
x = 1399;
y = 0;
},
{
smooth = 0;
x = 1423;
y = 34;
},
{
segmentType = curve;
smooth = 1;
x = 1423;
y = 71;
},
{
smooth = 0;
x = 1423;
y = 107;
},
{
smooth = 0;
x = 1399;
y = 141;
},
{
segmentType = curve;
smooth = 1;
x = 1350;
y = 141;
},
{
segmentType = line;
smooth = 0;
x = 671;
y = 141;
},
{
segmentType = line;
smooth = 0;
x = 671;
y = 665;
},
{
segmentType = line;
smooth = 1;
x = 1290;
y = 665;
},
{
smooth = 0;
x = 1339;
y = 665;
},
{
smooth = 0;
x = 1364;
y = 698;
},
{
segmentType = curve;
smooth = 1;
x = 1364;
y = 734;
},
{
smooth = 0;
x = 1364;
y = 770;
},
{
smooth = 0;
x = 1341;
y = 803;
},
{
segmentType = curve;
smooth = 1;
x = 1290;
y = 803;
},
{
segmentType = line;
smooth = 0;
x = 671;
y = 803;
},
{
segmentType = line;
smooth = 0;
x = 671;
y = 1285;
},
{
segmentType = line;
smooth = 1;
x = 1322;
y = 1285;
},
{
smooth = 0;
x = 1371;
y = 1285;
},
{
smooth = 0;
x = 1395;
y = 1319;
},
{
segmentType = curve;
smooth = 1;
x = 1395;
y = 1356;
},
{
smooth = 0;
x = 1395;
y = 1392;
},
{
smooth = 0;
x = 1371;
y = 1426;
},
{
segmentType = curve;
smooth = 1;
x = 1322;
y = 1426;
},
{
segmentType = line;
smooth = 1;
x = 576;
y = 1426;
},
{
smooth = 0;
x = 528;
y = 1426;
},
{
smooth = 0;
x = 493;
y = 1383;
},
{
segmentType = curve;
smooth = 1;
x = 493;
y = 1340;
},
{
segmentType = line;
smooth = 1;
x = 493;
y = 86;
},
{
smooth = 0;
x = 493;
y = 41;
},
{
smooth = 0;
x = 537;
y = 0;
}
);
}
);
lib = {
};
name = T;
unicodes = (
);
width = 1158;
};
};
components = (
);
contours = (
);
lib = {
};
name = T;
unicodes = (
);
width = 1199;
};
}
{
color = 11;
glyphname = U;
kernLeft = U;
kernRight = U;
lastChange = "2022-04-17 21:23:06 +0000";
layers = (
{
anchors = (
{
name = bottom;
pos = (359,0);
},
{
name = ogonek;
pos = (415,0);
},
{
name = top;
pos = (359,736);
},
{
name = topright;
pos = (587,736);
}
);
layerId = "BD421374-7BB0-4447-A555-0F47AA5545D5";
shapes = (
{
closed = 1;
nodes = (
(98,736,l),
(98,274,ls),
(98,99,o),
(199,-8,o),
(363,-8,cs),
(527,-8,o),
(628,99,o),
(628,274,cs),
(628,736,l),
(594,736,l),
(594,274,ls),
(594,114,o),
(511,24,o),
(363,24,cs),
(215,24,o),
(132,114,o),
(132,274,cs),
(132,736,l)
);
}
);
width = 726;
},
{
anchors = (
{
name = bottom;
pos = (375,0);
},
{
name = ogonek;
pos = (433,0);
},
{
name = top;
pos = (375,736);
},
{
name = topright;
pos = (561,736);
}
);
layerId = "4D0470F8-723D-4610-9591-64877B13A03C";
shapes = (
{
closed = 1;
nodes = (
(66,736,l),
(66,307,ls),
(66,112,o),
(188,-12,o),
(380,-12,cs),
(572,-12,o),
(694,112,o),
(694,307,cs),
(694,736,l),
(510,736,l),
(510,307,ls),
(510,204,o),
(462,144,o),
(380,144,cs),
(298,144,o),
(250,204,o),
(250,307,cs),
(250,736,l)
);
}
);
width = 760;
}
);
unicode = 85;
userData = {
anchors = (
);
b = {
};
com.typemytype.robofont.layerData = {
b = {
anchors = (
);
components = (
);
contours = (
);
lib = {
};
name = U;
unicodes = (
);
width = 1490;
};
};
components = (
);
contours = (
);
lib = {
};
name = U;
unicodes = (
);
width = 1513;
};
}
{
color = 11;
glyphname = V;
kernLeft = V;
kernRight = V;
lastChange = "2022-04-17 21:23:09 +0000";
layers = (
{
anchors = (
{
name = bottom;
pos = (316,0);
},
{
name = top;
pos = (315,736);
}
);
layerId = "BD421374-7BB0-4447-A555-0F47AA5545D5";
shapes = (
{
closed = 1;
nodes = (
(298,0,l),
(332,0,l),
(619,736,l),
(582,736,l),
(310,33,l),
(320,33,l),
(48,736,l,{
"Letterink-NibData" = {
AngleInDegrees = "360";
};
}),
(11,736,l)
);
}
);
width = 630;
},
{
anchors = (
{
name = bottom;
pos = (392,0);
},
{
name = top;
pos = (391,736);
}
);
layerId = "4D0470F8-723D-4610-9591-64877B13A03C";
shapes = (
{
closed = 1;
nodes = (
(312,0,l),
(469,0,l),
(779,736,l,{
"Letterink-NibData" = {
AngleInDegrees = "360";
};
}),
(591,736,l),
(345,107,l),
(437,107,l),
(191,736,l),
(3,736,l)
);
}
);
width = 782;
}
);
unicode = 86;
userData = {
anchors = (
);
b = {
};
com.typemytype.robofont.guides = (
);
com.typemytype.robofont.layerData = {
b = {
anchors = (
);
components = (
);
contours = (
{
points = (
{
segmentType = curve;
smooth = 1;
x = 644;
y = "-5";
},
{
smooth = 0;
x = 712;
y = "-5";
},
{
smooth = 0;
x = 764;
y = 38;
},
{
segmentType = curve;
smooth = 1;
x = 793;
y = 117;
},
{
segmentType = line;
smooth = 1;
x = 1243;
y = 1324;
},
{
smooth = 0;
x = 1247;
y = 1335;
},
{
smooth = 0;
x = 1248;
y = 1342;
},
{
segmentType = curve;
smooth = 1;
x = 1248;
y = 1351;
},
{
smooth = 0;
x = 1248;
y = 1395;
},
{
smooth = 0;
x = 1203;
y = 1427;
},
{
segmentType = curve;
smooth = 1;
x = 1160;
y = 1427;
},
{
smooth = 0;
x = 1125;
y = 1427;
},
{
smooth = 0;
x = 1090;
y = 1408;
},
{
segmentType = curve;
smooth = 1;
x = 1076;
y = 1369;
},
{
segmentType = line;
smooth = 0;
x = 651;
y = 192;
},
{
segmentType = line;
smooth = 0;
x = 650;
y = 190;
},
{
segmentType = line;
smooth = 1;
x = 214;
y = 1370;
},
{
smooth = 0;
x = 200;
y = 1407;
},
{
smooth = 0;
x = 170;
y = 1427;
},
{
segmentType = curve;
smooth = 1;
x = 135;
y = 1427;
},
{
smooth = 0;
x = 90;
y = 1427;
},
{
smooth = 0;
x = 43;
y = 1392;
},
{
segmentType = curve;
smooth = 1;
x = 43;
y = 1344;
},
{
smooth = 0;
x = 43;
y = 1336;
},
{
smooth = 0;
x = 44;
y = 1326;
},
{
segmentType = curve;
smooth = 0;
x = 48;
y = 1318;
},
{
segmentType = line;
smooth = 1;
x = 501;
y = 117;
},
{
smooth = 0;
x = 532;
y = 35;
},
{
smooth = 0;
x = 581;
y = "-5";
}
);
}
);
lib = {
};
name = V;
unicodes = (
);
width = 1289;
};
};
components = (
);
contours = (
);
lib = {
};
name = V;
unicodes = (
);
width = 1365;
};
}
{
color = 11;
glyphname = W;
kernLeft = V;
kernRight = V;
lastChange = "2022-04-17 21:23:12 +0000";
layers = (
{
anchors = (
{
name = bottom;
pos = (476,0);
},
{
name = top;
pos = (475,736);
}
);
layerId = "BD421374-7BB0-4447-A555-0F47AA5545D5";
shapes = (
{
closed = 1;
nodes = (
(12,736,l),
(228,0,l),
(261,0,l),
(486,715,l),
(464,715,l),
(689,0,l,{
"Letterink-NibData" = {
AngleInDegrees = "90";
};
}),
(722,0,l),
(938,736,l),
(903,736,l),
(695.638,21.473,l),
(716.264,21.798,l),
(491,736,l),
(459,736,l),
(234.736,21.798,l),
(254,21,l),
(47,736,l)
);
}
);
width = 950.35;
},
{
anchors = (
{
name = bottom;
pos = (520,0);
},
{
name = top;
pos = (520,736);
}
);
layerId = "4D0470F8-723D-4610-9591-64877B13A03C";
shapes = (
{
closed = 1;
nodes = (
(9,736,l),
(238,0,l),
(402,0,l),
(583.023,636.657,l),
(462.977,636.657,l),
(644,0,l),
(808,0,l,{
"Letterink-NibData" = {
AngleInDegrees = "16.92752";
};
}),
(1037,736,l),
(856,736,l),
(676.212,100.155,l),
(778.023,99.343,l),
(597,736,l),
(449,736,l),
(267.977,99.343,l),
(369.788,100.155,l),
(190,736,l)
);
}
);
width = 1046;
}
);
unicode = 87;
userData = {
anchors = (
);
b = {
};
com.typemytype.robofont.layerData = {
b = {
anchors = (
);
components = (
);
contours = (
);
lib = {
};
name = W;
unicodes = (
);
width = 2126;
};
};
components = (
);
contours = (
);
lib = {
};
name = W;
unicodes = (
);
width = 2070;
};
}
{
color = 11;
glyphname = X;
kernLeft = X;
kernRight = X;
lastChange = "2022-04-17 21:23:16 +0000";
layers = (
{
anchors = (
{
name = bottom;
pos = (314,0);
},
{
name = top;
pos = (314,736);
}
);
layerId = "BD421374-7BB0-4447-A555-0F47AA5545D5";
shapes = (
{
closed = 1;
nodes = (
(69,0,l,{
"Letterink-NibData" = {
AngleInDegrees = "35.05571";
};
}),
(326.976,358.639,l),
(601,736,l),
(559,736,l),
(301.024,377.361,l),
(27,0,l)
);
},
{
closed = 1;
nodes = (
(301,359,l),
(559,0,l),
(601,0,l),
(327,377,l),
(69,736,l,{
"Letterink-NibData" = {
AngleInDegrees = "35.05571";
};
}),
(27,736,l)
);
}
);
width = 628;
},
{
anchors = (
{
name = bottom;
pos = (351,0);
},
{
name = top;
pos = (350,736);
}
);
layerId = "4D0470F8-723D-4610-9591-64877B13A03C";
shapes = (
{
closed = 1;
nodes = (
(194,0,l),
(413,323,l),
(720,736,l),
(504,736,l,{
"Letterink-NibData" = {
AngleInDegrees = "213.93243";
};
}),
(285,413,l),
(-22,0,l)
);
},
{
closed = 1;
nodes = (
(285,323,l),
(504,0,l,{
"Letterink-NibData" = {
AngleInDegrees = "213.93243";
};
}),
(720,0,l),
(413,413,l),
(194,736,l),
(-22,736,l)
);
}
);
width = 698.20136;
}
);
unicode = 88;
userData = {
anchors = (
);
b = {
};
com.typemytype.robofont.layerData = {
b = {
anchors = (
);
components = (
);
contours = (
{
points = (
{
segmentType = curve;
smooth = 1;
x = 151;
y = 0;
},
{
smooth = 0;
x = 176;
y = 0;
},
{
smooth = 0;
x = 201;
y = 12;
},
{
segmentType = curve;
smooth = 1;
x = 222;
y = 41;
},
{
segmentType = line;
smooth = 0;
x = 641;
y = 616;
},
{
segmentType = line;
smooth = 0;
x = 746;
y = 734;
},
{
segmentType = line;
smooth = 1;
x = 1175;
y = 1310;
},
{
smooth = 0;
x = 1186;
y = 1325;
},
{
smooth = 0;
x = 1190;
y = 1338;
},
{
segmentType = curve;
smooth = 1;
x = 1190;
y = 1353;
},
{
smooth = 0;
x = 1190;
y = 1393;
},
{
smooth = 0;
x = 1153;
y = 1426;
},
{
segmentType = curve;
smooth = 1;
x = 1110;
y = 1426;
},
{
smooth = 0;
x = 1083;
y = 1426;
},
{
smooth = 0;
x = 1058;
y = 1414;
},
{
segmentType = curve;
smooth = 1;
x = 1037;
y = 1385;
},
{
segmentType = line;
smooth = 0;
x = 648;
y = 844;
},
{
segmentType = line;
smooth = 0;
x = 542;
y = 732;
},
{
segmentType = line;
smooth = 1;
x = 84;
y = 121;
},
{
smooth = 0;
x = 73;
y = 106;
},
{
smooth = 0;
x = 68;
y = 91;
},
{
segmentType = curve;
smooth = 1;
x = 68;
y = 76;
},
{
smooth = 0;
x = 68;
y = 35;
},
{
smooth = 0;
x = 108;
y = 0;
}
);
},
{
points = (
{
segmentType = curve;
smooth = 1;
x = 1104;
y = 0;
},
{
smooth = 0;
x = 1151;
y = 0;
},
{
smooth = 0;
x = 1200;
y = 40;
},
{
segmentType = curve;
smooth = 1;
x = 1200;
y = 85;
},
{
smooth = 0;
x = 1200;
y = 98;
},
{
smooth = 0;
x = 1195;
y = 113;
},
{
segmentType = curve;
smooth = 0;
x = 1186;
y = 126;
},
{
segmentType = line;
smooth = 0;
x = 272;
y = 1385;
},
{
smooth = 0;
x = 252;
y = 1414;
},
{
smooth = 0;
x = 225;
y = 1426;
},
{
segmentType = curve;
smooth = 1;
x = 197;
y = 1426;
},
{
smooth = 0;
x = 149;
y = 1426;
},
{
smooth = 0;
x = 100;
y = 1388;
},
{
segmentType = curve;
smooth = 1;
x = 100;
y = 1343;
},
{
smooth = 0;
x = 100;
y = 1328;
},
{
smooth = 0;
x = 105;
y = 1315;
},
{
segmentType = curve;
smooth = 0;
x = 114;
y = 1303;
},
{
segmentType = line;
smooth = 0;
x = 1033;
y = 40;
},
{
smooth = 0;
x = 1052;
y = 13;
},
{
smooth = 0;
x = 1076;
y = 0;
}
);
}
);
lib = {
};
name = X;
unicodes = (
);
width = 1274;
};
};
components = (
);
contours = (
);
lib = {
};
name = X;
unicodes = (
);
width = 1322;
};
}
{
color = 11;
glyphname = Y;
kernLeft = Y;
kernRight = Y;
lastChange = "2022-04-17 21:23:19 +0000";
layers = (
{
anchors = (
{
name = bottom;
pos = (286,0);
},
{
name = top;
pos = (286,736);
},
{
name = topleft;
pos = (19,736);
}
);
layerId = "BD421374-7BB0-4447-A555-0F47AA5545D5";
shapes = (
{
closed = 1;
nodes = (
(2,736,l),
(269,359,l),
(269,0,l),
(303,0,l),
(303,358.672,l),
(570,736,l),
(528,736,l),
(286,390,l),
(44,736,l,{
"Letterink-NibData" = {
AngleInDegrees = "270";
};
})
);
}
);
width = 572.25034;
},
{
anchors = (
{
name = bottom;
pos = (324,0);
},
{
name = top;
pos = (322,736);
},
{
name = topleft;
pos = (18,736);
}
);
layerId = "4D0470F8-723D-4610-9591-64877B13A03C";
shapes = (
{
closed = 1;
nodes = (
(-43,736,l),
(231,341.422,l),
(231,0,l,{
"Letterink-NibData" = {
AngleInDegrees = "90";
};
}),
(415,0,l),
(415,341,l),
(689,736,l),
(478,736,l),
(323,488,l),
(168,736,l)
);
}
);
width = 646;
}
);
unicode = 89;
userData = {
anchors = (
);
b = {
};
com.typemytype.robofont.guides = (
);
com.typemytype.robofont.layerData = {
b = {
anchors = (
);
components = (
);
contours = (
{
points = (
{
segmentType = curve;
smooth = 1;
x = 641;
y = 0;
},
{
smooth = 0;
x = 685;
y = 0;
},
{
smooth = 0;
x = 730;
y = 29;
},
{
segmentType = curve;
smooth = 1;
x = 730;
y = 85;
},
{
segmentType = line;
smooth = 0;
x = 730;
y = 1285;
},
{
segmentType = line;
smooth = 1;
x = 1115;
y = 1285;
},
{
smooth = 0;
x = 1164;
y = 1285;
},
{
smooth = 0;
x = 1190;
y = 1319;
},
{
segmentType = curve;
smooth = 1;
x = 1190;
y = 1355;
},
{
smooth = 0;
x = 1190;
y = 1392;
},
{
smooth = 0;
x = 1166;
y = 1426;
},
{
segmentType = curve;
smooth = 1;
x = 1115;
y = 1426;
},
{
segmentType = line;
smooth = 1;
x = 160;
y = 1426;
},
{
smooth = 0;
x = 111;
y = 1426;
},
{
smooth = 0;
x = 86;
y = 1392;
},
{
segmentType = curve;
smooth = 1;
x = 86;
y = 1355;
},
{
smooth = 0;
x = 86;
y = 1319;
},
{
smooth = 0;
x = 111;
y = 1285;
},
{
segmentType = curve;
smooth = 1;
x = 160;
y = 1285;
},
{
segmentType = line;
smooth = 0;
x = 552;
y = 1285;
},
{
segmentType = line;
smooth = 1;
x = 552;
y = 85;
},
{
smooth = 0;
x = 552;
y = 29;
},
{
smooth = 0;
x = 596;
y = 0;
}
);
}
);
lib = {
};
name = Y;
unicodes = (
);
width = 1278;
};
};
components = (
);
contours = (
);
lib = {
};
name = Y;
unicodes = (
);
width = 1321;
};
}
{
color = 11;
glyphname = Z;
kernLeft = Z;
kernRight = Z;
lastChange = "2022-04-17 21:23:23 +0000";
layers = (
{
anchors = (
{
name = bottom;
pos = (300,0);
},
{
name = top;
pos = (299,736);
}
);
layerId = "BD421374-7BB0-4447-A555-0F47AA5545D5";
shapes = (
{
closed = 1;
nodes = (
(50,704,l),
(518,704,l),
(504.581,724.714,l,{
"Letterink-NibData" = {
AngleInDegrees = "212.87134";
};
}),
(50,25,l,{
"Letterink-NibData" = {
AngleInDegrees = "180";
};
}),
(50,0,l),
(548,0,l),
(548,32,l),
(66,32,l),
(79.419,11.286,l),
(534,711,l),
(534,736,l),
(50,736,l)
);
}
);
width = 571.64742;
},
{
anchors = (
{
name = bottom;
pos = (321,0);
},
{
name = top;
pos = (321,736);
}
);
layerId = "4D0470F8-723D-4610-9591-64877B13A03C";
shapes = (
{
closed = 1;
nodes = (
(46,580,l),
(510,580,l),
(447.542,672.722,l),
(46,136,l),
(46,0,l),
(604,0,l),
(604,156,l),
(124,156,l),
(186.458,63.278,l),
(588,600,l),
(588,736,l,{
"Letterink-NibData" = {
AngleInDegrees = "270";
};
}),
(46,736,l)
);
}
);
width = 624;
}
);
unicode = 90;
userData = {
anchors = (
);
b = {
};
com.typemytype.robofont.layerData = {
b = {
anchors = (
);
components = (
);
contours = (
{
points = (
{
segmentType = curve;
smooth = 1;
x = 266;
y = 0;
},
{
segmentType = line;
smooth = 1;
x = 1035;
y = 0;
},
{
smooth = 0;
x = 1084;
y = 0;
},
{
smooth = 0;
x = 1108;
y = 34;
},
{
segmentType = curve;
smooth = 1;
x = 1108;
y = 71;
},
{
smooth = 0;
x = 1108;
y = 107;
},
{
smooth = 0;
x = 1084;
y = 141;
},
{
segmentType = curve;
smooth = 1;
x = 1035;
y = 141;
},
{
segmentType = line;
smooth = 0;
x = 356;
y = 141;
},
{
segmentType = line;
smooth = 0;
x = 356;
y = 665;
},
{
segmentType = line;
smooth = 1;
x = 975;
y = 665;
},
{
smooth = 0;
x = 1024;
y = 665;
},
{
smooth = 0;
x = 1049;
y = 698;
},
{
segmentType = curve;
smooth = 1;
x = 1049;
y = 734;
},
{
smooth = 0;
x = 1049;
y = 770;
},
{
smooth = 0;
x = 1026;
y = 803;
},
{
segmentType = curve;
smooth = 1;
x = 975;
y = 803;
},
{
segmentType = line;
smooth = 0;
x = 356;
y = 803;
},
{
segmentType = line;
smooth = 0;
x = 356;
y = 1285;
},
{
segmentType = line;
smooth = 1;
x = 1007;
y = 1285;
},
{
smooth = 0;
x = 1056;
y = 1285;
},
{
smooth = 0;
x = 1080;
y = 1319;
},
{
segmentType = curve;
smooth = 1;
x = 1080;
y = 1356;
},
{
smooth = 0;
x = 1080;
y = 1392;
},
{
smooth = 0;
x = 1056;
y = 1426;
},
{
segmentType = curve;
smooth = 1;
x = 1007;
y = 1426;
},
{
segmentType = line;
smooth = 1;
x = 261;
y = 1426;
},
{
smooth = 0;
x = 213;
y = 1426;
},
{
smooth = 0;
x = 178;
y = 1383;
},
{
segmentType = curve;
smooth = 1;
x = 178;
y = 1340;
},
{
segmentType = line;
smooth = 1;
x = 178;
y = 86;
},
{
smooth = 0;
x = 178;
y = 41;
},
{
smooth = 0;
x = 222;
y = 0;
}
);
}
);
lib = {
};
name = Z;
unicodes = (
);
width = 1165;
};
};
components = (
);
contours = (
);
lib = {
};
name = Z;
unicodes = (
);
width = 1222;
};
}
{
color = 11;
glyphname = bracketleft;
kernLeft = parenleft;
kernRight = braceleft;
lastChange = "2022-01-31 14:04:10 +0000";
layers = (
{
layerId = "BD421374-7BB0-4447-A555-0F47AA5545D5";
shapes = (
{
closed = 1;
nodes = (
(269.994,-94,l),
(270,-62,l),
(148,-62,l),
(148,799,l),
(270,799,l),
(269.994,830,l),
(113,830,l),
(113,-94,l)
);
}
);
width = 275.25289;
},
{
layerId = "4D0470F8-723D-4610-9591-64877B13A03C";
shapes = (
{
closed = 1;
nodes = (
(385,-94,l),
(385,39,l),
(283,39,l),
(283,697,l),
(385,697,l),
(385,830,l),
(102,830,l),
(102,-94,l)
);
}
);
width = 403.91594;
},
{
associatedMasterId = "BD421374-7BB0-4447-A555-0F47AA5545D5";
layerId = "81293E3F-4823-4637-BC73-D481B65F340E";
name = Thin;
shapes = (
{
closed = 1;
nodes = (
(269.994,-94,l),
(270,-62,l),
(148,-62,l),
(148,799,l),
(270,799,l),
(269.994,830,l),
(113,830,l),
(113,-94,l)
);
}
);
width = 275.25289;
},
{
associatedMasterId = "BD421374-7BB0-4447-A555-0F47AA5545D5";
layerId = "570228A7-C191-4E7C-B24B-CD9498E1B2AE";
name = Black;
shapes = (
{
closed = 1;
nodes = (
(385,-94,l),
(385,39,l),
(283,39,l),
(283,697,l),
(385,697,l),
(385,830,l),
(102,830,l),
(102,-94,l)
);
}
);
width = 403.91594;
}
);
unicode = 91;
}
{
color = 11;
glyphname = backslash;
kernLeft = backslash;
kernRight = backslash;
lastChange = "2022-01-31 14:04:10 +0000";
layers = (
{
layerId = "BD421374-7BB0-4447-A555-0F47AA5545D5";
shapes = (
{
closed = 1;
nodes = (
(268,-47,l),
(16,776,l),
(-17,766,l),
(236,-55,l)
);
}
);
width = 252.01343;
},
{
layerId = "4D0470F8-723D-4610-9591-64877B13A03C";
shapes = (
{
closed = 1;
nodes = (
(371,-46,l),
(112,802,l),
(-19,765,l),
(240,-85,l)
);
}
);
width = 352.0231;
},
{
associatedMasterId = "BD421374-7BB0-4447-A555-0F47AA5545D5";
layerId = "81293E3F-4823-4637-BC73-D481B65F340E";
name = Thin;
shapes = (
{
closed = 1;
nodes = (
(268,-47,l),
(16,776,l),
(-17,766,l),
(236,-55,l)
);
}
);
width = 252.01343;
},
{
associatedMasterId = "BD421374-7BB0-4447-A555-0F47AA5545D5";
layerId = "570228A7-C191-4E7C-B24B-CD9498E1B2AE";
name = Black;
shapes = (
{
closed = 1;
nodes = (
(371,-46,l),
(112,802,l),
(-19,765,l),
(240,-85,l)
);
}
);
width = 352.0231;
}
);
unicode = 92;
}
{
color = 11;
glyphname = bracketright;
kernLeft = braceright;
kernRight = parenright;
lastChange = "2022-01-31 14:04:10 +0000";
layers = (
{
layerId = "BD421374-7BB0-4447-A555-0F47AA5545D5";
shapes = (
{
closed = 1;
nodes = (
(162,-94,l),
(162,830,l),
(5,830,l),
(5,799,l),
(129,799,l),
(129,-62,l),
(5,-62,l),
(5,-94,l)
);
}
);
width = 275.25289;
},
{
layerId = "4D0470F8-723D-4610-9591-64877B13A03C";
shapes = (
{
closed = 1;
nodes = (
(300,-94,l),
(300,830,l),
(18,830,l),
(18,697,l),
(120,697,l),
(120,39,l),
(18,39,l),
(18,-94,l)
);
}
);
width = 403.91594;
},
{
associatedMasterId = "BD421374-7BB0-4447-A555-0F47AA5545D5";
layerId = "81293E3F-4823-4637-BC73-D481B65F340E";
name = Thin;
shapes = (
{
closed = 1;
nodes = (
(162,-94,l),
(162,830,l),
(5,830,l),
(5,799,l),
(129,799,l),
(129,-62,l),
(5,-62,l),
(5,-94,l)
);
}
);
width = 275.25289;
},
{
associatedMasterId = "BD421374-7BB0-4447-A555-0F47AA5545D5";
layerId = "570228A7-C191-4E7C-B24B-CD9498E1B2AE";
name = Black;
shapes = (
{
closed = 1;
nodes = (
(300,-94,l),
(300,830,l),
(18,830,l),
(18,697,l),
(120,697,l),
(120,39,l),
(18,39,l),
(18,-94,l)
);
}
);
width = 403.91594;
}
);
unicode = 93;
}
{
color = 11;
glyphname = asciicircum;
lastChange = "2022-01-31 14:04:10 +0000";
layers = (
{
layerId = "BD421374-7BB0-4447-A555-0F47AA5545D5";
shapes = (
{
closed = 1;
nodes = (
(222,706,l),
(218,706,l),
(369,428,l),
(403,428,l),
(236,736,l),
(204,736,l),
(37,428,l),
(71,428,l)
);
}
);
width = 440;
},
{
layerId = "4D0470F8-723D-4610-9591-64877B13A03C";
shapes = (
{
closed = 1;
nodes = (
(258,602,l),
(220,602,l),
(307,414,l),
(455,414,l),
(305,736,l),
(173,736,l),
(23,414,l),
(171,414,l)
);
}
);
width = 478;
},
{
associatedMasterId = "4D0470F8-723D-4610-9591-64877B13A03C";
layerId = "6D4E3CF7-1F19-4977-8353-6ADA4FC7950D";
name = "21년 12월 19일 02:30";
shapes = (
{
closed = 1;
nodes = (
(169,233,l),
(343,692,l),
(256,692,l),
(430,233,l),
(564,233,l),
(367,736,l),
(234,736,l),
(36,233,l)
);
}
);
width = 599.5;
},
{
associatedMasterId = "BD421374-7BB0-4447-A555-0F47AA5545D5";
layerId = "C3721131-ABD8-4C35-91CF-9810BE40B775";
name = "21년 12월 19일 02:34";
shapes = (
{
closed = 1;
nodes = (
(85,234,l),
(309,707,l),
(291,707,l),
(514,234,l),
(553,234,l),
(315,736,l),
(284,736,l),
(46,234,l)
);
}
);
width = 599.5;
},
{
associatedMasterId = "BD421374-7BB0-4447-A555-0F47AA5545D5";
layerId = "81293E3F-4823-4637-BC73-D481B65F340E";
name = Thin;
shapes = (
{
closed = 1;
nodes = (
(222,706,l),
(218,706,l),
(369,428,l),
(403,428,l),
(236,736,l),
(204,736,l),
(37,428,l),
(71,428,l)
);
}
);
width = 440;
},
{
associatedMasterId = "BD421374-7BB0-4447-A555-0F47AA5545D5";
layerId = "27AEB166-1B4E-4C76-A41E-8E31B42E5DD6";
name = Thin;
shapes = (
{
closed = 1;
nodes = (
(85,234,l),
(309,707,l),
(291,707,l),
(514,234,l),
(553,234,l),
(315,736,l),
(284,736,l),
(46,234,l)
);
}
);
width = 599.5;
},
{
associatedMasterId = "BD421374-7BB0-4447-A555-0F47AA5545D5";
layerId = "570228A7-C191-4E7C-B24B-CD9498E1B2AE";
name = Black;
shapes = (
{
closed = 1;
nodes = (
(258,602,l),
(220,602,l),
(307,414,l),
(455,414,l),
(305,736,l),
(173,736,l),
(23,414,l),
(171,414,l)
);
}
);
width = 478;
},
{
associatedMasterId = "BD421374-7BB0-4447-A555-0F47AA5545D5";
layerId = "DA07F5A0-DBB6-4A33-BCC2-43F043E6DD81";
name = Black;
shapes = (
{
closed = 1;
nodes = (
(169,233,l),
(343,692,l),
(256,692,l),
(430,233,l),
(564,233,l),
(367,736,l),
(234,736,l),
(36,233,l)
);
}
);
width = 599.5;
}
);
unicode = 94;
}
{
color = 11;
glyphname = a;
kernLeft = a;
kernRight = n;
lastChange = "2022-04-17 21:23:31 +0000";
layers = (
{
anchors = (
{
name = bottom;
pos = (295,0);
},
{
name = ogonek;
pos = (484,0);
},
{
name = top;
pos = (298,505);
}
);
layerId = "BD421374-7BB0-4447-A555-0F47AA5545D5";
shapes = (
{
closed = 1;
nodes = (
(363,-8,o),
(435,49,o),
(459,133,c),
(444,133,l),
(444,0,l),
(478,0,l),
(478,377,ls),
(478,500,o),
(420,560,o),
(300,560,cs),
(227,560,o),
(152,537,o),
(98,498,c),
(117,467,l),
(175,510,o),
(231,528,o),
(303,528,cs),
(401,528,o),
(444,481,o),
(444,374,cs),
(444,221,ls),
(444,106,o),
(369,24,o),
(264,24,cs),
(173,24,o),
(112,77,o),
(112,158,cs),
(112,246,o),
(165,276,o),
(396,276,cs),
(457,276,l),
(457,308,l),
(395,308,ls),
(145,308,o),
(76,269,o),
(76,157,cs),
(76,61,o),
(155,-8,o),
(263,-8,cs)
);
}
);
width = 577.76046;
},
{
anchors = (
{
name = bottom;
pos = (317,0);
},
{
name = ogonek;
pos = (522,0);
},
{
name = top;
pos = (321,505);
}
);
layerId = "4D0470F8-723D-4610-9591-64877B13A03C";
shapes = (
{
closed = 1;
nodes = (
(332,-12,o),
(392,33,o),
(407,108,c),
(398,108,l),
(398,0,l),
(570,0,l),
(570,330,ls),
(570,487,o),
(485,563,o),
(310,563,cs),
(219,563,o),
(113,535,o),
(55,496,c),
(103,371,l),
(164,407,o),
(233,427,o),
(300,427,cs),
(369,427,o),
(396,406,o),
(396,352,cs),
(396,212,ls),
(396,153,o),
(354,114,o),
(289,114,cs),
(241,114,o),
(212,136,o),
(212,174,cs),
(212,219,o),
(255,239,o),
(353,239,cs),
(416,239,l),
(416,330,l),
(352,330,ls),
(124,330,o),
(40,285,o),
(40,170,cs),
(40,64,o),
(127,-12,o),
(248,-12,cs)
);
}
);
width = 632;
}
);
unicode = 97;
userData = {
anchors = (
);
b = {
};
com.typemytype.robofont.layerData = {
b = {
anchors = (
);
components = (
);
contours = (
);
lib = {
};
name = a;
unicodes = (
);
width = 1040;
};
};
components = (
);
contours = (
);
lib = {
};
name = a;
unicodes = (
);
width = 1101;
};
}
{
color = 11;
glyphname = b;
kernLeft = h;
kernRight = o;
lastChange = "2022-04-17 21:23:34 +0000";
layers = (
{
anchors = (
{
name = bottom;
pos = (353,0);
},
{
name = top;
pos = (339,736);
}
);
layerId = "BD421374-7BB0-4447-A555-0F47AA5545D5";
shapes = (
{
closed = 1;
nodes = (
(487,-8,o),
(578,97,o),
(578,276,cs),
(578,455,o),
(487,560,o),
(334,560,cs),
(225,560,o),
(145,501,o),
(119,401,c),
(134,401,l),
(134,736,l),
(100,736,l),
(100,0,l),
(134,0,l),
(134,151,l),
(119,151,l),
(146,51,o),
(226,-8,o),
(334,-8,cs)
);
},
{
closed = 1;
nodes = (
(210,24,o),
(134,118,o),
(134,276,cs),
(134,434,o),
(210,528,o),
(338,528,cs),
(466,528,o),
(542,434,o),
(542,276,cs),
(542,118,o),
(466,24,o),
(338,24,cs)
);
}
);
width = 640.44665;
},
{
anchors = (
{
name = bottom;
pos = (343,0);
},
{
name = top;
pos = (359,736);
}
);
layerId = "4D0470F8-723D-4610-9591-64877B13A03C";
shapes = (
{
closed = 1;
nodes = (
(561,-12,o),
(656,102,o),
(656,276,cs),
(656,450,o),
(561,564,o),
(416,564,cs),
(332,564,o),
(259,520,o),
(232,453,c),
(246,456,l),
(246,736,l),
(62,736,l),
(62,0,l),
(246,0,l),
(246,99,l),
(232,99,l),
(257,32,o),
(330,-12,o),
(416,-12,cs)
);
},
{
closed = 1;
nodes = (
(283,127,o),
(246,176,o),
(246,276,cs),
(246,377,o),
(283,425,o),
(359,425,cs),
(435,425,o),
(472,377,o),
(472,276,cs),
(472,176,o),
(435,127,o),
(359,127,cs)
);
}
);
width = 692;
}
);
unicode = 98;
userData = {
anchors = (
);
b = {
};
com.typemytype.robofont.layerData = {
b = {
anchors = (
);
components = (
);
contours = (
{
points = (
{
segmentType = curve;
smooth = 1;
x = 238;
y = 1425;
},
{
smooth = 0;
x = 198;
y = 1425;
},
{
smooth = 0;
x = 158;
y = 1400;
},
{
segmentType = curve;
smooth = 1;
x = 158;
y = 1351;
},
{
segmentType = line;
smooth = 1;
x = 158;
y = 76;
},
{
smooth = 0;
x = 158;
y = 27;
},
{
smooth = 0;
x = 197;
y = 3;
},
{
segmentType = curve;
smooth = 1;
x = 237;
y = 3;
},
{
smooth = 0;
x = 297;
y = 3;
},
{
smooth = 0;
x = 318;
y = 38;
},
{
segmentType = curve;
smooth = 1;
x = 318;
y = 76;
},
{
segmentType = line;
smooth = 0;
x = 318;
y = 183;
},
{
smooth = 0;
x = 384;
y = 46;
},
{
smooth = 0;
x = 516;
y = "-20";
},
{
segmentType = curve;
smooth = 1;
x = 666;
y = "-20";
},
{
smooth = 0;
x = 957;
y = "-20";
},
{
smooth = 0;
x = 1095;
y = 225;
},
{
segmentType = curve;
smooth = 1;
x = 1095;
y = 502;
},
{
smooth = 0;
x = 1095;
y = 777;
},
{
smooth = 0;
x = 939;
y = 1013;
},
{
segmentType = curve;
smooth = 1;
x = 650;
y = 1013;
},
{
smooth = 0;
x = 503;
y = 1013;
},
{
smooth = 0;
x = 376;
y = 942;
},
{
segmentType = curve;
smooth = 0;
x = 318;
y = 814;
},
{
segmentType = line;
smooth = 1;
x = 318;
y = 1351;
},
{
smooth = 0;
x = 318;
y = 1400;
},
{
smooth = 0;
x = 278;
y = 1425;
}
);
},
{
points = (
{
segmentType = curve;
smooth = 1;
x = 632;
y = 903;
},
{
smooth = 0;
x = 859;
y = 903;
},
{
smooth = 0;
x = 935;
y = 685;
},
{
segmentType = curve;
smooth = 1;
x = 935;
y = 496;
},
{
smooth = 0;
x = 935;
y = 316;
},
{
smooth = 0;
x = 869;
y = 93;
},
{
segmentType = curve;
smooth = 0;
x = 645;
y = 90;
},
{
smooth = 0;
x = 395;
y = 90;
},
{
smooth = 0;
x = 319;
y = 279;
},
{
segmentType = curve;
smooth = 1;
x = 319;
y = 501;
},
{
smooth = 0;
x = 319;
y = 701;
},
{
smooth = 0;
x = 407;
y = 903;
}
);
}
);
lib = {
};
name = b;
unicodes = (
);
width = 1181;
};
};
components = (
);
contours = (
);
lib = {
};
name = b;
unicodes = (
);
width = 1203;
};
}
{
color = 11;
glyphname = c;
kernLeft = o;
kernRight = c;
lastChange = "2022-04-17 21:23:38 +0000";
layers = (
{
anchors = (
{
name = bottom;
pos = (309,0);
},
{
name = top;
pos = (309,505);
}
);
layerId = "BD421374-7BB0-4447-A555-0F47AA5545D5";
shapes = (
{
closed = 1;
nodes = (
(377,-8,o),
(442,20,o),
(487,72,c),
(464,98,l),
(422,51,o),
(362,24,o),
(302,24,cs),
(174,24,o),
(98,118,o),
(98,276,cs),
(98,434,o),
(174,528,o),
(302,528,cs),
(361,528,o),
(421,501,o),
(464,454,c),
(487,480,l),
(441,532,o),
(376,560,o),
(302,560,cs),
(151,560,o),
(62,455,o),
(62,276,cs),
(62,97,o),
(151,-8,o),
(302,-8,cs)
);
}
);
width = 514;
},
{
anchors = (
{
name = bottom;
pos = (324,0);
},
{
name = top;
pos = (324,505);
}
);
layerId = "4D0470F8-723D-4610-9591-64877B13A03C";
shapes = (
{
closed = 1;
nodes = (
(418,-12,o),
(492,11,o),
(537,50,c),
(481,175,l),
(446,146,o),
(400,129,o),
(357,129,cs),
(268,129,o),
(220,180,o),
(220,276,cs),
(220,372,o),
(268,423,o),
(357,423,cs),
(400,423,o),
(446,406,o),
(481,377,c),
(537,502,l),
(491,541,o),
(417,564,o),
(338,564,cs),
(148,564,o),
(36,457,o),
(36,276,cs),
(36,95,o),
(148,-12,o),
(338,-12,cs)
);
}
);
width = 542.06516;
}
);
unicode = 99;
userData = {
anchors = (
);
b = {
};
com.typemytype.robofont.layerData = {
b = {
anchors = (
);
components = (
);
contours = (
);
lib = {
};
name = c;
unicodes = (
);
width = 956.14099;
};
};
components = (
);
contours = (
);
lib = {
};
name = c;
unicodes = (
);
width = 992;
};
}
{
color = 11;
glyphname = d;
kernLeft = o;
kernRight = l;
lastChange = "2022-04-17 21:23:42 +0000";
layers = (
{
anchors = (
{
name = bottom;
pos = (323,0);
},
{
name = center;
pos = (324,279);
},
{
name = stroke;
pos = (466,662);
},
{
name = top;
pos = (320,649);
},
{
name = topright;
pos = (599,736);
}
);
layerId = "BD421374-7BB0-4447-A555-0F47AA5545D5";
shapes = (
{
closed = 1;
nodes = (
(414,-8,o),
(494,51,o),
(521,151,c),
(506,151,l),
(506,0,l),
(540,0,l),
(540,736,l),
(506,736,l),
(506,401,l),
(521,401,l),
(495,501,o),
(415,560,o),
(306,560,cs),
(153,560,o),
(62,455,o),
(62,276,cs),
(62,97,o),
(153,-8,o),
(306,-8,cs)
);
},
{
closed = 1;
nodes = (
(174,24,o),
(98,118,o),
(98,276,cs),
(98,434,o),
(174,528,o),
(302,528,cs),
(430,528,o),
(506,434,o),
(506,276,cs),
(506,118,o),
(430,24,o),
(302,24,cs)
);
}
);
width = 640.44665;
},
{
anchors = (
{
name = bottom;
pos = (347,0);
},
{
name = center;
pos = (336,277);
},
{
name = stroke;
pos = (480,663);
},
{
name = top;
pos = (346,662);
},
{
name = topright;
pos = (669,736);
}
);
layerId = "4D0470F8-723D-4610-9591-64877B13A03C";
shapes = (
{
closed = 1;
nodes = (
(362,-12,o),
(435,32,o),
(460,99,c),
(446,99,l),
(446,0,l),
(630,0,l),
(630,736,l),
(446,736,l),
(446,456,l),
(460,453,l),
(435,520,o),
(362,564,o),
(276,564,cs),
(131,564,o),
(36,450,o),
(36,276,cs),
(36,102,o),
(131,-12,o),
(276,-12,cs)
);
},
{
closed = 1;
nodes = (
(257,127,o),
(220,176,o),
(220,276,cs),
(220,377,o),
(257,425,o),
(333,425,cs),
(409,425,o),
(446,377,o),
(446,276,cs),
(446,176,o),
(409,127,o),
(333,127,cs)
);
}
);
width = 692;
}
);
unicode = 100;
userData = {
anchors = (
);
b = {
};
com.typemytype.robofont.layerData = {
b = {
anchors = (
);
components = (
);
contours = (
);
lib = {
};
name = d;
unicodes = (
);
width = 1181;
};
};
components = (
);
contours = (
);
lib = {
};
name = d;
unicodes = (
);
width = 1207;
};
}
{
color = 11;
glyphname = e;
kernLeft = o;
kernRight = e;
lastChange = "2022-04-17 21:23:46 +0000";
layers = (
{
anchors = (
{
name = bottom;
pos = (314,0);
},
{
name = ogonek;
pos = (389,0);
},
{
name = top;
pos = (314,505);
}
);
layerId = "BD421374-7BB0-4447-A555-0F47AA5545D5";
shapes = (
{
closed = 1;
nodes = (
(408,-8,o),
(484,23,o),
(527,75,c),
(507,101,l),
(456,49,o),
(396,24,o),
(323,24,cs),
(182,24,o),
(98,117,o),
(98,275,cs),
(98,434,o),
(178,528,o),
(313,528,cs),
(439,528,o),
(500,452,o),
(500,295,c),
(521,308,l),
(80,308,l),
(80,276,l),
(534,276,l),
(534,292,ls),
(534,467,o),
(457,560,o),
(314,560,cs),
(156,560,o),
(62,455,o),
(62,276,cs),
(62,97,o),
(158,-8,o),
(321,-8,cs)
);
}
);
width = 596;
},
{
anchors = (
{
name = bottom;
pos = (323,0);
},
{
name = ogonek;
pos = (446,0);
},
{
name = top;
pos = (327,505);
}
);
layerId = "4D0470F8-723D-4610-9591-64877B13A03C";
shapes = (
{
closed = 1;
nodes = (
(450,-12,o),
(533,13,o),
(586,56,c),
(535,176,l),
(494,145,o),
(432,126,o),
(367,126,cs),
(259,126,o),
(212,171,o),
(212,276,cs),
(212,389,o),
(248,438,o),
(332,438,cs),
(408,438,o),
(441,389,o),
(442,276,c),
(457,328,l),
(191,328,l),
(191,232,l),
(594,232,l),
(594,276,ls),
(594,450,o),
(488,564,o),
(326,564,cs),
(157,564,o),
(36,444,o),
(36,276,cs),
(36,95,o),
(157,-12,o),
(361,-12,cs)
);
}
);
width = 630;
}
);
unicode = 101;
userData = {
anchors = (
);
b = {
};
com.typemytype.robofont.layerData = {
b = {
anchors = (
);
components = (
);
contours = (
);
lib = {
};
name = e;
unicodes = (
);
width = 1132;
};
};
components = (
);
contours = (
);
lib = {
};
name = e;
unicodes = (
);
width = 1132;
};
}
{
color = 11;
glyphname = f;
kernLeft = f;
kernRight = f;
lastChange = "2022-04-17 21:23:50 +0000";
layers = (
{
anchors = (
{
name = bottom;
pos = (136,0);
},
{
name = top;
pos = (136,671);
}
);
layerId = "BD421374-7BB0-4447-A555-0F47AA5545D5";
shapes = (
{
closed = 1;
nodes = (
(154,0,l),
(154,520,l),
(320,520,l),
(320,552,l),
(145,552,l),
(154,538,l),
(154,646,ls),
(154,697,o),
(191,733,o),
(243,733,cs),
(320,733,l),
(320,765,l),
(242,765,ls),
(171,765,o),
(120,714,o),
(120,643,cs),
(120,542,l),
(126,552,l),
(8,552,l),
(8,520,l),
(120,520,l),
(120,0,l)
);
}
);
width = 336;
},
{
anchors = (
{
name = bottom;
pos = (199,0);
},
{
name = top;
pos = (199,660);
}
);
layerId = "4D0470F8-723D-4610-9591-64877B13A03C";
shapes = (
{
closed = 1;
nodes = (
(290,0,l),
(290,416,l),
(432,416,l),
(432,552,l),
(257,552,l),
(290,499,l),
(290,602,ls),
(290,639,o),
(317,667,o),
(355,667,cs),
(432,667,l),
(432,791,l),
(293,791,ls),
(184,791,o),
(106,712,o),
(106,605,cs),
(106,485,l),
(155,552,l),
(0,552,l),
(0,416,l),
(106,416,l),
(106,0,l)
);
}
);
width = 440;
}
);
unicode = 102;
userData = {
anchors = (
);
b = {
};
com.typemytype.robofont.layerData = {
b = {
anchors = (
);
components = (
);
contours = (
);
lib = {
};
name = f;
unicodes = (
);
width = 696;
};
};
components = (
);
contours = (
);
lib = {
};
name = f;
unicodes = (
);
width = 723;
};
}
{
color = 11;
glyphname = g;
kernLeft = o;
kernRight = u;
lastChange = "2022-04-17 21:23:53 +0000";
layers = (
{
anchors = (
{
name = top;
pos = (324,505);
}
);
layerId = "BD421374-7BB0-4447-A555-0F47AA5545D5";
shapes = (
{
closed = 1;
nodes = (
(468,-196,o),
(540,-123,o),
(540,19,cs),
(540,552,l),
(506,552,l),
(506,401,l),
(520,401,l),
(497,501,o),
(417,560,o),
(306,560,cs),
(153,560,o),
(62,458,o),
(62,286,cs),
(62,114,o),
(153,12,o),
(306,12,cs),
(417,12,o),
(497,71,o),
(520,170,c),
(506,170,l),
(506,13,ls),
(506,-102,o),
(445,-164,o),
(330,-164,cs),
(246,-164,o),
(187,-144,o),
(118,-92,c),
(99,-121,l),
(160,-172,o),
(235,-196,o),
(327,-196,cs)
);
},
{
closed = 1;
nodes = (
(174,44,o),
(98,134,o),
(98,286,cs),
(98,438,o),
(174,528,o),
(302,528,cs),
(430,528,o),
(506,438,o),
(506,286,cs),
(506,134,o),
(430,44,o),
(302,44,cs)
);
}
);
width = 640;
},
{
anchors = (
{
name = top;
pos = (342,505);
}
);
layerId = "4D0470F8-723D-4610-9591-64877B13A03C";
shapes = (
{
closed = 1;
nodes = (
(529,-199,o),
(630,-112,o),
(630,67,cs),
(630,552,l),
(446,552,l),
(446,459,l),
(456,456,l),
(432,521,o),
(361,564,o),
(276,564,cs),
(131,564,o),
(36,455,o),
(36,288,cs),
(36,121,o),
(131,12,o),
(276,12,cs),
(361,12,o),
(432,55,o),
(456,120,c),
(446,120,l),
(446,47,ls),
(446,-27,o),
(400,-63,o),
(305,-63,cs),
(230,-63,o),
(149,-42,o),
(98,-11,c),
(50,-135,l),
(107,-177,o),
(202,-199,o),
(321,-199,cs)
);
},
{
closed = 1;
nodes = (
(257,151,o),
(220,196,o),
(220,288,cs),
(220,380,o),
(257,425,o),
(335,425,cs),
(410,425,o),
(446,380,o),
(446,288,cs),
(446,196,o),
(410,151,o),
(335,151,cs)
);
}
);
width = 692;
}
);
unicode = 103;
userData = {
anchors = (
);
b = {
};
com.typemytype.robofont.layerData = {
b = {
anchors = (
);
components = (
);
contours = (
);
lib = {
};
name = g;
unicodes = (
);
width = 1167;
};
};
components = (
);
contours = (
);
lib = {
};
name = g;
unicodes = (
);
width = 1207;
};
}
{
color = 11;
glyphname = h;
kernLeft = h;
kernRight = n;
lastChange = "2022-04-17 21:23:57 +0000";
layers = (
{
anchors = (
{
name = bottom;
pos = (309,0);
},
{
name = center;
pos = (309,280);
},
{
name = dot;
pos = (213,404);
},
{
name = stroke;
pos = (172,605);
},
{
name = top;
pos = (310,736);
},
{
name = topright;
pos = (180,736);
}
);
layerId = "BD421374-7BB0-4447-A555-0F47AA5545D5";
shapes = (
{
closed = 1;
nodes = (
(134,0,l),
(134,323,ls),
(134,447,o),
(213,528,o),
(334,528,cs),
(443,528,o),
(490,474,o),
(490,349,cs),
(490,0,l),
(524,0,l),
(524,353,ls),
(524,493,o),
(460,560,o),
(327,560,cs),
(226,560,o),
(149,508,o),
(120,421,c),
(134,421,l),
(134,736,l),
(100,736,l),
(100,0,l)
);
}
);
width = 624;
},
{
anchors = (
{
name = bottom;
pos = (341,0);
},
{
name = center;
pos = (341,279);
},
{
name = dot;
pos = (395,393);
},
{
name = stroke;
pos = (211,618);
},
{
name = top;
pos = (341,736);
},
{
name = topright;
pos = (273,736);
}
);
layerId = "4D0470F8-723D-4610-9591-64877B13A03C";
shapes = (
{
closed = 1;
nodes = (
(246,0,l),
(246,309,ls),
(246,374,o),
(292,420,o),
(356,420,cs),
(408,420,o),
(430,391,o),
(430,323,cs),
(430,0,l),
(614,0,l),
(614,331,ls),
(614,488,o),
(551,564,o),
(420,564,cs),
(339,564,o),
(269,524,o),
(234,456,c),
(247,456,l),
(246,736,l),
(62,736,l),
(62,0,l)
);
}
);
width = 676.443;
}
);
unicode = 104;
userData = {
anchors = (
);
b = {
};
com.typemytype.robofont.layerData = {
b = {
anchors = (
);
components = (
);
contours = (
);
lib = {
};
name = h;
unicodes = (
);
width = 1148;
};
};
components = (
);
contours = {
};
lib = {
};
name = h;
points = {
};
segmentType = curve;
unicodes = (
);
width = 1195;
x = 137;
y = 113;
};
}
{
color = 11;
glyphname = i;
kernLeft = h;
kernRight = l;
lastChange = "2022-04-17 21:24:01 +0000";
layers = (
{
anchors = (
{
name = bottom;
pos = (115,0);
},
{
name = ogonek;
pos = (137,0);
}
);
layerId = "BD421374-7BB0-4447-A555-0F47AA5545D5";
shapes = (
{
closed = 1;
nodes = (
(134,692,l),
(134,765,l),
(100,765,l),
(100,692,l)
);
},
{
closed = 1;
nodes = (
(134,0,l),
(134,552,l),
(100,552,l),
(100,0,l)
);
}
);
width = 234;
},
{
anchors = (
{
name = bottom;
pos = (155,0);
},
{
name = ogonek;
pos = (203,0);
}
);
layerId = "4D0470F8-723D-4610-9591-64877B13A03C";
shapes = (
{
closed = 1;
nodes = (
(246,628,l),
(246,791,l),
(62,791,l),
(62,628,l)
);
},
{
closed = 1;
nodes = (
(246,0,l),
(246,552,l),
(62,552,l),
(62,0,l)
);
}
);
width = 307.71402;
}
);
unicode = 105;
}
{
color = 11;
glyphname = j;
kernLeft = j;
kernRight = l;
lastChange = "2022-04-17 21:24:05 +0000";
layers = (
{
layerId = "BD421374-7BB0-4447-A555-0F47AA5545D5";
shapes = (
{
closed = 1;
nodes = (
(134,692,l),
(134,765,l),
(100,765,l),
(100,692,l)
);
},
{
closed = 1;
nodes = (
(-19,-198,ls),
(75,-192,o),
(134,-129,o),
(134,-26,cs),
(134,552,l),
(100,552,l),
(100,-25,ls),
(100,-110,o),
(56,-161,o),
(-24,-166,cs),
(-70,-169,l),
(-67,-201,l)
);
}
);
width = 233.50377;
},
{
layerId = "4D0470F8-723D-4610-9591-64877B13A03C";
shapes = (
{
closed = 1;
nodes = (
(248,628,l),
(248,791,l),
(64,791,l),
(64,628,l)
);
},
{
closed = 1;
nodes = (
(3,-198,ls),
(191,-187,o),
(248,-119,o),
(248,32,cs),
(248,552,l),
(64,552,l),
(64,5,ls),
(64,-40,o),
(44,-60,o),
(-4,-65,cs),
(-60,-71,l),
(-48,-201,l)
);
}
);
width = 312;
}
);
unicode = 106;
}
{
color = 11;
glyphname = k;
kernLeft = h;
kernRight = k;
lastChange = "2022-04-17 21:24:09 +0000";
layers = (
{
anchors = (
{
name = bottom;
pos = (259,0);
},
{
name = top;
pos = (311,736);
}
);
layerId = "BD421374-7BB0-4447-A555-0F47AA5545D5";
shapes = (
{
closed = 1;
nodes = (
(212,311,l),
(473,0,l),
(516,0,l),
(232,339,l)
);
},
{
closed = 1;
nodes = (
(483,552,l),
(437,552,l),
(125,236,l),
(134,232,l),
(134,736,l),
(100,736,l),
(100,0,l),
(134,0,l),
(134,212,l),
(125,190,l)
);
}
);
width = 518.00545;
},
{
anchors = (
{
name = bottom;
pos = (320,0);
},
{
name = top;
pos = (341,736);
}
);
layerId = "4D0470F8-723D-4610-9591-64877B13A03C";
shapes = (
{
closed = 1;
nodes = (
(302,200,l),
(458,0,l),
(671,0,l),
(414,329,l)
);
},
{
closed = 1;
nodes = (
(661,552,l),
(432,552,l),
(238,344,l),
(246,340,l),
(246,736,l),
(62,736,l),
(62,0,l),
(246,0,l),
(246,122,l),
(238,100,l)
);
}
);
width = 640.32919;
}
);
unicode = 107;
userData = {
com.typemytype.robofont.layerData = {
b = {
anchors = (
);
components = (
);
contours = (
{
points = (
{
segmentType = line;
smooth = 0;
x = 318;
y = 536;
},
{
segmentType = line;
smooth = 1;
x = 793;
y = 27;
},
{
smooth = 0;
x = 809;
y = 9;
},
{
smooth = 0;
x = 828;
y = 1;
},
{
segmentType = curve;
smooth = 1;
x = 845;
y = 1;
},
{
smooth = 0;
x = 883;
y = 1;
},
{
smooth = 0;
x = 922;
y = 33;
},
{
segmentType = curve;
smooth = 1;
x = 922;
y = 71;
},
{
smooth = 0;
x = 922;
y = 84;
},
{
smooth = 0;
x = 918;
y = 99;
},
{
segmentType = curve;
smooth = 1;
x = 906;
y = 112;
},
{
segmentType = line;
smooth = 0;
x = 492;
y = 554;
},
{
segmentType = line;
smooth = 1;
x = 873;
y = 889;
},
{
smooth = 0;
x = 888;
y = 902;
},
{
smooth = 0;
x = 894;
y = 918;
},
{
segmentType = curve;
smooth = 1;
x = 894;
y = 933;
},
{
smooth = 0;
x = 894;
y = 968;
},
{
smooth = 0;
x = 858;
y = 1002;
},
{
segmentType = curve;
smooth = 1;
x = 821;
y = 1002;
},
{
smooth = 0;
x = 802;
y = 1002;
},
{
smooth = 0;
x = 785;
y = 994;
},
{
segmentType = curve;
smooth = 0;
x = 770;
y = 979;
},
{
segmentType = line;
smooth = 0;
x = 318;
y = 574;
}
);
}
);
lib = {
};
name = k;
unicodes = (
);
width = 984;
};
};
};
}
{
color = 11;
glyphname = l;
kernLeft = h;
kernRight = ltail;
lastChange = "2022-04-17 21:24:13 +0000";
layers = (
{
anchors = (
{
name = bottom;
pos = (203,0);
},
{
name = center;
pos = (127,409);
},
{
name = dot;
pos = (257,409);
},
{
name = top;
pos = (116,736);
},
{
name = topright;
pos = (190,736);
}
);
layerId = "BD421374-7BB0-4447-A555-0F47AA5545D5";
shapes = (
{
closed = 1;
nodes = (
(134,0,l),
(134,765,l),
(100,765,l),
(100,0,l)
);
}
);
width = 234;
},
{
anchors = (
{
name = bottom;
pos = (222,0);
},
{
name = center;
pos = (165,401);
},
{
name = dot;
pos = (404,401);
},
{
name = top;
pos = (154,736);
},
{
name = topright;
pos = (285,736);
}
);
layerId = "4D0470F8-723D-4610-9591-64877B13A03C";
shapes = (
{
closed = 1;
nodes = (
(246,0,l),
(246,791,l),
(62,791,l),
(62,0,l)
);
}
);
width = 307.64219;
}
);
unicode = 108;
userData = {
com.typemytype.robofont.layerData = {
b = {
anchors = (
);
components = (
);
contours = (
);
lib = {
};
name = l;
unicodes = (
);
width = 511;
};
};
};
}
{
color = 11;
glyphname = m;
kernLeft = n;
kernRight = n;
lastChange = "2022-04-17 21:24:17 +0000";
layers = (
{
anchors = (
{
name = bottom;
pos = (472,0);
},
{
name = top;
pos = (472,505);
}
);
layerId = "BD421374-7BB0-4447-A555-0F47AA5545D5";
shapes = (
{
closed = 1;
nodes = (
(134,0,l),
(134,323,ls),
(134,448,o),
(204,528,o),
(315,528,cs),
(413,528,o),
(456,474,o),
(456,349,cs),
(456,0,l),
(490,0,l),
(490,323,ls),
(490,448,o),
(560,528,o),
(671,528,cs),
(769,528,o),
(812,474,o),
(812,349,cs),
(812,0,l),
(846,0,l),
(846,353,ls),
(846,493,o),
(787,560,o),
(665,560,cs),
(568,560,o),
(496,509,o),
(470,423,c),
(483,423,l),
(465,515,o),
(408,560,o),
(309,560,cs),
(220,560,o),
(150,508,o),
(121,421,c),
(134,421,l),
(134,552,l),
(100,552,l),
(100,0,l)
);
}
);
width = 946;
},
{
anchors = (
{
name = bottom;
pos = (504,0);
},
{
name = top;
pos = (504,505);
}
);
layerId = "4D0470F8-723D-4610-9591-64877B13A03C";
shapes = (
{
closed = 1;
nodes = (
(246,0,l),
(246,309,ls),
(246,377,o),
(284,421,o),
(342,421,cs),
(391,421,o),
(410,394,o),
(410,326,cs),
(410,0,l),
(594,0,l),
(594,309,ls),
(594,377,o),
(632,421,o),
(690,421,cs),
(739,421,o),
(758,394,o),
(758,326,cs),
(758,0,l),
(942,0,l),
(942,332,ls),
(942,494,o),
(883,564,o),
(748,564,cs),
(663,564,o),
(598,522,o),
(562,444,c),
(579,444,l),
(553,528,o),
(499,564,o),
(400,564,cs),
(326,564,o),
(268,526,o),
(233,456,c),
(246,456,l),
(246,552,l),
(62,552,l),
(62,0,l)
);
}
);
width = 1004;
}
);
unicode = 109;
userData = {
anchors = (
);
b = {
};
com.typemytype.robofont.layerData = {
b = {
anchors = (
);
components = (
);
contours = (
);
lib = {
};
name = m;
unicodes = (
);
width = 1838;
};
};
components = (
);
contours = (
);
lib = {
};
name = m;
unicodes = (
);
width = 1877;
};
}
{
color = 11;
glyphname = n;
kernLeft = n;
kernRight = n;
lastChange = "2022-04-17 21:24:20 +0000";
layers = (
{
anchors = (
{
name = bottom;
pos = (310,0);
},
{
name = top;
pos = (310,505);
}
);
layerId = "BD421374-7BB0-4447-A555-0F47AA5545D5";
shapes = (
{
closed = 1;
nodes = (
(134,0,l),
(134,323,ls),
(134,447,o),
(213,528,o),
(334,528,cs),
(443,528,o),
(490,474,o),
(490,349,cs),
(490,0,l),
(524,0,l),
(524,353,ls),
(524,493,o),
(460,560,o),
(327,560,cs),
(227,560,o),
(150,508,o),
(120,421,c),
(134,421,l),
(134,552,l),
(100,552,l),
(100,0,l)
);
}
);
width = 624;
},
{
anchors = (
{
name = bottom;
pos = (340,0);
},
{
name = top;
pos = (340,505);
}
);
layerId = "4D0470F8-723D-4610-9591-64877B13A03C";
shapes = (
{
closed = 1;
nodes = (
(246,0,l),
(246,310,ls),
(246,375,o),
(292,421,o),
(356,421,cs),
(406,421,o),
(430,389,o),
(430,324,cs),
(430,0,l),
(614,0,l),
(614,331,ls),
(614,488,o),
(551,564,o),
(420,564,cs),
(338,564,o),
(269,524,o),
(234,456,c),
(246,456,l),
(246,552,l),
(62,552,l),
(62,0,l)
);
}
);
width = 676.443;
}
);
unicode = 110;
userData = {
anchors = (
);
b = {
};
com.typemytype.robofont.layerData = {
b = {
anchors = (
);
components = (
);
contours = (
);
lib = {
};
name = n;
unicodes = (
);
width = 1152;
};
};
components = (
);
contours = {
};
lib = {
};
name = n;
points = {
};
segmentType = curve;
unicodes = (
);
width = 1195;
x = 137;
y = 113;
};
}
{
color = 11;
glyphname = o;
kernLeft = o;
kernRight = o;
lastChange = "2022-04-17 21:24:24 +0000";
layers = (
{
anchors = (
{
name = bottom;
pos = (304,0);
},
{
name = center;
pos = (303,277);
},
{
name = ogonek;
pos = (353,0);
},
{
name = top;
pos = (304,505);
},
{
name = topright;
pos = (354,553);
}
);
layerId = "BD421374-7BB0-4447-A555-0F47AA5545D5";
shapes = (
{
closed = 1;
nodes = (
(456,-8,o),
(546,98,o),
(546,277,cs),
(546,455,o),
(456,560,o),
(304,560,cs),
(152,560,o),
(62,455,o),
(62,277,cs),
(62,98,o),
(152,-8,o),
(304,-8,cs)
);
},
{
closed = 1;
nodes = (
(175,24,o),
(98,118,o),
(98,277,cs),
(98,435,o),
(175,528,o),
(304,528,cs),
(433,528,o),
(510,435,o),
(510,277,cs),
(510,118,o),
(433,24,o),
(304,24,cs)
);
}
);
width = 608;
},
{
anchors = (
{
name = bottom;
pos = (337,0);
},
{
name = center;
pos = (337,276);
},
{
name = ogonek;
pos = (395,0);
},
{
name = top;
pos = (337,505);
},
{
name = topright;
pos = (407,542);
}
);
layerId = "4D0470F8-723D-4610-9591-64877B13A03C";
shapes = (
{
closed = 1;
nodes = (
(525,-12,o),
(636,95,o),
(636,276,cs),
(636,457,o),
(525,564,o),
(337,564,cs),
(148,564,o),
(36,457,o),
(36,276,cs),
(36,95,o),
(148,-12,o),
(337,-12,cs)
);
},
{
closed = 1;
nodes = (
(262,127,o),
(222,179,o),
(222,276,cs),
(222,373,o),
(262,425,o),
(337,425,cs),
(411,425,o),
(450,373,o),
(450,276,cs),
(450,179,o),
(411,127,o),
(337,127,cs)
);
}
);
width = 672;
}
);
unicode = 111;
userData = {
anchors = (
);
b = {
};
com.typemytype.robofont.guides = (
);
com.typemytype.robofont.layerData = {
b = {
anchors = (
);
components = (
);
contours = (
);
lib = {
};
name = o;
unicodes = (
);
width = 1144;
};
};
components = (
);
contours = (
);
lib = {
};
name = o;
unicodes = (
);
width = 1199;
};
}
{
color = 11;
glyphname = p;
kernLeft = n;
kernRight = o;
lastChange = "2022-04-17 21:24:28 +0000";
layers = (
{
anchors = (
{
name = bottom;
pos = (318,0);
},
{
name = top;
pos = (318,505);
}
);
layerId = "BD421374-7BB0-4447-A555-0F47AA5545D5";
shapes = (
{
closed = 1;
nodes = (
(226,560,o),
(146,501,o),
(119,401,c),
(134,401,l),
(134,552,l),
(100,552,l),
(100,-184,l),
(134,-184,l),
(134,151,l),
(119,151,l),
(145,51,o),
(225,-8,o),
(334,-8,cs),
(487,-8,o),
(578,97,o),
(578,276,cs),
(578,455,o),
(487,560,o),
(334,560,cs)
);
},
{
closed = 1;
nodes = (
(466,528,o),
(542,434,o),
(542,276,cs),
(542,118,o),
(466,24,o),
(338,24,cs),
(210,24,o),
(134,118,o),
(134,276,cs),
(134,434,o),
(210,528,o),
(338,528,cs)
);
}
);
width = 640.45099;
},
{
anchors = (
{
name = bottom;
pos = (345,0);
},
{
name = top;
pos = (345,505);
}
);
layerId = "4D0470F8-723D-4610-9591-64877B13A03C";
shapes = (
{
closed = 1;
nodes = (
(330,564,o),
(257,520,o),
(232,453,c),
(246,453,l),
(246,552,l),
(62,552,l),
(62,-184,l),
(246,-184,l),
(246,96,l),
(232,99,l),
(259,32,o),
(332,-12,o),
(416,-12,cs),
(561,-12,o),
(656,102,o),
(656,276,cs),
(656,450,o),
(561,564,o),
(416,564,cs)
);
},
{
closed = 1;
nodes = (
(435,425,o),
(472,376,o),
(472,276,cs),
(472,175,o),
(435,127,o),
(359,127,cs),
(283,127,o),
(246,175,o),
(246,276,cs),
(246,376,o),
(283,425,o),
(359,425,cs)
);
}
);
width = 692;
}
);
unicode = 112;
userData = {
anchors = (
);
b = {
};
com.typemytype.robofont.layerData = {
b = {
anchors = (
);
components = (
);
contours = (
);
lib = {
};
name = p;
unicodes = (
);
width = 1181;
};
};
components = (
);
contours = (
);
lib = {
};
name = p;
unicodes = (
);
width = 1207;
};
}
{
color = 11;
glyphname = q;
kernLeft = o;
kernRight = q;
lastChange = "2022-04-17 21:24:31 +0000";
layers = (
{
anchors = (
{
name = bottom;
pos = (316,0);
},
{
name = top;
pos = (316,505);
}
);
layerId = "BD421374-7BB0-4447-A555-0F47AA5545D5";
shapes = (
{
closed = 1;
nodes = (
(153,560,o),
(62,455,o),
(62,276,cs),
(62,97,o),
(153,-8,o),
(306,-8,cs),
(415,-8,o),
(495,51,o),
(521,151,c),
(506,151,l),
(506,-184,l),
(540,-184,l),
(540,552,l),
(506,552,l),
(506,401,l),
(521,401,l),
(494,501,o),
(414,560,o),
(306,560,cs)
);
},
{
closed = 1;
nodes = (
(430,528,o),
(506,434,o),
(506,276,cs),
(506,118,o),
(430,24,o),
(302,24,cs),
(174,24,o),
(98,118,o),
(98,276,cs),
(98,434,o),
(174,528,o),
(302,528,cs)
);
}
);
width = 640.45099;
},
{
anchors = (
{
name = bottom;
pos = (349,0);
},
{
name = top;
pos = (349,505);
}
);
layerId = "4D0470F8-723D-4610-9591-64877B13A03C";
shapes = (
{
closed = 1;
nodes = (
(131,564,o),
(36,450,o),
(36,276,cs),
(36,102,o),
(131,-12,o),
(276,-12,cs),
(360,-12,o),
(433,32,o),
(460,99,c),
(446,96,l),
(446,-184,l),
(630,-184,l),
(630,552,l),
(446,552,l),
(446,453,l),
(460,453,l),
(435,520,o),
(362,564,o),
(276,564,cs)
);
},
{
closed = 1;
nodes = (
(409,425,o),
(446,376,o),
(446,276,cs),
(446,175,o),
(409,127,o),
(333,127,cs),
(257,127,o),
(220,175,o),
(220,276,cs),
(220,376,o),
(257,425,o),
(333,425,cs)
);
}
);
width = 692;
}
);
unicode = 113;
userData = {
anchors = (
);
b = {
};
com.typemytype.robofont.layerData = {
b = {
anchors = (
);
components = (
);
contours = (
);
lib = {
};
name = p;
unicodes = (
);
width = 1181;
};
};
components = (
);
contours = (
);
lib = {
};
name = p;
unicodes = (
);
width = 1207;
};
}
{
color = 11;
glyphname = r;
kernLeft = n;
kernRight = r;
lastChange = "2022-04-17 21:24:35 +0000";
layers = (
{
anchors = (
{
name = bottom;
pos = (117,0);
},
{
name = top;
pos = (228,505);
}
);
layerId = "BD421374-7BB0-4447-A555-0F47AA5545D5";
shapes = (
{
closed = 1;
nodes = (
(134,0,l),
(134,347,ls),
(134,451,o),
(200,518,o),
(317,530,cs),
(346,533,l),
(346,565,l),
(323,563,ls),
(219,554,o),
(153,517,o),
(121,430,c),
(133,430,l),
(133,552,l),
(100,552,l),
(100,0,l)
);
}
);
width = 360;
},
{
anchors = (
{
name = bottom;
pos = (156,0);
},
{
name = top;
pos = (267,505);
}
);
layerId = "4D0470F8-723D-4610-9591-64877B13A03C";
shapes = (
{
closed = 1;
nodes = (
(246,0,l),
(246,286,ls),
(246,359,o),
(297,394,o),
(427,407,cs),
(466,411,l),
(466,566,l),
(411,562,ls),
(305,554,o),
(246,506,o),
(231,417,c),
(246,417,l),
(246,552,l),
(62,552,l),
(62,0,l)
);
}
);
width = 475.72242;
}
);
unicode = 114;
userData = {
anchors = (
);
b = {
};
com.typemytype.robofont.layerData = {
b = {
anchors = (
);
components = (
);
contours = (
);
lib = {
};
name = r;
unicodes = (
);
width = 715;
};
};
components = (
);
contours = (
);
lib = {
};
name = r;
unicodes = (
);
width = 763;
};
}
{
color = 11;
glyphname = s;
kernLeft = s;
kernRight = s;
lastChange = "2022-04-17 21:24:39 +0000";
layers = (
{
anchors = (
{
name = bottom;
pos = (270,0);
},
{
name = top;
pos = (276,505);
}
);
layerId = "BD421374-7BB0-4447-A555-0F47AA5545D5";
shapes = (
{
closed = 1;
nodes = (
(390,-8,o),
(467,50,o),
(467,140,cs),
(467,214,o),
(419,260,o),
(320,281,cs),
(227,301,ls),
(155,316,o),
(122,353,o),
(122,406,cs),
(122,480,o),
(183,528,o),
(276,528,cs),
(342,528,o),
(395,506,o),
(437,459,c),
(458,485,l),
(422,532,o),
(354,560,o),
(276,560,cs),
(161,560,o),
(86,499,o),
(86,405,cs),
(86,332,o),
(134,283,o),
(225,264,cs),
(318,244,ls),
(394,228,o),
(431,194,o),
(431,141,cs),
(431,67,o),
(372,24,o),
(273,24,cs),
(199,24,o),
(139,46,o),
(90,91,c),
(69,65,l),
(110,19,o),
(185,-8,o),
(271,-8,cs)
);
}
);
width = 535.67479;
},
{
anchors = (
{
name = bottom;
pos = (280,0);
},
{
name = top;
pos = (288,505);
}
);
layerId = "4D0470F8-723D-4610-9591-64877B13A03C";
shapes = (
{
closed = 1;
nodes = (
(432,-12,o),
(531,61,o),
(531,174,cs),
(531,254,o),
(478,309,o),
(378,325,cs),
(260,344,ls),
(226,349,o),
(209,366,o),
(209,387,cs),
(209,421,o),
(237,437,o),
(296,437,cs),
(354,437,o),
(418,419,o),
(468,388,c),
(517,504,l),
(466,543,o),
(390,564,o),
(298,564,cs),
(150,564,o),
(44,487,o),
(44,379,cs),
(44,296,o),
(96,242,o),
(193,226,cs),
(313,206,ls),
(349,200,o),
(364,186,o),
(364,162,cs),
(364,131,o),
(336,114,o),
(284,114,cs),
(215,114,o),
(133,135,o),
(77,168,c),
(32,49,l),
(89,9,o),
(176,-12,o),
(280,-12,cs)
);
}
);
width = 555.89524;
}
);
unicode = 115;
userData = {
anchors = (
);
b = {
};
com.typemytype.robofont.layerData = {
b = {
anchors = (
);
components = (
);
contours = (
);
lib = {
};
name = s;
unicodes = (
);
width = 1007;
};
};
components = (
);
contours = (
);
lib = {
};
name = s;
unicodes = (
);
width = 1006.76001;
};
}
{
color = 11;
glyphname = t;
kernLeft = t;
kernRight = t;
lastChange = "2022-04-17 21:24:42 +0000";
layers = (
{
anchors = (
{
name = bottom;
pos = (223,0);
},
{
name = center;
pos = (164,313);
},
{
name = top;
pos = (132,696);
},
{
name = topright;
pos = (243,736);
}
);
layerId = "BD421374-7BB0-4447-A555-0F47AA5545D5";
shapes = (
{
closed = 1;
nodes = (
(311,-8,o),
(350,1,o),
(362,9,c),
(352,39,l),
(334,32,o),
(308,24,o),
(279,24,cs),
(189,24,o),
(149,76,o),
(149,176,cs),
(149,520,l),
(331,520,l),
(331,552,l),
(149,552,l),
(149,696,l),
(115,696,l),
(115,552,l),
(4,552,l),
(4,520,l),
(115,520,l),
(115,166,ls),
(115,55,o),
(174,-8,o),
(278,-8,cs)
);
}
);
width = 348;
},
{
anchors = (
{
name = bottom;
pos = (273,0);
},
{
name = center;
pos = (218,287);
},
{
name = top;
pos = (195,689);
},
{
name = topright;
pos = (335,736);
}
);
layerId = "4D0470F8-723D-4610-9591-64877B13A03C";
shapes = (
{
closed = 1;
nodes = (
(385,-12,o),
(433,-1,o),
(468,16,c),
(443,149,l),
(417,142,o),
(395,137,o),
(374,137,cs),
(314,137,o),
(288,164,o),
(288,220,cs),
(288,416,l),
(448,416,l),
(448,552,l),
(288,552,l),
(288,689,l),
(104,689,l),
(104,552,l),
(0,552,l),
(0,416,l),
(104,416,l),
(104,213,ls),
(104,63,o),
(180,-12,o),
(340,-12,cs)
);
}
);
width = 468;
}
);
unicode = 116;
userData = {
anchors = (
);
b = {
};
com.typemytype.robofont.layerData = {
b = {
anchors = (
);
components = (
);
contours = (
{
points = (
{
segmentType = curve;
smooth = 1;
x = 317;
y = 0;
},
{
smooth = 0;
x = 358;
y = 0;
},
{
smooth = 0;
x = 398;
y = 27;
},
{
segmentType = curve;
smooth = 1;
x = 398;
y = 79;
},
{
segmentType = line;
smooth = 0;
x = 398;
y = 876;
},
{
segmentType = line;
smooth = 1;
x = 578;
y = 876;
},
{
smooth = 0;
x = 621;
y = 876;
},
{
smooth = 0;
x = 634;
y = 897;
},
{
segmentType = curve;
smooth = 1;
x = 634;
y = 928;
},
{
smooth = 0;
x = 634;
y = 957;
},
{
smooth = 0;
x = 621;
y = 981;
},
{
segmentType = curve;
smooth = 1;
x = 578;
y = 981;
},
{
segmentType = line;
smooth = 0;
x = 398;
y = 981;
},
{
segmentType = line;
smooth = 1;
x = 398;
y = 1053;
},
{
smooth = 0;
x = 398;
y = 1285;
},
{
smooth = 0;
x = 432;
y = 1318;
},
{
segmentType = curve;
smooth = 1;
x = 544;
y = 1318;
},
{
segmentType = line;
smooth = 1;
x = 629;
y = 1318;
},
{
smooth = 0;
x = 706;
y = 1318;
},
{
smooth = 0;
x = 703;
y = 1438;
},
{
segmentType = curve;
smooth = 1;
x = 630;
y = 1438;
},
{
segmentType = line;
smooth = 1;
x = 510;
y = 1438;
},
{
smooth = 0;
x = 357;
y = 1438;
},
{
smooth = 0;
x = 238;
y = 1371;
},
{
segmentType = curve;
smooth = 1;
x = 238;
y = 1112;
},
{
segmentType = line;
smooth = 0;
x = 238;
y = 981;
},
{
segmentType = line;
smooth = 1;
x = 98;
y = 981;
},
{
smooth = 0;
x = 55;
y = 981;
},
{
smooth = 0;
x = 39;
y = 957;
},
{
segmentType = curve;
smooth = 1;
x = 39;
y = 928;
},
{
smooth = 0;
x = 39;
y = 899;
},
{
smooth = 0;
x = 55;
y = 876;
},
{
segmentType = curve;
smooth = 1;
x = 98;
y = 876;
},
{
segmentType = line;
smooth = 0;
x = 238;
y = 876;
},
{
segmentType = line;
smooth = 1;
x = 238;
y = 79;
},
{
smooth = 0;
x = 238;
y = 26;
},
{
smooth = 0;
x = 278;
y = 0;
}
);
}
);
lib = {
};
name = t;
unicodes = (
);
width = 706;
};
};
components = (
);
contours = (
);
lib = {
};
name = t;
unicodes = (
);
width = 768;
};
}
{
color = 11;
glyphname = u;
kernLeft = u;
kernRight = u;
lastChange = "2022-04-17 21:24:46 +0000";
layers = (
{
anchors = (
{
name = bottom;
pos = (308,0);
},
{
name = ogonek;
pos = (518,0);
},
{
name = top;
pos = (308,506);
},
{
name = topright;
pos = (477,553);
}
);
layerId = "BD421374-7BB0-4447-A555-0F47AA5545D5";
shapes = (
{
closed = 1;
nodes = (
(490,552,l),
(490,229,ls),
(490,105,o),
(411,24,o),
(290,24,cs),
(181,24,o),
(134,78,o),
(134,203,cs),
(134,552,l),
(100,552,l),
(100,199,ls),
(100,59,o),
(164,-8,o),
(297,-8,cs),
(397,-8,o),
(474,44,o),
(504,131,c),
(490,131,l),
(490,0,l),
(524,0,l),
(524,552,l)
);
}
);
width = 624;
},
{
anchors = (
{
name = bottom;
pos = (334,0);
},
{
name = ogonek;
pos = (568,0);
},
{
name = top;
pos = (334,505);
},
{
name = topright;
pos = (476,543);
}
);
layerId = "4D0470F8-723D-4610-9591-64877B13A03C";
shapes = (
{
closed = 1;
nodes = (
(430,552,l),
(430,242,ls),
(430,177,o),
(384,131,o),
(320,131,cs),
(270,131,o),
(246,163,o),
(246,228,cs),
(246,552,l),
(62,552,l),
(62,221,ls),
(62,64,o),
(125,-12,o),
(256,-12,cs),
(338,-12,o),
(407,28,o),
(442,96,c),
(430,96,l),
(430,0,l),
(614,0,l),
(614,552,l)
);
}
);
width = 676;
}
);
unicode = 117;
userData = {
anchors = (
);
b = {
};
com.typemytype.robofont.layerData = {
b = {
anchors = (
);
components = (
);
contours = (
{
points = (
{
segmentType = curve;
smooth = 1;
x = 915;
y = 991;
},
{
smooth = 0;
x = 875;
y = 991;
},
{
smooth = 0;
x = 834;
y = 965;
},
{
segmentType = curve;
smooth = 1;
x = 834;
y = 916;
},
{
segmentType = line;
smooth = 0;
x = 834;
y = 395;
},
{
smooth = 0;
x = 821;
y = 198;
},
{
smooth = 0;
x = 698;
y = 90;
},
{
segmentType = curve;
smooth = 1;
x = 542;
y = 90;
},
{
smooth = 0;
x = 385;
y = 90;
},
{
smooth = 0;
x = 306;
y = 187;
},
{
segmentType = curve;
smooth = 1;
x = 306;
y = 367;
},
{
segmentType = line;
smooth = 1;
x = 306;
y = 916;
},
{
smooth = 0;
x = 306;
y = 967;
},
{
smooth = 0;
x = 266;
y = 991;
},
{
segmentType = curve;
smooth = 1;
x = 226;
y = 991;
},
{
smooth = 0;
x = 186;
y = 991;
},
{
smooth = 0;
x = 146;
y = 967;
},
{
segmentType = curve;
smooth = 1;
x = 146;
y = 916;
},
{
segmentType = line;
smooth = 1;
x = 146;
y = 369;
},
{
smooth = 0;
x = 146;
y = 96;
},
{
smooth = 0;
x = 294;
y = "-20";
},
{
segmentType = curve;
smooth = 1;
x = 507;
y = "-20";
},
{
smooth = 0;
x = 656;
y = "-20";
},
{
smooth = 0;
x = 786;
y = 49;
},
{
segmentType = curve;
smooth = 0;
x = 834;
y = 179;
},
{
segmentType = line;
smooth = 1;
x = 834;
y = 73;
},
{
smooth = 0;
x = 834;
y = 24;
},
{
smooth = 0;
x = 874;
y = 0;
},
{
segmentType = curve;
smooth = 1;
x = 913;
y = 0;
},
{
smooth = 0;
x = 953;
y = 0;
},
{
smooth = 0;
x = 994;
y = 24;
},
{
segmentType = curve;
smooth = 1;
x = 994;
y = 75;
},
{
segmentType = line;
smooth = 1;
x = 994;
y = 916;
},
{
smooth = 0;
x = 994;
y = 967;
},
{
smooth = 0;
x = 955;
y = 991;
}
);
}
);
lib = {
};
name = u;
unicodes = (
);
width = 1152;
};
};
components = (
);
contours = (
);
lib = {
};
name = u;
unicodes = (
);
width = 1195;
};
}
{
color = 11;
glyphname = v;
kernLeft = v;
kernRight = v;
lastChange = "2022-04-17 21:24:49 +0000";
layers = (
{
anchors = (
{
name = bottom;
pos = (284,0);
},
{
name = top;
pos = (284,505);
}
);
layerId = "BD421374-7BB0-4447-A555-0F47AA5545D5";
shapes = (
{
closed = 1;
nodes = (
(306,0,l),
(539,552,l),
(497.994,552,l),
(272,4,l),
(296,4,l),
(68,552,l),
(28,552,l),
(262,0,l)
);
}
);
width = 566.36585;
},
{
anchors = (
{
name = bottom;
pos = (305,0);
},
{
name = top;
pos = (305,505);
}
);
layerId = "4D0470F8-723D-4610-9591-64877B13A03C";
shapes = (
{
closed = 1;
nodes = (
(382,0,l),
(624,552,l),
(441,552,l),
(287,174,l),
(328,174,l),
(178,552,l),
(-17,552,l),
(223,0,l)
);
}
);
width = 604.71637;
}
);
unicode = 118;
userData = {
com.typemytype.robofont.layerData = {
b = {
anchors = (
);
components = (
);
contours = (
{
points = (
{
segmentType = line;
smooth = 0;
x = 518;
y = 0;
},
{
smooth = 0;
x = 589;
y = 0;
},
{
smooth = 0;
x = 618;
y = 36;
},
{
segmentType = curve;
smooth = 1;
x = 654;
y = 121;
},
{
segmentType = line;
smooth = 1;
x = 979;
y = 890;
},
{
smooth = 0;
x = 1000;
y = 940;
},
{
smooth = 0;
x = 968;
y = 991;
},
{
segmentType = curve;
smooth = 1;
x = 907;
y = 991;
},
{
smooth = 0;
x = 878;
y = 991;
},
{
smooth = 0;
x = 850;
y = 975;
},
{
segmentType = curve;
smooth = 1;
x = 836;
y = 940;
},
{
segmentType = line;
smooth = 0;
x = 518;
y = 166;
}
);
},
{
points = (
{
segmentType = curve;
smooth = 0;
x = 518;
y = 0;
},
{
segmentType = line;
smooth = 0;
x = 518;
y = 166;
},
{
segmentType = line;
smooth = 1;
x = 200;
y = 940;
},
{
smooth = 0;
x = 186;
y = 975;
},
{
smooth = 0;
x = 158;
y = 991;
},
{
segmentType = curve;
smooth = 1;
x = 129;
y = 991;
},
{
smooth = 0;
x = 68;
y = 991;
},
{
smooth = 0;
x = 36;
y = 940;
},
{
segmentType = curve;
smooth = 1;
x = 57;
y = 890;
},
{
segmentType = line;
smooth = 1;
x = 382;
y = 121;
},
{
smooth = 0;
x = 418;
y = 36;
},
{
smooth = 0;
x = 447;
y = 0;
}
);
}
);
lib = {
};
name = v;
unicodes = (
);
width = 1027;
};
};
};
}
{
color = 11;
glyphname = w;
kernLeft = v;
kernRight = v;
lastChange = "2022-04-17 21:24:52 +0000";
layers = (
{
anchors = (
{
name = bottom;
pos = (421,0);
},
{
name = top;
pos = (421,505);
}
);
layerId = "BD421374-7BB0-4447-A555-0F47AA5545D5";
shapes = (
{
closed = 1;
nodes = (
(257,0,l),
(436,535,l),
(408,535,l),
(587,0,l),
(620,0,l),
(794,552,l),
(760,552,l),
(594,29,l),
(612,29,l),
(437,552,l),
(407,552,l),
(232,29,l),
(250,29,l),
(84,552,l),
(50,552,l),
(224,0,l)
);
}
);
width = 843.60625;
},
{
anchors = (
{
name = bottom;
pos = (489,0);
},
{
name = top;
pos = (489,505);
}
);
layerId = "4D0470F8-723D-4610-9591-64877B13A03C";
shapes = (
{
closed = 1;
nodes = (
(333,0,l),
(449,377,l),
(422,377,l),
(539,0,l),
(697,0,l),
(876,552,l),
(687,552,l),
(571,173,l),
(629,173,l),
(517,552,l),
(361,552,l),
(247,173,l),
(295,173,l),
(179,552,l),
(-10,552,l),
(169,0,l)
);
}
);
width = 866.09266;
}
);
unicode = 119;
userData = {
anchors = (
);
b = {
};
com.typemytype.robofont.layerData = {
b = {
anchors = (
);
components = (
);
contours = (
{
points = (
{
segmentType = curve;
smooth = 1;
x = 477;
y = 0;
},
{
smooth = 0;
x = 524;
y = 0;
},
{
smooth = 0;
x = 564;
y = 30;
},
{
segmentType = curve;
smooth = 0;
x = 588;
y = 96;
},
{
segmentType = line;
smooth = 0;
x = 859;
y = 839;
},
{
segmentType = line;
smooth = 0;
x = 859;
y = 991;
},
{
smooth = 0;
x = 808;
y = 991;
},
{
smooth = 0;
x = 771;
y = 959;
},
{
segmentType = curve;
smooth = 1;
x = 750;
y = 899;
},
{
segmentType = line;
smooth = 0;
x = 488;
y = 173;
},
{
segmentType = line;
smooth = 1;
x = 223;
y = 936;
},
{
smooth = 0;
x = 210;
y = 974;
},
{
smooth = 0;
x = 183;
y = 991;
},
{
segmentType = curve;
smooth = 1;
x = 152;
y = 991;
},
{
smooth = 0;
x = 112;
y = 991;
},
{
smooth = 0;
x = 79;
y = 962;
},
{
segmentType = curve;
smooth = 1;
x = 79;
y = 916;
},
{
smooth = 0;
x = 79;
y = 909;
},
{
smooth = 0;
x = 81;
y = 899;
},
{
segmentType = curve;
smooth = 0;
x = 84;
y = 888;
},
{
segmentType = line;
smooth = 1;
x = 372;
y = 88;
},
{
smooth = 0;
x = 394;
y = 26;
},
{
smooth = 0;
x = 433;
y = 0;
}
);
},
{
points = (
{
segmentType = curve;
smooth = 1;
x = 1241;
y = 0;
},
{
smooth = 0;
x = 1285;
y = 0;
},
{
smooth = 0;
x = 1324;
y = 26;
},
{
segmentType = curve;
smooth = 1;
x = 1346;
y = 88;
},
{
segmentType = line;
smooth = 0;
x = 1634;
y = 888;
},
{
smooth = 0;
x = 1637;
y = 899;
},
{
smooth = 0;
x = 1639;
y = 909;
},
{
segmentType = curve;
smooth = 1;
x = 1639;
y = 916;
},
{
smooth = 0;
x = 1639;
y = 962;
},
{
smooth = 0;
x = 1606;
y = 991;
},
{
segmentType = curve;
smooth = 1;
x = 1566;
y = 991;
},
{
smooth = 0;
x = 1535;
y = 991;
},
{
smooth = 0;
x = 1508;
y = 974;
},
{
segmentType = curve;
smooth = 1;
x = 1495;
y = 936;
},
{
segmentType = line;
smooth = 0;
x = 1230;
y = 173;
},
{
segmentType = line;
smooth = 1;
x = 968;
y = 899;
},
{
smooth = 0;
x = 947;
y = 959;
},
{
smooth = 0;
x = 910;
y = 991;
},
{
segmentType = curve;
smooth = 0;
x = 859;
y = 991;
},
{
segmentType = line;
smooth = 0;
x = 859;
y = 839;
},
{
segmentType = line;
smooth = 0;
x = 1130;
y = 96;
},
{
smooth = 0;
x = 1154;
y = 30;
},
{
smooth = 0;
x = 1194;
y = 0;
}
);
}
);
lib = {
};
name = w;
unicodes = (
);
width = 1699;
};
};
components = (
);
contours = (
);
lib = {
};
name = w;
unicodes = (
);
width = 1742;
};
}
{
color = 11;
glyphname = x;
kernLeft = x;
kernRight = x;
lastChange = "2022-04-17 21:24:55 +0000";
layers = (
{
anchors = (
{
name = bottom;
pos = (283,0);
},
{
name = top;
pos = (283,505);
}
);
background = {
shapes = (
{
closed = 1;
nodes = (
(78,0,l),
(288,264,l),
(276,264,l),
(484,0,l),
(529,0,l),
(297,291,l),
(297,278,l),
(517,552,l),
(474,552,l),
(277,304,l),
(288,304,l),
(93,552,l),
(49,552,l),
(270,274,l),
(270,299,l),
(36,0,l)
);
}
);
};
layerId = "BD421374-7BB0-4447-A555-0F47AA5545D5";
shapes = (
{
closed = 1;
nodes = (
(303,276,l),
(528,552,l),
(484,552,l),
(282,301,l),
(80,552,l),
(36,552,l),
(261,276,l),
(36,0,l),
(80,0,l),
(282,251,l),
(484,0,l),
(528,0,l)
);
}
);
width = 564;
},
{
anchors = (
{
name = bottom;
pos = (319,0);
},
{
name = top;
pos = (319,505);
}
);
background = {
anchors = (
{
name = bottom;
pos = (319,0);
},
{
name = top;
pos = (319,505);
}
);
shapes = (
{
closed = 1;
nodes = (
(194,0,l),
(349,200,l),
(289,200,l),
(442,0,l),
(659,0,l),
(394,326,l),
(394,243,l),
(643,552,l),
(430,552,l),
(290,366,l),
(350,366,l),
(211,552,l),
(-6,552,l),
(244,244,l),
(244,325,l),
(-20,0,l)
);
}
);
};
layerId = "4D0470F8-723D-4610-9591-64877B13A03C";
shapes = (
{
closed = 1;
nodes = (
(421,276,l),
(654,552,l),
(440,552,l),
(319,401,l),
(198,552,l),
(-16,552,l),
(217,276,l),
(-16,0,l),
(198,0,l),
(319,151,l),
(440,0,l),
(654,0,l)
);
}
);
width = 638;
}
);
unicode = 120;
userData = {
com.typemytype.robofont.layerData = {
b = {
anchors = (
);
components = (
);
contours = (
);
lib = {
};
name = x;
unicodes = (
);
width = 1039;
};
};
};
}
{
color = 11;
glyphname = y;
kernLeft = v;
kernRight = v;
lastChange = "2022-04-17 21:24:59 +0000";
layers = (
{
anchors = (
{
name = bottom;
pos = (414,0);
},
{
name = top;
pos = (284,505);
}
);
layerId = "BD421374-7BB0-4447-A555-0F47AA5545D5";
shapes = (
{
closed = 1;
nodes = (
(300,-4,l),
(64,552,l),
(28,552,l),
(275,-31,l)
);
},
{
closed = 1;
nodes = (
(259,-25,ls),
(223,-110,o),
(198,-161,o),
(117,-166,cs),
(71,-169,l),
(74,-201,l),
(122,-198,ls),
(216,-192,o),
(252,-129,o),
(295,-25,c),
(540,552,l),
(503,552,l)
);
}
);
width = 566.45058;
},
{
anchors = (
{
name = bottom;
pos = (482,0);
},
{
name = top;
pos = (303,505);
}
);
layerId = "4D0470F8-723D-4610-9591-64877B13A03C";
shapes = (
{
closed = 1;
nodes = (
(333,163,l),
(164,552,l),
(-18,552,l),
(230,-19,l)
);
},
{
closed = 1;
nodes = (
(201,5,ls),
(181,-41,o),
(164,-60,o),
(116,-65,cs),
(59,-71,l),
(72,-201,l),
(123,-198,ls),
(311,-187,o),
(330,-119,o),
(396,32,c),
(625,552,l),
(442,552,l)
);
}
);
width = 604.18168;
}
);
unicode = 121;
userData = {
com.typemytype.robofont.layerData = {
b = {
anchors = (
);
components = (
);
contours = (
{
points = (
{
segmentType = line;
smooth = 0;
x = 502;
y = 10;
},
{
segmentType = line;
smooth = 0;
x = 585;
y = 181;
},
{
segmentType = line;
smooth = 1;
x = 241;
y = 931;
},
{
smooth = 0;
x = 225;
y = 966;
},
{
smooth = 0;
x = 201;
y = 984;
},
{
segmentType = curve;
smooth = 1;
x = 171;
y = 984;
},
{
smooth = 0;
x = 117;
y = 984;
},
{
smooth = 0;
x = 64;
y = 936;
},
{
segmentType = curve;
smooth = 0;
x = 91;
y = 887;
}
);
},
{
points = (
{
segmentType = curve;
smooth = 1;
x = 365;
y = "-388";
},
{
smooth = 0;
x = 396;
y = "-388";
},
{
smooth = 0;
x = 424;
y = "-373";
},
{
segmentType = curve;
smooth = 1;
x = 442;
y = "-334";
},
{
segmentType = line;
smooth = 1;
x = 1009;
y = 888;
},
{
smooth = 0;
x = 1013;
y = 898;
},
{
smooth = 0;
x = 1016;
y = 908;
},
{
segmentType = curve;
smooth = 1;
x = 1016;
y = 918;
},
{
smooth = 0;
x = 1018;
y = 962;
},
{
smooth = 0;
x = 978;
y = 990;
},
{
segmentType = curve;
smooth = 1;
x = 938;
y = 990;
},
{
smooth = 0;
x = 910;
y = 990;
},
{
smooth = 0;
x = 883;
y = 977;
},
{
segmentType = curve;
smooth = 0;
x = 866;
y = 941;
},
{
segmentType = line;
smooth = 1;
x = 299;
y = "-286";
},
{
smooth = 0;
x = 272;
y = "-344";
},
{
smooth = 0;
x = 316;
y = "-388";
}
);
}
);
lib = {
};
name = y;
unicodes = (
);
width = 1029;
};
};
};
}
{
color = 11;
glyphname = z;
kernLeft = z;
kernRight = z;
lastChange = "2022-04-17 21:25:03 +0000";
layers = (
{
anchors = (
{
name = bottom;
pos = (265,0);
},
{
name = top;
pos = (265,505);
}
);
layerId = "BD421374-7BB0-4447-A555-0F47AA5545D5";
shapes = (
{
closed = 1;
nodes = (
(472,0,l),
(472,32,l),
(101,32,l),
(101,17,l),
(459,529,l),
(459,552,l),
(68,552,l),
(68,520,l),
(426,520,l),
(427,536,l),
(68,24,l),
(68,0,l)
);
}
);
width = 510.478;
},
{
anchors = (
{
name = bottom;
pos = (278,0);
},
{
name = top;
pos = (278,505);
}
);
layerId = "4D0470F8-723D-4610-9591-64877B13A03C";
shapes = (
{
closed = 1;
nodes = (
(518,0,l),
(518,136,l),
(210,136,l),
(212,88,l),
(506,431,l),
(506,552,l),
(49,552,l),
(49,416,l),
(340,416,l),
(339,461,l),
(49,120,l),
(49,0,l)
);
}
);
width = 543.96822;
}
);
unicode = 122;
}
{
color = 11;
glyphname = braceleft;
kernLeft = hyphen;
kernRight = braceleft;
lastChange = "2022-01-31 14:04:10 +0000";
layers = (
{
layerId = "BD421374-7BB0-4447-A555-0F47AA5545D5";
shapes = (
{
closed = 1;
nodes = (
(307.994,-94,l),
(308,-62,l),
(230,-62,ls),
(200,-62,o),
(184,-47,o),
(184,-14,cs),
(184,267,ls),
(184,329,o),
(150,371,o),
(100,371,c),
(100,366,l),
(150,366,o),
(184,408,o),
(184,470,cs),
(184,750,ls),
(184,783,o),
(200,799,o),
(230,799,cs),
(308,799,l),
(307.994,830,l),
(229.006,830,ls),
(178,830,o),
(150,801,o),
(150,745,cs),
(150,471,ls),
(150,412,o),
(129,388,o),
(74,384,cs),
(56,383,l),
(56,354,l),
(74,353,ls),
(129,350,o),
(150,326,o),
(150,267,cs),
(150,-9,ls),
(150,-65,o),
(178,-94,o),
(229.006,-94,cs)
);
}
);
width = 312.35638;
},
{
layerId = "4D0470F8-723D-4610-9591-64877B13A03C";
shapes = (
{
closed = 1;
nodes = (
(423,-94,l),
(423,39,l),
(362,39,ls),
(333,39,o),
(320,52,o),
(320,85,cs),
(320,241,ls),
(320,308,o),
(271,369,o),
(216,369,c),
(216,364,l),
(271,364,o),
(320,426,o),
(320,494,cs),
(320,651,ls),
(320,684,o),
(333,697,o),
(362,697,cs),
(423,697,l),
(423,830,l),
(286,830,ls),
(194,830,o),
(139,774,o),
(139,681,cs),
(139,515,ls),
(139,460,o),
(125,440,o),
(85,436,cs),
(36,431,l),
(36,302,l),
(85,298,ls),
(125,295,o),
(139,274,o),
(139,219,cs),
(139,55,ls),
(139,-38,o),
(194,-94,o),
(286,-94,cs)
);
}
);
width = 440.2928;
},
{
associatedMasterId = "BD421374-7BB0-4447-A555-0F47AA5545D5";
layerId = "81293E3F-4823-4637-BC73-D481B65F340E";
name = Thin;
shapes = (
{
closed = 1;
nodes = (
(307.994,-94,l),
(308,-62,l),
(230,-62,ls),
(200,-62,o),
(184,-47,o),
(184,-14,cs),
(184,267,ls),
(184,329,o),
(150,371,o),
(100,371,c),
(100,366,l),
(150,366,o),
(184,408,o),
(184,470,cs),
(184,750,ls),
(184,783,o),
(200,799,o),
(230,799,cs),
(308,799,l),
(307.994,830,l),
(229.006,830,ls),
(178,830,o),
(150,801,o),
(150,745,cs),
(150,471,ls),
(150,412,o),
(129,388,o),
(74,384,cs),
(56,383,l),
(56,354,l),
(74,353,ls),
(129,350,o),
(150,326,o),
(150,267,cs),
(150,-9,ls),
(150,-65,o),
(178,-94,o),
(229.006,-94,cs)
);
}
);
width = 312.35638;
},
{
associatedMasterId = "BD421374-7BB0-4447-A555-0F47AA5545D5";
layerId = "570228A7-C191-4E7C-B24B-CD9498E1B2AE";
name = Black;
shapes = (
{
closed = 1;
nodes = (
(423,-94,l),
(423,39,l),
(362,39,ls),
(333,39,o),
(320,52,o),
(320,85,cs),
(320,241,ls),
(320,308,o),
(271,369,o),
(216,369,c),
(216,364,l),
(271,364,o),
(320,426,o),
(320,494,cs),
(320,651,ls),
(320,684,o),
(333,697,o),
(362,697,cs),
(423,697,l),
(423,830,l),
(286,830,ls),
(194,830,o),
(139,774,o),
(139,681,cs),
(139,515,ls),
(139,460,o),
(125,440,o),
(85,436,cs),
(36,431,l),
(36,302,l),
(85,298,ls),
(125,295,o),
(139,274,o),
(139,219,cs),
(139,55,ls),
(139,-38,o),
(194,-94,o),
(286,-94,cs)
);
}
);
width = 440.2928;
}
);
unicode = 123;
}
{
color = 11;
glyphname = braceright;
kernLeft = braceright;
kernRight = hyphen;
lastChange = "2022-01-31 14:04:10 +0000";
layers = (
{
layerId = "BD421374-7BB0-4447-A555-0F47AA5545D5";
shapes = (
{
closed = 1;
nodes = (
(84,-94,ls),
(135,-94,o),
(162,-64,o),
(162,-9,cs),
(162,267,ls),
(162,327,o),
(183,351,o),
(239,353,cs),
(256,354,l),
(256,383,l),
(239,384,ls),
(183,388,o),
(162,411,o),
(162,471,cs),
(162,745,ls),
(162,800,o),
(135,830,o),
(84,830,cs),
(5,830,l),
(5,799,l),
(83,799,ls),
(113,799,o),
(129,783,o),
(129,750,cs),
(129,470,ls),
(129,408,o),
(162,366,o),
(213,366,c),
(213,371,l),
(162,371,o),
(129,329,o),
(129,267,cs),
(129,-14,ls),
(129,-47,o),
(113,-62,o),
(83,-62,cs),
(5,-62,l),
(5,-94,l)
);
}
);
width = 312.35638;
},
{
layerId = "4D0470F8-723D-4610-9591-64877B13A03C";
shapes = (
{
closed = 1;
nodes = (
(153,-94,ls),
(246,-94,o),
(300,-39,o),
(300,55,cs),
(300,219,ls),
(300,273,o),
(316,294,o),
(356,298,cs),
(403,302,l),
(403,431,l),
(356,436,ls),
(316,441,o),
(300,461,o),
(300,515,cs),
(300,681,ls),
(300,775,o),
(246,830,o),
(153,830,cs),
(18,830,l),
(18,697,l),
(79,697,ls),
(108,697,o),
(120,684,o),
(120,651,cs),
(120,494,ls),
(120,426,o),
(170,364,o),
(225,364,c),
(225,369,l),
(170,369,o),
(120,308,o),
(120,241,cs),
(120,85,ls),
(120,52,o),
(108,39,o),
(79,39,cs),
(18,39,l),
(18,-94,l)
);
}
);
width = 440.2928;
},
{
associatedMasterId = "BD421374-7BB0-4447-A555-0F47AA5545D5";
layerId = "81293E3F-4823-4637-BC73-D481B65F340E";
name = Thin;
shapes = (
{
closed = 1;
nodes = (
(84,-94,ls),
(135,-94,o),
(162,-64,o),
(162,-9,cs),
(162,267,ls),
(162,327,o),
(183,351,o),
(239,353,cs),
(256,354,l),
(256,383,l),
(239,384,ls),
(183,388,o),
(162,411,o),
(162,471,cs),
(162,745,ls),
(162,800,o),
(135,830,o),
(84,830,cs),
(5,830,l),
(5,799,l),
(83,799,ls),
(113,799,o),
(129,783,o),
(129,750,cs),
(129,470,ls),
(129,408,o),
(162,366,o),
(213,366,c),
(213,371,l),
(162,371,o),
(129,329,o),
(129,267,cs),
(129,-14,ls),
(129,-47,o),
(113,-62,o),
(83,-62,cs),
(5,-62,l),
(5,-94,l)
);
}
);
width = 312.35638;
},
{
associatedMasterId = "BD421374-7BB0-4447-A555-0F47AA5545D5";
layerId = "570228A7-C191-4E7C-B24B-CD9498E1B2AE";
name = Black;
shapes = (
{
closed = 1;
nodes = (
(153,-94,ls),
(246,-94,o),
(300,-39,o),
(300,55,cs),
(300,219,ls),
(300,273,o),
(316,294,o),
(356,298,cs),
(403,302,l),
(403,431,l),
(356,436,ls),
(316,441,o),
(300,461,o),
(300,515,cs),
(300,681,ls),
(300,775,o),
(246,830,o),
(153,830,cs),
(18,830,l),
(18,697,l),
(79,697,ls),
(108,697,o),
(120,684,o),
(120,651,cs),
(120,494,ls),
(120,426,o),
(170,364,o),
(225,364,c),
(225,369,l),
(170,369,o),
(120,308,o),
(120,241,cs),
(120,85,ls),
(120,52,o),
(108,39,o),
(79,39,cs),
(18,39,l),
(18,-94,l)
);
}
);
width = 440.2928;
}
);
unicode = 125;
}
{
color = 11;
glyphname = asciitilde;
lastChange = "2022-01-31 14:04:10 +0000";
layers = (
{
layerId = "BD421374-7BB0-4447-A555-0F47AA5545D5";
shapes = (
{
closed = 1;
nodes = (
(478,304,o),
(519,335,o),
(548,400,c),
(515,413,l),
(496,366,o),
(462,340,o),
(418,340,cs),
(386,340,o),
(356,358,o),
(308,387,cs),
(253,420,o),
(218,432,o),
(181,432,cs),
(123,432,o),
(81,401,o),
(52,337,c),
(85,325,l),
(106,373,o),
(137,398,o),
(181,398,cs),
(209,398,o),
(235,385,o),
(287,354,cs),
(343,319,o),
(384,304,o),
(420,304,cs)
);
}
);
width = 599.5;
},
{
layerId = "4D0470F8-723D-4610-9591-64877B13A03C";
shapes = (
{
closed = 1;
nodes = (
(467,277,o),
(528,325,o),
(548,393,c),
(459,452,l),
(447,411,o),
(424,392,o),
(393,392,cs),
(373,392,o),
(344,405,o),
(308,425,cs),
(264,450,o),
(228,459,o),
(196,459,cs),
(131,459,o),
(72,413,o),
(52,344,c),
(140,286,l),
(153,326,o),
(176,346,o),
(206,346,cs),
(229,346,o),
(256,332,o),
(294,313,cs),
(342,285,o),
(372,277,o),
(404,277,cs)
);
}
);
width = 599.5;
},
{
associatedMasterId = "BD421374-7BB0-4447-A555-0F47AA5545D5";
layerId = "81293E3F-4823-4637-BC73-D481B65F340E";
name = Thin;
shapes = (
{
closed = 1;
nodes = (
(478,304,o),
(519,335,o),
(548,400,c),
(515,413,l),
(496,366,o),
(462,340,o),
(418,340,cs),
(386,340,o),
(356,358,o),
(308,387,cs),
(253,420,o),
(218,432,o),
(181,432,cs),
(123,432,o),
(81,401,o),
(52,337,c),
(85,325,l),
(106,373,o),
(137,398,o),
(181,398,cs),
(209,398,o),
(235,385,o),
(287,354,cs),
(343,319,o),
(384,304,o),
(420,304,cs)
);
}
);
width = 599.5;
},
{
associatedMasterId = "BD421374-7BB0-4447-A555-0F47AA5545D5";
layerId = "570228A7-C191-4E7C-B24B-CD9498E1B2AE";
name = Black;
shapes = (
{
closed = 1;
nodes = (
(467,277,o),
(528,325,o),
(548,393,c),
(459,452,l),
(447,411,o),
(424,392,o),
(393,392,cs),
(373,392,o),
(344,405,o),
(308,425,cs),
(264,450,o),
(228,459,o),
(196,459,cs),
(131,459,o),
(72,413,o),
(52,344,c),
(140,286,l),
(153,326,o),
(176,346,o),
(206,346,cs),
(229,346,o),
(256,332,o),
(294,313,cs),
(342,285,o),
(372,277,o),
(404,277,cs)
);
}
);
width = 599.5;
}
);
unicode = 126;
}
{
color = 11;
glyphname = exclamdown;
kernLeft = exclamdown;
kernRight = exclamdown;
lastChange = "2022-01-31 14:04:10 +0000";
layers = (
{
layerId = "BD421374-7BB0-4447-A555-0F47AA5545D5";
shapes = (
{
closed = 1;
nodes = (
(127,-188,l),
(116,389,l),
(93,389,l),
(83,-188,l)
);
},
{
closed = 1;
nodes = (
(135,488,l),
(135,551,l),
(74,551,l),
(74,488,l)
);
}
);
width = 209.1657;
},
{
layerId = "4D0470F8-723D-4610-9591-64877B13A03C";
shapes = (
{
closed = 1;
nodes = (
(248,-188,l),
(192,316,l),
(83,316,l),
(27,-188,l)
);
},
{
closed = 1;
nodes = (
(230,375,l),
(230,561,l),
(43,561,l),
(43,375,l)
);
}
);
width = 274.58141;
},
{
associatedMasterId = "BD421374-7BB0-4447-A555-0F47AA5545D5";
layerId = "81293E3F-4823-4637-BC73-D481B65F340E";
name = Thin;
shapes = (
{
closed = 1;
nodes = (
(127,-188,l),
(116,389,l),
(93,389,l),
(83,-188,l)
);
},
{
closed = 1;
nodes = (
(135,488,l),
(135,551,l),
(74,551,l),
(74,488,l)
);
}
);
width = 209.1657;
},
{
associatedMasterId = "BD421374-7BB0-4447-A555-0F47AA5545D5";
layerId = "570228A7-C191-4E7C-B24B-CD9498E1B2AE";
name = Black;
shapes = (
{
closed = 1;
nodes = (
(248,-188,l),
(192,316,l),
(83,316,l),
(27,-188,l)
);
},
{
closed = 1;
nodes = (
(230,375,l),
(230,561,l),
(43,561,l),
(43,375,l)
);
}
);
width = 274.58141;
}
);
unicode = 161;
userData = {
com.typemytype.robofont.layerData = {
b = {
anchors = (
);
components = (
);
contours = (
);
lib = {
};
name = exclamdown;
unicodes = (
);
width = 785;
};
};
};
}
{
color = 11;
glyphname = cent;
lastChange = "2022-01-31 14:04:10 +0000";
layers = (
{
layerId = "BD421374-7BB0-4447-A555-0F47AA5545D5";
shapes = (
{
closed = 1;
nodes = (
(333,-131,l),
(333,7,l),
(322,-8,l),
(381,-7,o),
(449,20,o),
(484,66,c),
(465,93,l),
(425,46,o),
(375,27,o),
(318,27,cs),
(204,27,o),
(136,118,o),
(136,276,cs),
(136,429,o),
(203,525,o),
(319,525,cs),
(375,525,o),
(425,507,o),
(466,457,c),
(484,486,l),
(447,534,o),
(383,559,o),
(323,559,c),
(333,535,l),
(333,678,l),
(298,678,l),
(298,536,l),
(306,560,l),
(182,550,o),
(102,443,o),
(102,277,cs),
(102,110,o),
(185,-4,o),
(307,-7,c),
(298,5,l),
(298,-131,l)
);
}
);
width = 599.5;
},
{
layerId = "4D0470F8-723D-4610-9591-64877B13A03C";
shapes = (
{
closed = 1;
nodes = (
(385,-120,l),
(385,26,l),
(355,-10,l),
(426,-8,o),
(496,16,o),
(540,53,c),
(491,174,l),
(456,146,o),
(412,131,o),
(375,131,cs),
(299,131,o),
(257,180,o),
(257,281,cs),
(257,383,o),
(298,431,o),
(375,431,cs),
(414,431,o),
(456,416,o),
(491,388,c),
(540,509,l),
(496,548,o),
(424,568,o),
(356,570,c),
(385,530,l),
(385,681,l),
(245,681,l),
(245,518,l),
(279,560,l),
(150,536,o),
(71,428,o),
(71,280,cs),
(71,130,o),
(147,27,o),
(280,-2,c),
(245,37,l),
(245,-120,l)
);
}
);
width = 599.5;
},
{
associatedMasterId = "BD421374-7BB0-4447-A555-0F47AA5545D5";
layerId = "81293E3F-4823-4637-BC73-D481B65F340E";
name = Thin;
shapes = (
{
closed = 1;
nodes = (
(333,-131,l),
(333,7,l),
(322,-8,l),
(381,-7,o),
(449,20,o),
(484,66,c),
(465,93,l),
(425,46,o),
(375,27,o),
(318,27,cs),
(204,27,o),
(136,118,o),
(136,276,cs),
(136,429,o),
(203,525,o),
(319,525,cs),
(375,525,o),
(425,507,o),
(466,457,c),
(484,486,l),
(447,534,o),
(383,559,o),
(323,559,c),
(333,535,l),
(333,678,l),
(298,678,l),
(298,536,l),
(306,560,l),
(182,550,o),
(102,443,o),
(102,277,cs),
(102,110,o),
(185,-4,o),
(307,-7,c),
(298,5,l),
(298,-131,l)
);
}
);
width = 599.5;
},
{
associatedMasterId = "BD421374-7BB0-4447-A555-0F47AA5545D5";
layerId = "570228A7-C191-4E7C-B24B-CD9498E1B2AE";
name = Black;
shapes = (
{
closed = 1;
nodes = (
(385,-120,l),
(385,26,l),
(355,-10,l),
(426,-8,o),
(496,16,o),
(540,53,c),
(491,174,l),
(456,146,o),
(412,131,o),
(375,131,cs),
(299,131,o),
(257,180,o),
(257,281,cs),
(257,383,o),
(298,431,o),
(375,431,cs),
(414,431,o),
(456,416,o),
(491,388,c),
(540,509,l),
(496,548,o),
(424,568,o),
(356,570,c),
(385,530,l),
(385,681,l),
(245,681,l),
(245,518,l),
(279,560,l),
(150,536,o),
(71,428,o),
(71,280,cs),
(71,130,o),
(147,27,o),
(280,-2,c),
(245,37,l),
(245,-120,l)
);
}
);
width = 599.5;
}
);
unicode = 162;
userData = {
com.typemytype.robofont.layerData = {
b = {
anchors = (
);
components = (
);
contours = (
);
lib = {
};
name = cent;
unicodes = (
);
width = 1046;
};
};
};
}
{
color = 11;
glyphname = sterling;
lastChange = "2022-01-31 14:04:10 +0000";
layers = (
{
layerId = "BD421374-7BB0-4447-A555-0F47AA5545D5";
shapes = (
{
closed = 1;
nodes = (
(541,0,l),
(541,33,l),
(198,33,l),
(198,353,l),
(391,353,l),
(391,383,l),
(198,383,l),
(198,553,ls),
(198,659,o),
(250,710,o),
(350,710,cs),
(428,710,o),
(494,683,o),
(533,628,c),
(553,660,l),
(506,714,o),
(430,744,o),
(358,744,cs),
(230,744,o),
(164,680,o),
(164,552,cs),
(164,383,l),
(51,383,l),
(51,353,l),
(164,353,l),
(164,33,l),
(51,33,l),
(51,0,l)
);
}
);
width = 599.5;
},
{
layerId = "4D0470F8-723D-4610-9591-64877B13A03C";
shapes = (
{
closed = 1;
nodes = (
(568,0,l),
(568,148,l),
(290,148,l),
(290,316,l),
(437,316,l),
(437,421,l),
(290,421,l),
(290,515,ls),
(290,569,o),
(314,604,o),
(381,604,cs),
(423,604,o),
(472,590,o),
(524,550,c),
(584,680,l),
(530,723,o),
(448,748,o),
(365,748,cs),
(188,748,o),
(104,650,o),
(104,507,cs),
(104,421,l),
(38,421,l),
(38,316,l),
(104,316,l),
(104,148,l),
(38,148,l),
(38,0,l)
);
}
);
width = 599.5;
},
{
associatedMasterId = "BD421374-7BB0-4447-A555-0F47AA5545D5";
layerId = "81293E3F-4823-4637-BC73-D481B65F340E";
name = Thin;
shapes = (
{
closed = 1;
nodes = (
(541,0,l),
(541,33,l),
(198,33,l),
(198,353,l),
(391,353,l),
(391,383,l),
(198,383,l),
(198,553,ls),
(198,659,o),
(250,710,o),
(350,710,cs),
(428,710,o),
(494,683,o),
(533,628,c),
(553,660,l),
(506,714,o),
(430,744,o),
(358,744,cs),
(230,744,o),
(164,680,o),
(164,552,cs),
(164,383,l),
(51,383,l),
(51,353,l),
(164,353,l),
(164,33,l),
(51,33,l),
(51,0,l)
);
}
);
width = 599.5;
},
{
associatedMasterId = "BD421374-7BB0-4447-A555-0F47AA5545D5";
layerId = "570228A7-C191-4E7C-B24B-CD9498E1B2AE";
name = Black;
shapes = (
{
closed = 1;
nodes = (
(568,0,l),
(568,148,l),
(290,148,l),
(290,316,l),
(437,316,l),
(437,421,l),
(290,421,l),
(290,515,ls),
(290,569,o),
(314,604,o),
(381,604,cs),
(423,604,o),
(472,590,o),
(524,550,c),
(584,680,l),
(530,723,o),
(448,748,o),
(365,748,cs),
(188,748,o),
(104,650,o),
(104,507,cs),
(104,421,l),
(38,421,l),
(38,316,l),
(104,316,l),
(104,148,l),
(38,148,l),
(38,0,l)
);
}
);
width = 599.5;
}
);
unicode = 163;
userData = {
com.typemytype.robofont.layerData = {
b = {
anchors = (
);
components = (
);
contours = (
);
lib = {
};
name = sterling;
unicodes = (
);
width = 1361;
};
};
};
}
{
color = 11;
glyphname = currency;
lastChange = "2022-01-31 14:04:10 +0000";
layers = (
{
layerId = "BD421374-7BB0-4447-A555-0F47AA5545D5";
shapes = (
{
closed = 1;
nodes = (
(146,62,l),
(188,27,o),
(242,6,o),
(301,6,cs),
(359,6,o),
(412,27,o),
(453,61,c),
(527,-14,l),
(561,19,l),
(486,95,l),
(522,139,o),
(543,194,o),
(543,256,cs),
(543,317,o),
(522,372,o),
(486,416,c),
(561,491,l),
(527,524,l),
(455,448,l),
(412,484,o),
(359,504,o),
(301,504,cs),
(242,504,o),
(187,483,o),
(146,446,c),
(71,525,l),
(38,491,l),
(113,414,l),
(79,371,o),
(59,314,o),
(59,255,cs),
(59,195,o),
(80,140,o),
(113,97,c),
(38,19,l),
(71,-14,l)
);
},
{
closed = 1;
nodes = (
(189,42,o),
(99,137,o),
(99,255,cs),
(99,373,o),
(189,467,o),
(300,468,cs),
(413,468,o),
(502,374,o),
(502,256,cs),
(502,137,o),
(413,43,o),
(300,43,cs)
);
}
);
width = 599.5;
},
{
layerId = "4D0470F8-723D-4610-9591-64877B13A03C";
shapes = (
{
closed = 1;
nodes = (
(158,49,l),
(198,22,o),
(245,6,o),
(297,6,cs),
(350,6,o),
(399,22,o),
(440,50,c),
(514,-27,l),
(574,32,l),
(499,110,l),
(526,151,o),
(543,203,o),
(543,256,cs),
(543,308,o),
(527,358,o),
(499,400,c),
(576,477,l),
(511,540,l),
(435,463,l),
(397,491,o),
(348,505,o),
(297,505,cs),
(246,505,o),
(199,490,o),
(159,462,c),
(84,538,l),
(24,478,l),
(97,402,l),
(67,360,o),
(49,311,o),
(49,256,cs),
(49,200,o),
(67,150,o),
(97,109,c),
(24,32,l),
(84,-27,l)
);
},
{
closed = 1;
nodes = (
(235,143,o),
(189,194,o),
(189,255,cs),
(189,317,o),
(237,369,o),
(298,368,cs),
(356,367,o),
(406,317,o),
(406,256,cs),
(406,194,o),
(356,143,o),
(298,143,cs)
);
}
);
width = 599.5;
},
{
associatedMasterId = "BD421374-7BB0-4447-A555-0F47AA5545D5";
layerId = "81293E3F-4823-4637-BC73-D481B65F340E";
name = Thin;
shapes = (
{
closed = 1;
nodes = (
(146,62,l),
(188,27,o),
(242,6,o),
(301,6,cs),
(359,6,o),
(412,27,o),
(453,61,c),
(527,-14,l),
(561,19,l),
(486,95,l),
(522,139,o),
(543,194,o),
(543,256,cs),
(543,317,o),
(522,372,o),
(486,416,c),
(561,491,l),
(527,524,l),
(455,448,l),
(412,484,o),
(359,504,o),
(301,504,cs),
(242,504,o),
(187,483,o),
(146,446,c),
(71,525,l),
(38,491,l),
(113,414,l),
(79,371,o),
(59,314,o),
(59,255,cs),
(59,195,o),
(80,140,o),
(113,97,c),
(38,19,l),
(71,-14,l)
);
},
{
closed = 1;
nodes = (
(189,42,o),
(99,137,o),
(99,255,cs),
(99,373,o),
(189,467,o),
(300,468,cs),
(413,468,o),
(502,374,o),
(502,256,cs),
(502,137,o),
(413,43,o),
(300,43,cs)
);
}
);
width = 599.5;
},
{
associatedMasterId = "BD421374-7BB0-4447-A555-0F47AA5545D5";
layerId = "570228A7-C191-4E7C-B24B-CD9498E1B2AE";
name = Black;
shapes = (
{
closed = 1;
nodes = (
(158,49,l),
(198,22,o),
(245,6,o),
(297,6,cs),
(350,6,o),
(399,22,o),
(440,50,c),
(514,-27,l),
(574,32,l),
(499,110,l),
(526,151,o),
(543,203,o),
(543,256,cs),
(543,308,o),
(527,358,o),
(499,400,c),
(576,477,l),
(511,540,l),
(435,463,l),
(397,491,o),
(348,505,o),
(297,505,cs),
(246,505,o),
(199,490,o),
(159,462,c),
(84,538,l),
(24,478,l),
(97,402,l),
(67,360,o),
(49,311,o),
(49,256,cs),
(49,200,o),
(67,150,o),
(97,109,c),
(24,32,l),
(84,-27,l)
);
},
{
closed = 1;
nodes = (
(235,143,o),
(189,194,o),
(189,255,cs),
(189,317,o),
(237,369,o),
(298,368,cs),
(356,367,o),
(406,317,o),
(406,256,cs),
(406,194,o),
(356,143,o),
(298,143,cs)
);
}
);
width = 599.5;
}
);
unicode = 164;
}
{
color = 11;
glyphname = yen;
lastChange = "2022-01-31 14:04:10 +0000";
layers = (
{
layerId = "BD421374-7BB0-4447-A555-0F47AA5545D5";
shapes = (
{
closed = 1;
nodes = (
(317,0,l),
(317,201,l),
(522,201,l),
(522,233,l),
(317,233,l),
(317,357,l),
(522,357,l),
(522,388,l),
(342,388,l),
(342,383,l),
(591,736,l),
(551,736,l),
(294,370,l),
(308,370,l),
(49,736,l),
(9,736,l),
(259,383,l),
(259,388,l),
(77,388,l),
(77,357,l),
(283,357,l),
(283,233,l),
(77,233,l),
(77,201,l),
(283,201,l),
(283,0,l)
);
}
);
width = 599.5;
},
{
layerId = "4D0470F8-723D-4610-9591-64877B13A03C";
shapes = (
{
closed = 1;
nodes = (
(393,0,l),
(393,162,l),
(535,162,l),
(535,259,l),
(393,259,l),
(393,325,l),
(535,325,l),
(535,425,l),
(420,425,l),
(420,404,l),
(628,736,l),
(430,736,l),
(281,474,l),
(318,474,l),
(168,736,l),
(-29,736,l),
(178,404,l),
(178,425,l),
(64,425,l),
(64,325,l),
(206,325,l),
(206,259,l),
(64,259,l),
(64,162,l),
(206,162,l),
(206,0,l)
);
}
);
width = 599.5;
},
{
associatedMasterId = "BD421374-7BB0-4447-A555-0F47AA5545D5";
layerId = "81293E3F-4823-4637-BC73-D481B65F340E";
name = Thin;
shapes = (
{
closed = 1;
nodes = (
(317,0,l),
(317,201,l),
(522,201,l),
(522,233,l),
(317,233,l),
(317,357,l),
(522,357,l),
(522,388,l),
(342,388,l),
(342,383,l),
(591,736,l),
(551,736,l),
(294,370,l),
(308,370,l),
(49,736,l),
(9,736,l),
(259,383,l),
(259,388,l),
(77,388,l),
(77,357,l),
(283,357,l),
(283,233,l),
(77,233,l),
(77,201,l),
(283,201,l),
(283,0,l)
);
}
);
width = 599.5;
},
{
associatedMasterId = "BD421374-7BB0-4447-A555-0F47AA5545D5";
layerId = "570228A7-C191-4E7C-B24B-CD9498E1B2AE";
name = Black;
shapes = (
{
closed = 1;
nodes = (
(393,0,l),
(393,162,l),
(535,162,l),
(535,259,l),
(393,259,l),
(393,325,l),
(535,325,l),
(535,425,l),
(420,425,l),
(420,404,l),
(628,736,l),
(430,736,l),
(281,474,l),
(318,474,l),
(168,736,l),
(-29,736,l),
(178,404,l),
(178,425,l),
(64,425,l),
(64,325,l),
(206,325,l),
(206,259,l),
(64,259,l),
(64,162,l),
(206,162,l),
(206,0,l)
);
}
);
width = 599.5;
}
);
unicode = 165;
}
{
color = 11;
glyphname = section;
kernLeft = section;
kernRight = section;
lastChange = "2022-01-31 14:04:10 +0000";
layers = (
{
layerId = "BD421374-7BB0-4447-A555-0F47AA5545D5";
shapes = (
{
closed = 1;
nodes = (
(344,-102,o),
(428,-34,o),
(428,79,cs),
(428,119,o),
(420,144,o),
(413,158,c),
(409,146,l),
(441,174,o),
(468,230,o),
(468,281,cs),
(468,356,o),
(436,404,o),
(325,461,cs),
(233,509,ls),
(156,546,o),
(127,589,o),
(127,658,cs),
(127,751,o),
(191,803,o),
(277,803,cs),
(340,803,o),
(402,780,o),
(439,741,c),
(458,771,l),
(420,813,o),
(354,838,o),
(281,838,cs),
(174,838,o),
(90,770,o),
(90,658,cs),
(90,618,o),
(99,593,o),
(106,579,c),
(110,591,l),
(77,563,o),
(50,507,o),
(50,456,cs),
(50,380,o),
(84,332,o),
(194,276,cs),
(287,229,ls),
(365,189,o),
(392,145,o),
(392,79,cs),
(392,-14,o),
(328,-68,o),
(235,-68,cs),
(171,-68,o),
(108,-46,o),
(70,-5,c),
(51,-35,l),
(90,-77,o),
(155,-102,o),
(232,-102,cs)
);
},
{
closed = 1;
nodes = (
(85,501,o),
(101,537,o),
(131,564,c),
(112,565,l),
(133,532,o),
(171,499,o),
(234,467,cs),
(311,428,ls),
(406,379,o),
(434,338,o),
(434,280,cs),
(434,236,o),
(417,200,o),
(388,174,c),
(407,172,l),
(385,205,o),
(347,238,o),
(285,270,cs),
(207,309,ls),
(112,357,o),
(85,398,o),
(85,457,cs)
);
}
);
width = 518.73148;
},
{
layerId = "4D0470F8-723D-4610-9591-64877B13A03C";
shapes = (
{
closed = 1;
nodes = (
(435,-106,o),
(532,-31,o),
(532,92,cs),
(532,139,o),
(513,182,o),
(478,214,c),
(465,166,l),
(539,210,o),
(573,268,o),
(573,342,cs),
(573,420,o),
(528,479,o),
(439,521,cs),
(295,588,ls),
(257,606,o),
(239,626,o),
(239,656,cs),
(239,697,o),
(268,719,o),
(320,719,cs),
(374,719,o),
(441,701,o),
(489,673,c),
(533,786,l),
(485,822,o),
(410,842,o),
(319,842,cs),
(164,842,o),
(68,765,o),
(68,643,cs),
(68,596,o),
(87,555,o),
(122,522,c),
(135,570,l),
(63,526,o),
(28,469,o),
(28,394,cs),
(28,316,o),
(73,256,o),
(161,215,cs),
(306,148,ls),
(345,129,o),
(362,108,o),
(362,80,cs),
(362,39,o),
(332,16,o),
(280,16,cs),
(217,16,o),
(139,43,o),
(95,73,c),
(50,-47,l),
(103,-82,o),
(187,-106,o),
(281,-106,cs)
);
},
{
closed = 1;
nodes = (
(185,452,o),
(192,473,o),
(209,497,c),
(169,490,l),
(182,478,o),
(204,464,o),
(220,456,cs),
(346,397,ls),
(393,375,o),
(415,345,o),
(415,306,cs),
(415,284,o),
(408,262,o),
(391,239,c),
(431,245,l),
(418,258,o),
(397,271,o),
(381,280,cs),
(255,339,ls),
(208,361,o),
(185,391,o),
(185,430,cs)
);
}
);
width = 600.26086;
},
{
associatedMasterId = "BD421374-7BB0-4447-A555-0F47AA5545D5";
layerId = "81293E3F-4823-4637-BC73-D481B65F340E";
name = Thin;
shapes = (
{
closed = 1;
nodes = (
(344,-102,o),
(428,-34,o),
(428,79,cs),
(428,119,o),
(420,144,o),
(413,158,c),
(409,146,l),
(441,174,o),
(468,230,o),
(468,281,cs),
(468,356,o),
(436,404,o),
(325,461,cs),
(233,509,ls),
(156,546,o),
(127,589,o),
(127,658,cs),
(127,751,o),
(191,803,o),
(277,803,cs),
(340,803,o),
(402,780,o),
(439,741,c),
(458,771,l),
(420,813,o),
(354,838,o),
(281,838,cs),
(174,838,o),
(90,770,o),
(90,658,cs),
(90,618,o),
(99,593,o),
(106,579,c),
(110,591,l),
(77,563,o),
(50,507,o),
(50,456,cs),
(50,380,o),
(84,332,o),
(194,276,cs),
(287,229,ls),
(365,189,o),
(392,145,o),
(392,79,cs),
(392,-14,o),
(328,-68,o),
(235,-68,cs),
(171,-68,o),
(108,-46,o),
(70,-5,c),
(51,-35,l),
(90,-77,o),
(155,-102,o),
(232,-102,cs)
);
},
{
closed = 1;
nodes = (
(85,501,o),
(101,537,o),
(131,564,c),
(112,565,l),
(133,532,o),
(171,499,o),
(234,467,cs),
(311,428,ls),
(406,379,o),
(434,338,o),
(434,280,cs),
(434,236,o),
(417,200,o),
(388,174,c),
(407,172,l),
(385,205,o),
(347,238,o),
(285,270,cs),
(207,309,ls),
(112,357,o),
(85,398,o),
(85,457,cs)
);
}
);
width = 518.73148;
},
{
associatedMasterId = "BD421374-7BB0-4447-A555-0F47AA5545D5";
layerId = "570228A7-C191-4E7C-B24B-CD9498E1B2AE";
name = Black;
shapes = (
{
closed = 1;
nodes = (
(435,-106,o),
(532,-31,o),
(532,92,cs),
(532,139,o),
(513,182,o),
(478,214,c),
(465,166,l),
(539,210,o),
(573,268,o),
(573,342,cs),
(573,420,o),
(528,479,o),
(439,521,cs),
(295,588,ls),
(257,606,o),
(239,626,o),
(239,656,cs),
(239,697,o),
(268,719,o),
(320,719,cs),
(374,719,o),
(441,701,o),
(489,673,c),
(533,786,l),
(485,822,o),
(410,842,o),
(319,842,cs),
(164,842,o),
(68,765,o),
(68,643,cs),
(68,596,o),
(87,555,o),
(122,522,c),
(135,570,l),
(63,526,o),
(28,469,o),
(28,394,cs),
(28,316,o),
(73,256,o),
(161,215,cs),
(306,148,ls),
(345,129,o),
(362,108,o),
(362,80,cs),
(362,39,o),
(332,16,o),
(280,16,cs),
(217,16,o),
(139,43,o),
(95,73,c),
(50,-47,l),
(103,-82,o),
(187,-106,o),
(281,-106,cs)
);
},
{
closed = 1;
nodes = (
(185,452,o),
(192,473,o),
(209,497,c),
(169,490,l),
(182,478,o),
(204,464,o),
(220,456,cs),
(346,397,ls),
(393,375,o),
(415,345,o),
(415,306,cs),
(415,284,o),
(408,262,o),
(391,239,c),
(431,245,l),
(418,258,o),
(397,271,o),
(381,280,cs),
(255,339,ls),
(208,361,o),
(185,391,o),
(185,430,cs)
);
}
);
width = 600.26086;
}
);
unicode = 167;
}
{
color = 11;
glyphname = copyright;
kernLeft = O;
kernRight = O;
lastChange = "2022-01-31 14:04:10 +0000";
layers = (
{
layerId = "BD421374-7BB0-4447-A555-0F47AA5545D5";
shapes = (
{
closed = 1;
nodes = (
(613,-8,o),
(766,153,o),
(766,369,cs),
(766,585,o),
(613,744,o),
(407,744,cs),
(201,744,o),
(48,585,o),
(48,369,cs),
(48,153,o),
(201,-8,o),
(407,-8,cs)
);
},
{
closed = 1;
nodes = (
(468,143,o),
(522,165,o),
(556,201,c),
(538,229,l),
(500,192,o),
(456,177,o),
(413,177,cs),
(311,177,o),
(253,249,o),
(253,370,cs),
(253,493,o),
(312,559,o),
(413,559,cs),
(456,559,o),
(499,545,o),
(538,507,c),
(556,534,l),
(522,571,o),
(470,593,o),
(414,593,cs),
(290,593,o),
(218,510,o),
(218,371,cs),
(218,232,o),
(290,143,o),
(414,143,cs)
);
},
{
closed = 1;
nodes = (
(223,28,o),
(84,172,o),
(84,369,cs),
(84,564,o),
(223,708,o),
(407,708,cs),
(591,708,o),
(730,565,o),
(730,369,cs),
(730,172,o),
(591,28,o),
(407,28,cs)
);
}
);
width = 813.70564;
},
{
layerId = "4D0470F8-723D-4610-9591-64877B13A03C";
shapes = (
{
closed = 1;
nodes = (
(615,-12,o),
(770,150,o),
(770,369,cs),
(770,587,o),
(615,748,o),
(407,748,cs),
(199,748,o),
(44,586,o),
(44,369,cs),
(44,150,o),
(198,-12,o),
(407,-12,cs)
);
},
{
closed = 1;
nodes = (
(482,143,o),
(542,160,o),
(576,188,c),
(536,289,l),
(513,270,o),
(481,257,o),
(446,257,cs),
(387,257,o),
(353,295,o),
(353,367,cs),
(353,440,o),
(387,479,o),
(446,479,cs),
(481,479,o),
(512,466,o),
(536,447,c),
(576,548,l),
(542,576,o),
(483,593,o),
(428,593,cs),
(291,593,o),
(205,509,o),
(205,367,cs),
(205,227,o),
(291,143,o),
(428,143,cs)
);
},
{
closed = 1;
nodes = (
(234,53,o),
(114,185,o),
(114,369,cs),
(114,551,o),
(234,683,o),
(407,683,cs),
(579,683,o),
(700,552,o),
(700,369,cs),
(700,185,o),
(579,53,o),
(407,53,cs)
);
}
);
width = 813.3944;
},
{
associatedMasterId = "BD421374-7BB0-4447-A555-0F47AA5545D5";
layerId = "81293E3F-4823-4637-BC73-D481B65F340E";
name = Thin;
shapes = (
{
closed = 1;
nodes = (
(613,-8,o),
(766,153,o),
(766,369,cs),
(766,585,o),
(613,744,o),
(407,744,cs),
(201,744,o),
(48,585,o),
(48,369,cs),
(48,153,o),
(201,-8,o),
(407,-8,cs)
);
},
{
closed = 1;
nodes = (
(468,143,o),
(522,165,o),
(556,201,c),
(538,229,l),
(500,192,o),
(456,177,o),
(413,177,cs),
(311,177,o),
(253,249,o),
(253,370,cs),
(253,493,o),
(312,559,o),
(413,559,cs),
(456,559,o),
(499,545,o),
(538,507,c),
(556,534,l),
(522,571,o),
(470,593,o),
(414,593,cs),
(290,593,o),
(218,510,o),
(218,371,cs),
(218,232,o),
(290,143,o),
(414,143,cs)
);
},
{
closed = 1;
nodes = (
(223,28,o),
(84,172,o),
(84,369,cs),
(84,564,o),
(223,708,o),
(407,708,cs),
(591,708,o),
(730,565,o),
(730,369,cs),
(730,172,o),
(591,28,o),
(407,28,cs)
);
}
);
width = 813.70564;
},
{
associatedMasterId = "BD421374-7BB0-4447-A555-0F47AA5545D5";
layerId = "570228A7-C191-4E7C-B24B-CD9498E1B2AE";
name = Black;
shapes = (
{
closed = 1;
nodes = (
(615,-12,o),
(770,150,o),
(770,369,cs),
(770,587,o),
(615,748,o),
(407,748,cs),
(199,748,o),
(44,586,o),
(44,369,cs),
(44,150,o),
(198,-12,o),
(407,-12,cs)
);
},
{
closed = 1;
nodes = (
(482,143,o),
(542,160,o),
(576,188,c),
(536,289,l),
(513,270,o),
(481,257,o),
(446,257,cs),
(387,257,o),
(353,295,o),
(353,367,cs),
(353,440,o),
(387,479,o),
(446,479,cs),
(481,479,o),
(512,466,o),
(536,447,c),
(576,548,l),
(542,576,o),
(483,593,o),
(428,593,cs),
(291,593,o),
(205,509,o),
(205,367,cs),
(205,227,o),
(291,143,o),
(428,143,cs)
);
},
{
closed = 1;
nodes = (
(234,53,o),
(114,185,o),
(114,369,cs),
(114,551,o),
(234,683,o),
(407,683,cs),
(579,683,o),
(700,552,o),
(700,369,cs),
(700,185,o),
(579,53,o),
(407,53,cs)
);
}
);
width = 813.3944;
}
);
unicode = 169;
}
{
color = 11;
glyphname = ordfeminine;
kernLeft = ord;
kernRight = ord;
lastChange = "2022-01-31 14:04:10 +0000";
layers = (
{
layerId = "BD421374-7BB0-4447-A555-0F47AA5545D5";
shapes = (
{
closed = 1;
nodes = (
(208,432,o),
(245,450,o),
(271,492,c),
(274,492,l),
(274,436,l),
(305,436,l),
(305,632,ls),
(305,707,o),
(264,744,o),
(183,744,cs),
(133,744,o),
(84,732,o),
(51,709,c),
(63,682,l),
(94,705,o),
(136,717,o),
(182,717,cs),
(245,717,o),
(274,691,o),
(274,633,cs),
(274,571,ls),
(274,504,o),
(226,461,o),
(158,461,cs),
(101,461,o),
(71,488,o),
(71,523,cs),
(71,564,o),
(114,581,o),
(211,581,cs),
(282,581,l),
(282,610,l),
(210,610,ls),
(101,610,o),
(37,585,o),
(37,524,cs),
(37,471,o),
(88,432,o),
(157,432,cs)
);
}
);
width = 354.8846;
},
{
layerId = "4D0470F8-723D-4610-9591-64877B13A03C";
shapes = (
{
closed = 1;
nodes = (
(201,422,o),
(233,445,o),
(252,488,c),
(255,488,l),
(255,429,l),
(364,429,l),
(364,612,ls),
(364,702,o),
(309,748,o),
(195,748,cs),
(138,748,o),
(74,734,o),
(36,713,c),
(62,636,l),
(98,655,o),
(147,664,o),
(184,664,cs),
(230,664,o),
(249,653,o),
(249,621,cs),
(249,558,ls),
(249,519,o),
(219,496,o),
(180,496,cs),
(149,496,o),
(133,509,o),
(133,527,cs),
(133,552,o),
(160,560,o),
(214,560,cs),
(262,560,l),
(262,618,l),
(211,618,ls),
(76,618,o),
(18,592,o),
(18,525,cs),
(18,466,o),
(74,422,o),
(150,422,cs)
);
}
);
width = 393.58533;
},
{
associatedMasterId = "BD421374-7BB0-4447-A555-0F47AA5545D5";
layerId = "81293E3F-4823-4637-BC73-D481B65F340E";
name = Thin;
shapes = (
{
closed = 1;
nodes = (
(208,432,o),
(245,450,o),
(271,492,c),
(274,492,l),
(274,436,l),
(305,436,l),
(305,632,ls),
(305,707,o),
(264,744,o),
(183,744,cs),
(133,744,o),
(84,732,o),
(51,709,c),
(63,682,l),
(94,705,o),
(136,717,o),
(182,717,cs),
(245,717,o),
(274,691,o),
(274,633,cs),
(274,571,ls),
(274,504,o),
(226,461,o),
(158,461,cs),
(101,461,o),
(71,488,o),
(71,523,cs),
(71,564,o),
(114,581,o),
(211,581,cs),
(282,581,l),
(282,610,l),
(210,610,ls),
(101,610,o),
(37,585,o),
(37,524,cs),
(37,471,o),
(88,432,o),
(157,432,cs)
);
}
);
width = 354.8846;
},
{
associatedMasterId = "BD421374-7BB0-4447-A555-0F47AA5545D5";
layerId = "570228A7-C191-4E7C-B24B-CD9498E1B2AE";
name = Black;
shapes = (
{
closed = 1;
nodes = (
(201,422,o),
(233,445,o),
(252,488,c),
(255,488,l),
(255,429,l),
(364,429,l),
(364,612,ls),
(364,702,o),
(309,748,o),
(195,748,cs),
(138,748,o),
(74,734,o),
(36,713,c),
(62,636,l),
(98,655,o),
(147,664,o),
(184,664,cs),
(230,664,o),
(249,653,o),
(249,621,cs),
(249,558,ls),
(249,519,o),
(219,496,o),
(180,496,cs),
(149,496,o),
(133,509,o),
(133,527,cs),
(133,552,o),
(160,560,o),
(214,560,cs),
(262,560,l),
(262,618,l),
(211,618,ls),
(76,618,o),
(18,592,o),
(18,525,cs),
(18,466,o),
(74,422,o),
(150,422,cs)
);
}
);
width = 393.58533;
}
);
unicode = 170;
}
{
color = 11;
glyphname = logicalnot;
lastChange = "2022-01-31 14:04:10 +0000";
layers = (
{
layerId = "BD421374-7BB0-4447-A555-0F47AA5545D5";
shapes = (
{
closed = 1;
nodes = (
(548,239,l),
(548,492,l),
(52,492,l),
(52,458,l),
(512,458,l),
(512,239,l)
);
}
);
width = 599.5;
},
{
layerId = "4D0470F8-723D-4610-9591-64877B13A03C";
shapes = (
{
closed = 1;
nodes = (
(548,208,l),
(548,531,l),
(52,531,l),
(52,412,l),
(422,412,l),
(422,208,l)
);
}
);
width = 599.5;
},
{
associatedMasterId = "BD421374-7BB0-4447-A555-0F47AA5545D5";
layerId = "81293E3F-4823-4637-BC73-D481B65F340E";
name = Thin;
shapes = (
{
closed = 1;
nodes = (
(548,239,l),
(548,492,l),
(52,492,l),
(52,458,l),
(512,458,l),
(512,239,l)
);
}
);
width = 599.5;
},
{
associatedMasterId = "BD421374-7BB0-4447-A555-0F47AA5545D5";
layerId = "570228A7-C191-4E7C-B24B-CD9498E1B2AE";
name = Black;
shapes = (
{
closed = 1;
nodes = (
(548,208,l),
(548,531,l),
(52,531,l),
(52,412,l),
(422,412,l),
(422,208,l)
);
}
);
width = 599.5;
}
);
unicode = 172;
}
{
color = 11;
glyphname = registered;
kernLeft = O;
kernRight = O;
lastChange = "2022-01-31 14:04:10 +0000";
layers = (
{
layerId = "BD421374-7BB0-4447-A555-0F47AA5545D5";
shapes = (
{
closed = 1;
nodes = (
(613,-8,o),
(766,153,o),
(766,369,cs),
(766,585,o),
(613,744,o),
(407,744,cs),
(201,744,o),
(48,585,o),
(48,369,cs),
(48,153,o),
(201,-8,o),
(407,-8,cs)
);
},
{
closed = 1;
nodes = (
(223,28,o),
(84,172,o),
(84,369,cs),
(84,564,o),
(223,708,o),
(407,708,cs),
(591,708,o),
(730,565,o),
(730,369,cs),
(730,172,o),
(591,28,o),
(407,28,cs)
);
},
{
closed = 1;
nodes = (
(311,148,l),
(311,349,l),
(301,340,l),
(390,340,ls),
(432,340,o),
(461,329,o),
(478,288,cs),
(536,148,l),
(575,148,l),
(514,296,ls),
(497,334,o),
(471,349,o),
(436,349,c),
(430,340,l),
(517,340,o),
(568,384,o),
(568,463,cs),
(568,544,o),
(519,588,o),
(432,588,cs),
(275,588,l),
(275,148,l)
);
},
{
closed = 1;
nodes = (
(311,554,l),
(428,554,ls),
(498,554,o),
(530,524,o),
(530,464,cs),
(530,403,o),
(497,374,o),
(428,374,cs),
(311,374,l)
);
}
);
width = 813.70564;
},
{
layerId = "4D0470F8-723D-4610-9591-64877B13A03C";
shapes = (
{
closed = 1;
nodes = (
(615,-12,o),
(770,151,o),
(770,369,cs),
(770,586,o),
(615,748,o),
(407,748,cs),
(199,748,o),
(44,586,o),
(44,369,cs),
(44,150,o),
(198,-12,o),
(407,-12,cs)
);
},
{
closed = 1;
nodes = (
(234,53,o),
(114,185,o),
(114,369,cs),
(114,551,o),
(234,683,o),
(407,683,cs),
(579,683,o),
(700,552,o),
(700,369,cs),
(700,185,o),
(579,53,o),
(407,53,cs)
);
},
{
closed = 1;
nodes = (
(371,148,l),
(371,318,l),
(353,307,l),
(391,307,ls),
(411,307,o),
(423,298,o),
(430,274,cs),
(460,148,l),
(594,148,l),
(566,255,ls),
(550,324,o),
(526,342,o),
(480,342,c),
(442,331,l),
(533,331,o),
(589,376,o),
(589,458,cs),
(589,533,o),
(532,590,o),
(434,590,cs),
(238,590,l),
(238,148,l)
);
},
{
closed = 1;
nodes = (
(370,496,l),
(415,496,ls),
(445,496,o),
(464,482,o),
(464,450,cs),
(464,416,o),
(447,401,o),
(415,401,cs),
(370,401,l)
);
}
);
width = 813.3944;
},
{
associatedMasterId = "BD421374-7BB0-4447-A555-0F47AA5545D5";
layerId = "81293E3F-4823-4637-BC73-D481B65F340E";
name = Thin;
shapes = (
{
closed = 1;
nodes = (
(613,-8,o),
(766,153,o),
(766,369,cs),
(766,585,o),
(613,744,o),
(407,744,cs),
(201,744,o),
(48,585,o),
(48,369,cs),
(48,153,o),
(201,-8,o),
(407,-8,cs)
);
},
{
closed = 1;
nodes = (
(223,28,o),
(84,172,o),
(84,369,cs),
(84,564,o),
(223,708,o),
(407,708,cs),
(591,708,o),
(730,565,o),
(730,369,cs),
(730,172,o),
(591,28,o),
(407,28,cs)
);
},
{
closed = 1;
nodes = (
(311,148,l),
(311,349,l),
(301,340,l),
(390,340,ls),
(432,340,o),
(461,329,o),
(478,288,cs),
(536,148,l),
(575,148,l),
(514,296,ls),
(497,334,o),
(471,349,o),
(436,349,c),
(430,340,l),
(517,340,o),
(568,384,o),
(568,463,cs),
(568,544,o),
(519,588,o),
(432,588,cs),
(275,588,l),
(275,148,l)
);
},
{
closed = 1;
nodes = (
(311,554,l),
(428,554,ls),
(498,554,o),
(530,524,o),
(530,464,cs),
(530,403,o),
(497,374,o),
(428,374,cs),
(311,374,l)
);
}
);
width = 813.70564;
},
{
associatedMasterId = "BD421374-7BB0-4447-A555-0F47AA5545D5";
layerId = "570228A7-C191-4E7C-B24B-CD9498E1B2AE";
name = Black;
shapes = (
{
closed = 1;
nodes = (
(615,-12,o),
(770,151,o),
(770,369,cs),
(770,586,o),
(615,748,o),
(407,748,cs),
(199,748,o),
(44,586,o),
(44,369,cs),
(44,150,o),
(198,-12,o),
(407,-12,cs)
);
},
{
closed = 1;
nodes = (
(234,53,o),
(114,185,o),
(114,369,cs),
(114,551,o),
(234,683,o),
(407,683,cs),
(579,683,o),
(700,552,o),
(700,369,cs),
(700,185,o),
(579,53,o),
(407,53,cs)
);
},
{
closed = 1;
nodes = (
(371,148,l),
(371,318,l),
(353,307,l),
(391,307,ls),
(411,307,o),
(423,298,o),
(430,274,cs),
(460,148,l),
(594,148,l),
(566,255,ls),
(550,324,o),
(526,342,o),
(480,342,c),
(442,331,l),
(533,331,o),
(589,376,o),
(589,458,cs),
(589,533,o),
(532,590,o),
(434,590,cs),
(238,590,l),
(238,148,l)
);
},
{
closed = 1;
nodes = (
(370,496,l),
(415,496,ls),
(445,496,o),
(464,482,o),
(464,450,cs),
(464,416,o),
(447,401,o),
(415,401,cs),
(370,401,l)
);
}
);
width = 813.3944;
}
);
unicode = 174;
}
